{"glyphs":{"0":{"ha":728,"x_min":43,"x_max":687,"o":"m 43 527 q 130 876 43 741 q 374 1011 217 1011 q 609 899 530 1011 q 687 505 687 786 q 605 125 687 264 q 365 -14 523 -14 q 125 98 207 -14 q 43 527 43 210 m 179 515 q 355 102 179 102 q 504 193 456 102 q 551 514 551 285 q 533 746 551 672 q 474 858 515 820 q 371 896 433 896 q 179 515 179 896 z "},"1":{"ha":728,"x_min":136,"x_max":473,"o":"m 338 0 l 338 762 l 136 635 l 136 762 q 299 869 212 801 q 433 998 385 937 l 473 998 l 473 0 l 338 0 z "},"2":{"ha":728,"x_min":40,"x_max":657,"o":"m 47 0 l 47 27 l 358 504 q 456 758 456 654 q 300 896 456 896 q 197 867 245 896 q 127 794 149 838 l 40 866 q 131 972 63 932 q 294 1011 198 1011 q 517 945 437 1011 q 598 758 598 879 q 491 476 598 646 l 268 122 l 657 122 l 657 0 l 47 0 z "},"3":{"ha":728,"x_min":74,"x_max":638,"o":"m 74 71 l 139 175 q 307 102 205 102 q 496 286 496 102 q 441 423 496 370 q 295 475 386 475 l 284 475 l 284 585 l 290 585 q 463 737 463 585 q 300 896 463 896 q 160 837 212 896 l 100 929 q 311 1011 163 1011 q 523 942 441 1011 q 605 764 605 872 q 559 617 605 681 q 452 532 513 553 q 588 437 537 504 q 638 275 638 370 q 551 62 638 137 q 305 -14 463 -14 q 175 11 239 -14 q 74 71 111 36 z "},"4":{"ha":728,"x_min":17,"x_max":699,"o":"m 598 271 l 598 0 l 469 0 l 469 271 l 17 271 l 17 348 l 551 998 l 598 998 l 598 375 l 699 375 l 699 271 l 598 271 m 469 727 l 178 375 l 469 375 l 469 727 z "},"5":{"ha":728,"x_min":88,"x_max":652,"o":"m 157 485 l 111 517 l 111 998 l 606 998 l 606 882 l 240 882 l 240 641 q 368 678 290 678 q 579 595 506 678 q 652 360 652 513 q 319 -14 652 -14 q 88 64 180 -14 l 140 177 q 318 102 233 102 q 509 340 509 102 q 321 563 509 563 q 157 485 230 563 z "},"6":{"ha":728,"x_min":57,"x_max":671,"o":"m 456 1011 l 522 939 q 349 778 462 915 q 224 568 236 642 q 380 622 280 622 q 591 538 512 622 q 671 307 671 454 q 589 72 671 161 q 384 -17 507 -17 q 57 416 57 -17 q 185 786 57 597 q 456 1011 313 975 m 199 311 q 374 98 199 98 q 489 154 447 98 q 532 300 532 209 q 487 450 532 394 q 372 507 442 507 q 199 311 199 507 z "},"7":{"ha":728,"x_min":57,"x_max":701,"o":"m 290 0 l 140 0 q 309 421 190 159 q 526 869 427 684 l 57 869 l 57 998 l 701 998 l 701 945 l 614 772 q 522 581 570 685 q 427 368 473 476 q 347 166 381 259 q 290 0 312 73 z "},"8":{"ha":728,"x_min":60,"x_max":671,"o":"m 239 553 q 136 647 176 587 q 96 772 96 707 q 171 947 96 882 q 365 1011 246 1011 q 564 947 493 1011 q 634 771 634 882 q 591 638 634 706 q 492 539 549 571 q 671 275 671 439 q 589 62 671 138 q 361 -14 506 -14 q 60 275 60 -14 q 112 439 60 359 q 239 553 163 520 m 406 595 q 498 774 498 682 q 461 863 498 830 q 365 896 424 896 q 232 773 232 896 q 406 595 232 682 m 345 494 q 196 275 196 413 q 242 152 196 201 q 361 102 288 102 q 487 151 437 102 q 536 275 536 199 q 502 379 536 330 q 345 494 468 427 z "},"9":{"ha":728,"x_min":50,"x_max":664,"o":"m 265 -17 l 199 56 q 372 216 258 79 q 497 426 486 352 q 340 372 441 372 q 130 456 209 372 q 50 688 50 541 q 132 922 50 833 q 337 1011 214 1011 q 664 578 664 1011 q 536 209 664 397 q 265 -17 408 20 m 522 684 q 347 896 522 896 q 232 841 274 896 q 189 694 189 785 q 234 544 189 600 q 349 488 279 488 q 522 684 522 488 z "}," ":{"ha":418,"x_min":0,"x_max":0,"o":""},"!":{"ha":510,"x_min":159,"x_max":362,"o":"m 280 259 l 232 259 q 180 733 180 600 l 180 1011 l 333 1011 l 333 734 q 280 259 333 604 m 260 191 q 332 161 302 191 q 362 89 362 131 q 332 17 362 47 q 260 -14 302 -14 q 189 17 218 -14 q 159 89 159 47 q 189 161 159 131 q 260 191 218 191 z "},"\"":{"ha":451,"x_min":49,"x_max":397,"o":"m 155 736 l 65 736 l 49 995 l 174 995 l 155 736 m 379 736 l 289 736 l 273 995 l 397 995 l 379 736 z "},"#":{"ha":728,"x_min":25,"x_max":736,"o":"m 596 642 l 529 376 l 638 376 l 638 289 l 507 289 l 422 -14 l 336 -14 l 420 289 l 219 289 l 135 -14 l 47 -14 l 130 289 l 25 289 l 25 376 l 153 376 l 220 642 l 103 642 l 103 729 l 242 729 l 311 1008 l 400 1008 l 330 729 l 532 729 l 602 1008 l 688 1008 l 618 729 l 736 729 l 736 642 l 596 642 m 309 642 l 241 376 l 443 376 l 510 642 l 309 642 z "},"$":{"ha":728,"x_min":92,"x_max":652,"o":"m 311 -17 q 193 7 264 -14 q 95 45 121 28 l 144 170 q 237 125 179 144 q 340 105 295 105 q 468 149 420 105 q 516 259 516 192 q 502 334 516 301 q 464 386 488 366 q 355 446 440 406 l 275 484 q 133 596 173 531 q 92 753 92 661 q 152 917 92 847 q 311 1005 211 987 l 311 1114 l 405 1114 l 405 1010 q 602 957 551 1004 l 562 839 q 479 877 535 859 q 376 895 424 895 q 268 856 307 895 q 228 755 228 817 q 242 686 228 717 q 283 633 256 654 q 386 574 309 611 l 448 545 q 603 424 554 496 q 652 241 652 353 q 586 79 652 149 q 405 -10 521 9 l 405 -167 l 311 -167 l 311 -17 z "},"%":{"ha":833,"x_min":41,"x_max":785,"o":"m 148 -14 l 62 -14 l 661 1011 l 746 1011 l 148 -14 m 41 788 q 96 949 41 888 q 236 1011 151 1011 q 369 950 319 1011 q 419 775 419 889 q 366 607 419 669 q 230 545 313 545 q 41 788 41 545 m 127 781 q 154 658 127 702 q 224 614 180 614 q 334 781 334 614 q 234 942 334 942 q 156 899 184 942 q 127 781 127 855 m 408 229 q 463 391 408 329 q 602 452 517 452 q 735 391 686 452 q 785 216 785 330 q 732 48 785 111 q 596 -14 680 -14 q 408 229 408 -14 m 493 222 q 520 99 493 143 q 590 56 547 56 q 700 222 700 56 q 600 383 700 383 q 522 340 551 383 q 493 222 493 296 z "},"&":{"ha":981,"x_min":96,"x_max":915,"o":"m 630 35 q 393 -14 532 -14 q 174 70 251 -14 q 96 307 96 154 q 120 444 96 386 q 205 563 143 501 q 110 760 110 658 q 188 938 110 864 q 398 1011 267 1011 q 614 949 538 1011 l 557 845 q 419 909 480 909 q 239 747 239 909 q 317 597 239 659 l 570 597 l 570 722 l 699 771 l 699 595 l 867 595 l 867 487 l 699 487 l 699 263 q 724 136 699 170 q 810 102 749 102 q 897 127 847 102 l 915 7 q 752 -14 844 -14 q 630 35 689 -14 m 570 213 l 570 487 l 296 487 q 232 313 232 404 q 439 102 232 102 q 577 135 531 102 q 570 213 570 166 z "},"'":{"ha":222,"x_min":49,"x_max":174,"o":"m 155 736 l 65 736 l 49 995 l 174 995 l 155 736 z "},"(":{"ha":510,"x_min":131,"x_max":419,"o":"m 419 1000 l 419 944 q 285 378 285 750 q 419 -219 285 -64 l 419 -290 q 207 -16 282 -195 q 131 379 131 163 q 217 752 131 564 q 419 1000 303 940 z "},")":{"ha":510,"x_min":131,"x_max":419,"o":"m 131 -290 l 131 -219 q 265 378 265 -64 q 131 944 265 750 l 131 1000 q 333 752 247 940 q 419 379 419 564 q 343 -16 419 163 q 131 -290 268 -195 z "},"*":{"ha":510,"x_min":33,"x_max":463,"o":"m 405 764 l 288 762 l 395 691 l 427 649 l 344 578 l 307 626 l 252 734 l 190 624 l 161 581 l 72 649 l 106 696 l 213 752 l 94 770 l 33 792 l 81 894 l 146 869 l 231 804 l 189 943 l 189 997 l 308 997 l 308 945 l 267 802 l 374 875 l 425 893 l 463 784 l 405 764 z "},"+":{"ha":728,"x_min":83,"x_max":651,"o":"m 414 479 l 651 479 l 651 383 l 414 383 l 414 149 l 319 149 l 319 383 l 83 383 l 83 479 l 319 479 l 319 711 l 414 711 l 414 479 z "},",":{"ha":510,"x_min":117,"x_max":349,"o":"m 152 -246 l 117 -197 q 234 -35 234 -102 q 214 25 234 -5 q 155 105 155 53 q 183 164 155 141 q 253 188 211 188 q 320 155 290 188 q 349 79 349 123 q 312 -83 349 -11 q 152 -246 274 -155 z "},"-":{"ha":510,"x_min":108,"x_max":398,"o":"m 108 343 l 108 462 l 398 462 l 398 343 l 108 343 z "},".":{"ha":510,"x_min":138,"x_max":342,"o":"m 240 191 q 312 161 282 191 q 342 89 342 131 q 312 17 342 47 q 240 -14 282 -14 q 168 17 198 -14 q 138 89 138 47 q 168 161 138 131 q 240 191 198 191 z "},"/":{"ha":728,"x_min":128,"x_max":596,"o":"m 237 0 l 128 0 l 488 998 l 596 998 l 237 0 z "},":":{"ha":510,"x_min":138,"x_max":342,"o":"m 240 740 q 312 710 282 740 q 342 638 342 680 q 312 566 342 596 q 240 536 282 536 q 168 566 198 536 q 138 638 138 596 q 168 710 138 680 q 240 740 198 740 m 240 191 q 312 161 282 191 q 342 89 342 131 q 312 17 342 47 q 240 -14 282 -14 q 168 17 198 -14 q 138 89 138 47 q 168 161 138 131 q 240 191 198 191 z "},";":{"ha":510,"x_min":117,"x_max":349,"o":"m 240 740 q 312 710 282 740 q 342 638 342 680 q 312 566 342 596 q 240 536 282 536 q 168 566 198 536 q 138 638 138 596 q 168 710 138 680 q 240 740 198 740 m 152 -246 l 117 -197 q 234 -35 234 -102 q 214 25 234 -5 q 155 105 155 53 q 183 164 155 141 q 253 188 211 188 q 320 155 290 188 q 349 79 349 123 q 312 -83 349 -11 q 152 -246 274 -155 z "},"<":{"ha":728,"x_min":102,"x_max":603,"o":"m 603 148 l 102 391 l 102 474 l 603 714 l 603 605 l 216 432 l 603 257 l 603 148 z "},"=":{"ha":728,"x_min":83,"x_max":651,"o":"m 651 594 l 651 498 l 83 498 l 83 594 l 651 594 m 651 363 l 651 268 l 83 268 l 83 363 l 651 363 z "},">":{"ha":728,"x_min":102,"x_max":603,"o":"m 603 391 l 102 148 l 102 257 l 489 432 l 102 605 l 102 714 l 603 474 l 603 391 z "},"?":{"ha":510,"x_min":27,"x_max":468,"o":"m 248 291 l 159 291 q 136 384 136 355 q 154 484 136 433 q 235 605 172 534 q 320 714 298 676 q 342 788 342 752 q 197 907 342 907 q 77 858 128 907 l 27 955 q 231 1011 96 1011 q 400 954 333 1011 q 468 800 468 896 q 451 706 468 751 q 397 623 433 661 l 298 517 q 239 353 239 444 q 248 291 239 338 m 220 191 q 292 161 262 191 q 321 89 321 131 q 292 17 321 47 q 220 -14 262 -14 q 148 17 178 -14 q 118 89 118 47 q 148 161 118 131 q 220 191 178 191 z "},"@":{"ha":1070,"x_min":68,"x_max":1002,"o":"m 798 79 q 889 39 829 67 q 546 -91 759 -91 q 198 43 329 -91 q 68 394 68 176 q 200 757 68 615 q 546 899 332 899 q 877 776 751 899 q 1002 448 1002 653 q 942 253 1002 333 q 781 172 881 172 q 625 220 673 172 q 489 167 568 167 q 372 207 416 167 q 327 313 327 246 q 400 444 327 399 q 598 488 473 488 q 518 588 588 588 q 406 550 447 588 l 373 617 q 509 659 429 659 q 697 442 697 659 l 697 280 q 780 244 746 244 q 906 450 906 244 q 804 711 906 607 q 546 816 703 816 q 269 697 374 816 q 164 394 164 578 q 268 102 164 213 q 546 -8 372 -8 q 798 79 703 -8 m 598 267 l 598 425 l 564 425 q 431 317 431 425 q 457 256 431 280 q 522 233 483 233 q 598 267 564 233 z "},"A":{"ha":819,"x_min":3,"x_max":817,"o":"m 666 0 l 597 210 l 228 210 l 155 0 l 3 0 l 406 1007 l 442 1007 l 817 0 l 666 0 m 418 747 l 264 309 l 559 309 l 418 747 z "},"B":{"ha":786,"x_min":102,"x_max":732,"o":"m 385 0 l 102 0 l 102 994 q 363 1002 283 1002 q 591 939 510 1002 q 671 758 671 876 q 620 631 671 688 q 506 560 568 574 q 678 466 624 532 q 732 287 732 400 q 636 78 732 156 q 385 0 540 0 m 237 885 l 237 600 q 343 595 280 595 q 536 752 536 595 q 359 890 536 890 q 237 885 291 890 m 237 494 l 237 115 q 345 109 307 109 q 531 156 472 109 q 589 309 589 204 q 533 452 589 406 q 347 498 477 498 l 237 494 z "},"C":{"ha":831,"x_min":54,"x_max":777,"o":"m 736 957 l 690 841 q 486 888 625 888 q 276 776 355 888 q 197 486 197 663 q 278 211 197 316 q 487 105 359 105 q 702 204 627 105 l 777 100 q 473 -17 659 -17 q 166 123 278 -17 q 54 494 54 264 q 174 863 54 716 q 482 1010 293 1010 q 736 957 644 1010 z "},"D":{"ha":852,"x_min":102,"x_max":798,"o":"m 302 0 l 102 0 l 102 994 q 347 1000 293 1000 q 676 874 555 1000 q 798 537 798 747 q 302 0 798 0 m 237 871 l 237 129 q 350 122 283 122 q 574 229 492 122 q 655 526 655 336 q 338 878 655 878 q 237 871 319 878 z "},"E":{"ha":744,"x_min":102,"x_max":695,"o":"m 237 871 l 237 595 l 566 595 l 566 480 l 237 480 l 237 122 l 688 122 l 688 0 l 102 0 l 102 994 l 695 994 l 695 871 l 237 871 z "},"F":{"ha":729,"x_min":102,"x_max":715,"o":"m 237 871 l 237 595 l 587 595 l 587 480 l 237 480 l 237 0 l 102 0 l 102 994 l 715 994 l 715 871 l 237 871 z "},"G":{"ha":939,"x_min":54,"x_max":838,"o":"m 790 924 l 734 812 q 533 888 631 888 q 287 779 377 888 q 197 488 197 669 q 285 210 197 315 q 526 105 374 105 q 702 170 635 105 l 702 403 l 564 403 l 564 518 l 838 518 l 838 85 q 686 11 783 39 q 498 -17 589 -17 q 173 122 292 -17 q 54 493 54 262 q 185 867 54 724 q 537 1010 315 1010 q 790 924 692 1010 z "},"H":{"ha":909,"x_min":102,"x_max":807,"o":"m 671 0 l 671 480 l 237 480 l 237 0 l 102 0 l 102 994 l 237 994 l 237 595 l 671 595 l 671 994 l 807 994 l 807 0 l 671 0 z "},"I":{"ha":387,"x_min":125,"x_max":261,"o":"m 125 0 l 125 994 l 261 994 l 261 0 l 125 0 z "},"J":{"ha":662,"x_min":33,"x_max":560,"o":"m 33 199 l 152 199 q 260 109 168 109 q 388 148 351 109 q 425 366 425 186 l 425 994 l 560 994 l 560 371 q 494 77 560 168 q 260 -14 429 -14 q 101 44 163 -14 q 33 199 39 102 z "},"K":{"ha":800,"x_min":102,"x_max":800,"o":"m 650 0 l 370 457 l 237 269 l 237 0 l 102 0 l 102 994 l 237 994 l 237 453 l 606 994 l 758 994 l 460 563 l 800 0 l 650 0 z "},"L":{"ha":703,"x_min":102,"x_max":686,"o":"m 102 0 l 102 994 l 237 994 l 237 122 l 686 122 l 686 0 l 102 0 z "},"M":{"ha":985,"x_min":14,"x_max":979,"o":"m 850 0 l 732 638 l 515 -14 l 481 -14 l 258 638 l 142 0 l 14 0 l 199 994 l 261 994 l 498 269 l 716 994 l 777 994 l 979 0 l 850 0 z "},"N":{"ha":886,"x_min":102,"x_max":785,"o":"m 744 -14 l 231 713 l 231 0 l 102 0 l 102 994 l 156 994 l 656 307 l 656 994 l 785 994 l 785 -14 l 744 -14 z "},"O":{"ha":936,"x_min":54,"x_max":882,"o":"m 54 505 q 162 866 54 721 q 454 1011 271 1011 q 771 878 661 1011 q 882 505 882 744 q 771 122 882 260 q 454 -17 661 -17 q 160 130 267 -17 q 54 505 54 276 m 197 505 q 264 220 197 334 q 454 105 332 105 q 666 210 593 105 q 739 505 739 315 q 454 889 739 889 q 262 786 328 889 q 197 505 197 683 z "},"P":{"ha":774,"x_min":102,"x_max":720,"o":"m 237 382 l 237 0 l 102 0 l 102 994 q 288 1000 256 1000 q 720 711 720 1000 q 338 376 720 376 q 237 382 315 376 m 237 871 l 237 505 q 328 498 323 498 q 581 696 581 498 q 311 878 581 878 q 237 871 284 878 z "},"Q":{"ha":939,"x_min":54,"x_max":1031,"o":"m 1031 -73 l 1010 -205 q 545 -8 655 -205 q 454 -17 524 -17 q 160 130 267 -17 q 54 505 54 276 q 162 866 54 720 q 454 1011 270 1011 q 771 878 661 1011 q 882 505 882 744 q 677 35 882 163 q 925 -73 751 -73 l 1031 -73 m 454 889 q 262 786 328 889 q 197 505 197 683 q 264 220 197 334 q 454 105 332 105 q 667 211 594 105 q 739 505 739 317 q 454 889 739 889 z "},"R":{"ha":808,"x_min":109,"x_max":808,"o":"m 653 0 l 388 427 q 244 433 342 427 l 244 0 l 109 0 l 109 994 q 214 999 116 994 q 357 1004 312 1004 q 715 719 715 1004 q 657 550 715 625 q 520 457 600 475 l 808 0 l 653 0 m 244 871 l 244 549 q 339 542 293 542 q 517 581 461 542 q 572 722 572 621 q 513 842 572 805 q 324 878 453 878 q 244 871 304 878 z "},"S":{"ha":668,"x_min":54,"x_max":613,"o":"m 57 45 l 106 170 q 201 124 144 142 q 302 105 258 105 q 430 149 382 105 q 478 259 478 192 q 451 352 478 309 q 317 446 425 395 l 237 484 q 95 596 135 531 q 54 753 54 661 q 133 937 54 864 q 335 1010 212 1010 q 564 957 500 1010 l 524 839 q 441 877 497 859 q 338 895 386 895 q 230 856 269 895 q 190 755 190 817 q 204 686 190 717 q 244 633 218 654 q 348 574 269 612 l 429 536 q 572 421 531 488 q 613 251 613 354 q 523 61 613 139 q 283 -17 433 -17 q 57 45 151 -17 z "},"T":{"ha":806,"x_min":12,"x_max":794,"o":"m 464 871 l 464 0 l 328 0 l 328 871 l 12 871 l 12 994 l 794 994 l 794 871 l 464 871 z "},"U":{"ha":901,"x_min":102,"x_max":799,"o":"m 102 994 l 237 994 l 237 313 q 295 164 237 222 q 448 105 353 105 q 606 162 548 105 q 663 317 663 219 l 663 994 l 799 994 l 799 302 q 705 67 799 152 q 449 -17 611 -17 q 192 66 282 -17 q 102 303 102 149 l 102 994 z "},"V":{"ha":816,"x_min":9,"x_max":807,"o":"m 448 -14 l 379 -14 l 9 994 l 159 994 l 415 262 l 661 994 l 807 994 l 448 -14 z "},"W":{"ha":1183,"x_min":9,"x_max":1175,"o":"m 865 -14 l 823 -14 l 586 671 l 365 -14 l 322 -14 l 9 994 l 150 994 l 349 300 l 568 994 l 615 994 l 831 301 l 1034 994 l 1175 994 l 865 -14 z "},"X":{"ha":773,"x_min":9,"x_max":764,"o":"m 621 0 l 374 399 l 146 0 l 9 0 l 302 515 l 33 994 l 166 994 l 378 618 l 612 994 l 749 994 l 440 513 l 764 0 l 621 0 z "},"Y":{"ha":792,"x_min":9,"x_max":783,"o":"m 465 445 l 465 0 l 329 0 l 329 445 l 9 994 l 149 994 l 396 559 l 644 994 l 783 994 l 465 445 z "},"Z":{"ha":764,"x_min":68,"x_max":696,"o":"m 68 0 l 68 34 l 495 871 l 75 871 l 75 994 l 682 994 l 682 960 l 253 122 l 696 122 l 696 0 l 68 0 z "},"[":{"ha":510,"x_min":137,"x_max":451,"o":"m 137 -285 l 137 1024 l 451 1024 l 451 909 l 273 909 l 273 -170 l 451 -170 l 451 -285 l 137 -285 z "},"\\":{"ha":494,"x_min":-2,"x_max":444,"o":"m 347 0 l -2 998 l 94 998 l 444 0 l 347 0 z "},"]":{"ha":510,"x_min":59,"x_max":373,"o":"m 373 -285 l 59 -285 l 59 -170 l 237 -170 l 237 909 l 59 909 l 59 1024 l 373 1024 l 373 -285 z "},"^":{"ha":728,"x_min":101,"x_max":604,"o":"m 517 615 l 352 919 l 184 612 l 101 612 l 317 998 l 389 998 l 604 615 l 517 615 z "},"_":{"ha":728,"x_min":-5,"x_max":730,"o":"m -5 -172 l -5 -85 l 730 -85 l 730 -172 l -5 -172 z "},"`":{"ha":728,"x_min":226,"x_max":474,"o":"m 379 871 l 226 1097 l 359 1097 l 474 871 l 379 871 z "},"a":{"ha":730,"x_min":54,"x_max":675,"o":"m 502 83 q 265 -14 425 -14 q 117 48 180 -14 q 54 203 54 111 q 151 390 54 313 q 397 466 248 466 q 490 448 438 466 q 332 625 490 625 q 146 559 212 625 l 92 667 q 194 719 129 697 q 317 740 258 740 q 547 668 475 740 q 618 439 618 596 l 618 179 q 675 52 618 83 l 675 -13 q 558 9 597 -13 q 502 83 519 32 m 490 357 q 404 370 429 370 q 245 320 307 370 q 183 201 183 270 q 317 88 183 88 q 490 181 414 88 l 490 357 z "},"b":{"ha":774,"x_min":92,"x_max":723,"o":"m 201 52 l 156 -14 l 92 -14 l 92 1024 l 220 1024 l 220 673 q 289 719 239 698 q 389 740 340 740 q 630 637 538 740 q 723 376 723 534 q 630 91 723 195 q 378 -14 537 -14 q 277 6 327 -14 q 201 52 227 25 m 220 574 l 220 155 q 269 120 220 144 q 342 95 317 95 q 530 158 473 95 q 587 370 587 221 q 521 562 587 493 q 342 631 454 631 q 276 611 318 631 q 220 574 233 591 z "},"c":{"ha":688,"x_min":44,"x_max":644,"o":"m 640 667 l 576 576 q 506 614 556 596 q 408 631 456 631 q 241 558 303 631 q 180 356 180 484 q 243 162 180 229 q 418 95 306 95 q 593 162 505 95 l 644 54 q 387 -14 540 -14 q 141 86 238 -14 q 44 356 44 186 q 145 635 44 530 q 420 740 245 740 q 543 716 477 740 q 640 667 608 692 z "},"d":{"ha":774,"x_min":51,"x_max":681,"o":"m 552 1 l 552 54 q 357 -13 485 -13 q 136 85 220 -13 q 51 345 51 182 q 149 624 51 509 q 381 740 246 740 q 552 687 494 740 l 552 1024 l 681 1024 l 681 1 l 552 1 m 552 558 q 418 631 503 631 q 251 554 315 631 q 186 357 186 477 q 425 95 186 95 q 498 114 456 95 q 552 155 541 134 l 552 558 z "},"e":{"ha":758,"x_min":44,"x_max":713,"o":"m 703 351 l 180 351 q 250 155 180 223 q 408 95 311 95 q 593 159 519 95 l 647 66 q 555 15 617 37 q 383 -14 478 -14 q 151 79 246 -14 q 44 355 44 182 q 153 643 44 534 q 385 740 251 740 q 628 652 540 740 q 713 429 713 568 q 703 351 713 387 m 391 631 q 246 576 304 631 q 183 444 191 523 l 585 444 q 536 574 585 522 q 391 631 483 631 z "},"f":{"ha":513,"x_min":44,"x_max":520,"o":"m 484 909 q 411 922 445 922 q 314 878 352 922 q 275 764 275 833 q 279 726 275 746 l 427 726 l 427 618 l 279 618 l 279 0 l 150 0 l 150 618 l 44 618 l 44 726 l 150 726 q 218 945 150 865 q 399 1024 287 1024 q 520 1004 456 1024 l 484 909 z "},"g":{"ha":697,"x_min":54,"x_max":656,"o":"m 65 -199 l 135 -96 q 342 -171 248 -171 q 480 -141 430 -171 q 531 -66 531 -111 q 404 22 531 22 q 325 12 382 22 q 236 1 268 1 q 81 117 81 1 q 118 182 81 153 q 208 224 154 212 q 54 474 54 296 q 134 664 54 588 q 330 740 213 740 q 497 696 437 740 l 562 773 l 646 694 l 568 635 q 618 467 618 571 q 549 283 618 357 q 370 197 481 208 l 263 186 q 212 172 244 184 q 180 139 180 159 q 247 111 180 111 q 338 122 276 111 q 429 132 399 132 q 596 81 536 132 q 656 -61 656 30 q 567 -223 656 -161 q 339 -285 477 -285 q 191 -260 269 -285 q 65 -199 113 -235 m 338 636 q 229 589 271 636 q 186 473 186 541 q 228 348 186 397 q 338 298 269 298 q 446 346 407 298 q 484 473 484 395 q 443 589 484 541 q 338 636 401 636 z "},"h":{"ha":759,"x_min":92,"x_max":668,"o":"m 539 0 l 539 456 q 499 585 539 538 q 387 631 459 631 q 293 604 340 631 q 220 540 245 576 l 220 0 l 92 0 l 92 1024 l 220 1024 l 220 646 q 303 713 246 686 q 422 740 361 740 q 603 664 537 740 q 668 456 668 588 l 668 0 l 539 0 z "},"i":{"ha":396,"x_min":54,"x_max":304,"o":"m 224 1001 q 281 978 258 1001 q 304 922 304 954 q 281 865 304 888 q 224 842 258 842 q 169 865 192 842 q 145 922 145 888 q 168 978 145 955 q 224 1001 191 1001 m 154 0 l 154 618 l 54 618 l 54 726 l 283 726 l 283 0 l 154 0 z "},"j":{"ha":509,"x_min":12,"x_max":372,"o":"m 290 1001 q 347 978 323 1001 q 370 922 370 954 q 347 865 370 888 q 290 842 323 842 q 234 865 257 842 q 211 922 211 888 q 234 978 211 955 q 290 1001 257 1001 m 12 -285 l 12 -170 q 194 -129 145 -170 q 243 3 243 -89 l 243 618 l 99 618 l 99 726 l 372 726 l 372 6 q 284 -214 372 -144 q 12 -285 196 -285 z "},"k":{"ha":701,"x_min":92,"x_max":701,"o":"m 561 0 l 333 363 l 220 248 l 220 0 l 92 0 l 92 1024 l 220 1024 l 220 389 l 498 726 l 649 726 l 416 450 l 701 0 l 561 0 z "},"l":{"ha":410,"x_min":102,"x_max":352,"o":"m 102 205 l 102 1024 l 231 1024 l 231 227 q 264 135 231 169 q 352 102 298 102 l 352 -14 q 102 205 102 -14 z "},"m":{"ha":1153,"x_min":92,"x_max":1061,"o":"m 932 0 l 932 460 q 784 631 932 631 q 696 603 737 631 q 641 537 656 574 l 641 0 l 512 0 l 512 516 q 472 601 512 570 q 365 631 431 631 q 282 602 326 631 q 220 536 239 572 l 220 0 l 92 0 l 92 726 l 176 726 l 218 642 q 405 740 293 740 q 623 643 561 740 q 704 712 645 684 q 825 740 763 740 q 1000 673 938 740 q 1061 486 1061 606 l 1061 0 l 932 0 z "},"n":{"ha":759,"x_min":92,"x_max":667,"o":"m 538 0 l 538 422 q 504 585 538 538 q 387 631 469 631 q 294 605 342 631 q 220 540 246 578 l 220 0 l 92 0 l 92 726 l 180 726 l 220 633 q 429 740 284 740 q 667 450 667 740 l 667 0 l 538 0 z "},"o":{"ha":745,"x_min":44,"x_max":701,"o":"m 44 365 q 135 636 44 533 q 373 740 225 740 q 615 641 529 740 q 701 365 701 541 q 613 88 701 189 q 373 -14 525 -14 q 131 89 218 -14 q 44 365 44 191 m 180 365 q 373 92 180 92 q 514 165 463 92 q 566 365 566 238 q 373 635 566 635 q 232 563 285 635 q 180 365 180 491 z "},"p":{"ha":774,"x_min":92,"x_max":724,"o":"m 220 40 l 220 -285 l 92 -285 l 92 726 l 220 726 l 220 667 q 397 740 294 740 q 638 644 552 740 q 724 361 724 547 q 637 91 724 196 q 387 -14 551 -14 q 288 3 340 -14 q 220 40 235 19 m 220 570 l 220 146 q 272 112 233 128 q 349 95 311 95 q 589 366 589 95 q 532 568 589 504 q 349 631 475 631 q 283 612 322 631 q 220 570 243 593 z "},"q":{"ha":774,"x_min":51,"x_max":686,"o":"m 557 -285 l 557 43 q 368 -14 500 -14 q 135 86 220 -14 q 51 361 51 185 q 148 638 51 536 q 396 740 244 740 q 573 671 491 740 l 608 726 l 686 726 l 686 -285 l 557 -285 m 557 576 q 418 631 501 631 q 248 557 309 631 q 186 361 186 484 q 248 165 186 235 q 412 95 309 95 q 557 142 505 95 l 557 576 z "},"r":{"ha":540,"x_min":102,"x_max":540,"o":"m 486 602 q 401 631 444 631 q 282 568 333 631 q 231 416 231 505 l 231 0 l 102 0 l 102 726 l 231 726 l 231 610 q 440 740 301 740 q 540 728 475 740 l 486 602 z "},"s":{"ha":562,"x_min":44,"x_max":518,"o":"m 44 43 l 90 165 q 263 95 197 95 q 382 195 382 95 q 267 319 382 267 q 148 380 178 359 q 94 428 117 401 q 60 485 71 455 q 49 550 49 515 q 114 690 49 640 q 284 740 179 740 q 484 690 363 740 l 448 570 q 294 631 371 631 q 216 610 248 631 q 184 555 184 588 q 264 449 184 485 l 356 407 q 479 319 441 368 q 518 195 518 269 q 450 42 518 97 q 260 -14 381 -14 q 44 43 145 -14 z "},"t":{"ha":551,"x_min":54,"x_max":518,"o":"m 138 625 l 54 625 l 54 726 l 138 726 l 138 878 l 267 928 l 267 726 l 466 726 l 466 625 l 267 625 l 267 264 q 297 134 267 172 q 397 95 328 95 q 499 120 446 95 l 518 7 q 342 -14 438 -14 q 197 51 256 -14 q 138 212 138 115 l 138 625 z "},"u":{"ha":759,"x_min":85,"x_max":675,"o":"m 214 726 l 214 263 q 359 95 214 95 q 476 132 423 95 q 546 216 529 168 l 546 726 l 675 726 l 675 0 l 546 0 l 546 100 q 459 22 524 58 q 331 -14 393 -14 q 148 55 212 -14 q 85 250 85 123 l 85 726 l 214 726 z "},"v":{"ha":680,"x_min":8,"x_max":672,"o":"m 353 -14 l 319 -14 l 8 728 l 149 728 l 341 220 l 537 728 l 672 728 l 353 -14 z "},"w":{"ha":1034,"x_min":10,"x_max":1023,"o":"m 763 -14 l 729 -14 l 516 481 l 304 -14 l 270 -14 l 10 728 l 148 728 l 303 252 l 496 728 l 530 728 l 730 252 l 897 728 l 1023 728 l 763 -14 z "},"x":{"ha":696,"x_min":8,"x_max":688,"o":"m 534 0 l 336 264 l 159 0 l 8 0 l 272 372 l 30 726 l 175 726 l 338 477 l 520 726 l 663 726 l 399 372 l 688 0 l 534 0 z "},"y":{"ha":685,"x_min":8,"x_max":677,"o":"m 369 -123 q 263 -239 344 -193 q 84 -285 183 -285 l 84 -170 q 222 -132 165 -170 q 280 -40 280 -94 q 259 78 280 20 q 205 221 238 136 l 8 726 l 140 726 l 353 165 l 545 726 l 677 726 l 369 -123 z "},"z":{"ha":659,"x_min":27,"x_max":632,"o":"m 229 115 l 632 115 l 632 0 l 27 0 l 27 34 l 440 611 l 34 611 l 34 726 l 628 726 l 628 690 l 229 115 z "},"{":{"ha":510,"x_min":26,"x_max":479,"o":"m 385 -285 q 193 -229 269 -285 q 117 -83 117 -174 q 142 62 117 -35 q 168 211 168 160 q 26 355 168 345 l 26 412 q 130 459 93 417 q 168 567 168 500 q 142 698 168 613 q 117 825 117 783 q 193 965 117 911 q 379 1019 269 1019 l 479 1019 l 479 928 l 361 928 q 250 804 250 928 q 271 690 250 760 q 292 580 292 621 q 140 385 292 473 q 252 309 211 355 q 292 215 292 262 q 271 93 292 171 q 250 -35 250 15 q 428 -190 250 -190 l 479 -190 l 479 -285 l 385 -285 z "},"|":{"ha":728,"x_min":313,"x_max":412,"o":"m 313 -187 l 313 953 l 412 953 l 412 -187 l 313 -187 z "},"}":{"ha":510,"x_min":26,"x_max":479,"o":"m 26 -285 l 26 -190 l 77 -190 q 256 -35 256 -190 q 234 93 256 15 q 213 215 213 171 q 254 309 213 262 q 366 385 294 355 q 213 580 213 473 q 234 690 213 621 q 256 804 256 760 q 144 928 256 928 l 26 928 l 26 1019 l 126 1019 q 312 965 237 1019 q 388 825 388 911 q 363 698 388 783 q 338 567 338 613 q 375 459 338 500 q 479 412 412 417 l 479 355 q 338 211 338 345 q 363 64 338 161 q 388 -83 388 -33 q 312 -229 388 -174 q 120 -285 236 -285 l 26 -285 z "},"~":{"ha":728,"x_min":107,"x_max":613,"o":"m 613 486 q 483 345 577 345 q 345 371 429 345 q 242 397 261 397 q 169 345 194 397 l 107 345 q 151 444 117 402 q 232 486 185 486 q 369 459 291 486 q 480 433 448 433 q 553 486 535 433 l 613 486 z "},"Ä":{"ha":819,"x_min":3,"x_max":817,"o":"m 666 0 l 597 210 l 228 210 l 155 0 l 3 0 l 406 1007 l 442 1007 l 817 0 l 666 0 m 418 747 l 264 309 l 559 309 l 418 747 m 262 1230 q 316 1207 294 1230 q 338 1154 338 1185 q 316 1099 338 1122 q 262 1077 294 1077 q 208 1099 230 1077 q 185 1154 185 1122 q 208 1207 185 1185 q 262 1230 230 1230 m 582 1230 q 636 1207 614 1230 q 659 1154 659 1185 q 636 1099 659 1122 q 582 1077 614 1077 q 528 1099 550 1077 q 506 1154 506 1122 q 528 1207 506 1185 q 582 1230 550 1230 z "},"Å":{"ha":819,"x_min":3,"x_max":817,"o":"m 463 951 l 817 0 l 666 0 l 597 210 l 225 210 l 155 0 l 3 0 l 384 952 q 310 1003 339 966 q 281 1088 281 1041 q 323 1189 281 1147 q 425 1230 366 1230 q 527 1189 485 1230 q 568 1088 568 1147 q 539 1001 568 1040 q 463 951 509 963 m 425 1021 q 474 1041 454 1021 q 494 1088 494 1061 q 474 1136 494 1116 q 425 1156 454 1156 q 376 1136 397 1156 q 356 1088 356 1116 q 376 1041 356 1061 q 425 1021 397 1021 m 418 747 l 264 309 l 559 309 l 418 747 z "},"Ç":{"ha":831,"x_min":54,"x_max":777,"o":"m 736 957 l 690 841 q 486 888 625 888 q 276 776 355 888 q 197 486 197 663 q 278 211 197 316 q 487 105 359 105 q 702 204 627 105 l 777 100 q 473 -17 659 -17 q 166 123 278 -17 q 54 494 54 264 q 174 863 54 716 q 482 1010 293 1010 q 736 957 644 1010 m 317 -309 l 300 -241 q 389 -223 353 -241 q 424 -172 424 -205 q 363 -122 424 -122 l 363 -41 q 467 -79 430 -41 q 505 -172 505 -117 q 455 -272 505 -236 q 317 -309 406 -309 z "},"É":{"ha":744,"x_min":102,"x_max":695,"o":"m 237 871 l 237 595 l 566 595 l 566 480 l 237 480 l 237 122 l 688 122 l 688 0 l 102 0 l 102 994 l 695 994 l 695 871 l 237 871 m 544 1301 l 391 1075 l 296 1075 l 410 1301 l 544 1301 z "},"Ñ":{"ha":886,"x_min":102,"x_max":785,"o":"m 744 -14 l 231 713 l 231 0 l 102 0 l 102 994 l 156 994 l 656 307 l 656 994 l 785 994 l 785 -14 l 744 -14 m 631 1215 q 500 1075 595 1075 q 407 1101 458 1075 q 334 1127 355 1127 q 261 1075 286 1127 l 199 1075 q 243 1174 209 1132 q 324 1215 277 1215 q 427 1189 380 1215 q 498 1163 474 1163 q 571 1215 553 1163 l 631 1215 z "},"Ö":{"ha":936,"x_min":54,"x_max":882,"o":"m 54 505 q 162 866 54 721 q 454 1011 271 1011 q 771 878 661 1011 q 882 505 882 744 q 771 122 882 260 q 454 -17 661 -17 q 160 130 267 -17 q 54 505 54 276 m 197 505 q 264 220 197 334 q 454 105 332 105 q 666 210 593 105 q 739 505 739 315 q 454 889 739 889 q 262 786 328 889 q 197 505 197 683 m 305 1230 q 359 1207 337 1230 q 381 1154 381 1185 q 359 1099 381 1122 q 305 1077 337 1077 q 251 1099 273 1077 q 229 1154 229 1122 q 251 1207 229 1185 q 305 1230 273 1230 m 625 1230 q 680 1207 657 1230 q 702 1154 702 1185 q 680 1099 702 1122 q 625 1077 657 1077 q 571 1099 593 1077 q 549 1154 549 1122 q 571 1207 549 1185 q 625 1230 593 1230 z "},"Ü":{"ha":901,"x_min":102,"x_max":799,"o":"m 102 994 l 237 994 l 237 313 q 295 164 237 222 q 448 105 353 105 q 606 162 548 105 q 663 317 663 219 l 663 994 l 799 994 l 799 302 q 705 67 799 152 q 449 -17 611 -17 q 192 66 282 -17 q 102 303 102 149 l 102 994 m 273 1230 q 327 1207 304 1230 q 349 1154 349 1185 q 327 1099 349 1122 q 273 1077 304 1077 q 218 1099 241 1077 q 196 1154 196 1122 q 218 1207 196 1185 q 273 1230 241 1230 m 593 1230 q 647 1207 625 1230 q 669 1154 669 1185 q 647 1099 669 1122 q 593 1077 625 1077 q 539 1099 561 1077 q 517 1154 517 1122 q 539 1207 517 1185 q 593 1230 561 1230 z "},"á":{"ha":730,"x_min":54,"x_max":675,"o":"m 502 83 q 265 -14 425 -14 q 117 48 180 -14 q 54 203 54 111 q 151 390 54 313 q 397 466 248 466 q 490 448 438 466 q 332 625 490 625 q 146 559 212 625 l 92 667 q 194 719 129 697 q 317 740 258 740 q 547 668 475 740 q 618 439 618 596 l 618 179 q 675 52 618 83 l 675 -13 q 558 9 597 -13 q 502 83 519 32 m 490 357 q 404 370 429 370 q 245 320 307 370 q 183 201 183 270 q 317 88 183 88 q 490 181 414 88 l 490 357 m 519 1097 l 366 871 l 271 871 l 385 1097 l 519 1097 z "},"à":{"ha":730,"x_min":54,"x_max":675,"o":"m 502 83 q 265 -14 425 -14 q 117 48 180 -14 q 54 203 54 111 q 151 390 54 313 q 397 466 248 466 q 490 448 438 466 q 332 625 490 625 q 146 559 212 625 l 92 667 q 194 719 129 697 q 317 740 258 740 q 547 668 475 740 q 618 439 618 596 l 618 179 q 675 52 618 83 l 675 -13 q 558 9 597 -13 q 502 83 519 32 m 490 357 q 404 370 429 370 q 245 320 307 370 q 183 201 183 270 q 317 88 183 88 q 490 181 414 88 l 490 357 m 342 871 l 189 1097 l 323 1097 l 437 871 l 342 871 z "},"â":{"ha":730,"x_min":54,"x_max":675,"o":"m 502 83 q 265 -14 425 -14 q 117 48 180 -14 q 54 203 54 111 q 151 390 54 313 q 397 466 248 466 q 490 448 438 466 q 332 625 490 625 q 146 559 212 625 l 92 667 q 194 719 129 697 q 317 740 258 740 q 547 668 475 740 q 618 439 618 596 l 618 179 q 675 52 618 83 l 675 -13 q 558 9 597 -13 q 502 83 519 32 m 490 357 q 404 370 429 370 q 245 320 307 370 q 183 201 183 270 q 317 88 183 88 q 490 181 414 88 l 490 357 m 461 871 l 351 1000 l 230 871 l 113 871 l 315 1101 l 388 1101 l 595 871 l 461 871 z "},"ä":{"ha":730,"x_min":54,"x_max":675,"o":"m 502 83 q 265 -14 425 -14 q 117 48 180 -14 q 54 203 54 111 q 151 390 54 313 q 397 466 248 466 q 490 448 438 466 q 332 625 490 625 q 146 559 212 625 l 92 667 q 194 719 129 697 q 317 740 258 740 q 547 668 475 740 q 618 439 618 596 l 618 179 q 675 52 618 83 l 675 -13 q 558 9 597 -13 q 502 83 519 32 m 490 357 q 404 370 429 370 q 245 320 307 370 q 183 201 183 270 q 317 88 183 88 q 490 181 414 88 l 490 357 m 187 1026 q 241 1004 219 1026 q 263 950 263 982 q 241 896 263 918 q 187 873 219 873 q 133 896 155 873 q 111 950 111 918 q 133 1004 111 982 q 187 1026 155 1026 m 507 1026 q 562 1004 539 1026 q 584 950 584 982 q 562 896 584 918 q 507 873 539 873 q 453 896 475 873 q 431 950 431 918 q 453 1004 431 982 q 507 1026 475 1026 z "},"ã":{"ha":730,"x_min":54,"x_max":675,"o":"m 502 83 q 265 -14 425 -14 q 117 48 180 -14 q 54 203 54 111 q 151 390 54 313 q 397 466 248 466 q 490 448 438 466 q 332 625 490 625 q 146 559 212 625 l 92 667 q 194 719 129 697 q 317 740 258 740 q 547 668 475 740 q 618 439 618 596 l 618 179 q 675 52 618 83 l 675 -13 q 558 9 597 -13 q 502 83 519 32 m 490 357 q 404 370 429 370 q 245 320 307 370 q 183 201 183 270 q 317 88 183 88 q 490 181 414 88 l 490 357 m 565 1012 q 435 871 529 871 q 341 898 392 871 q 269 924 290 924 q 195 871 220 924 l 134 871 q 177 970 143 928 q 258 1012 212 1012 q 361 986 314 1012 q 432 960 408 960 q 505 1012 487 960 l 565 1012 z "},"å":{"ha":730,"x_min":54,"x_max":675,"o":"m 502 83 q 265 -14 425 -14 q 117 48 180 -14 q 54 203 54 111 q 151 390 54 313 q 397 466 248 466 q 490 448 438 466 q 332 625 490 625 q 146 559 212 625 l 92 667 q 194 719 129 697 q 317 740 258 740 q 547 668 475 740 q 618 439 618 596 l 618 179 q 675 52 618 83 l 675 -13 q 558 9 597 -13 q 502 83 519 32 m 490 357 q 404 370 429 370 q 245 320 307 370 q 183 201 183 270 q 317 88 183 88 q 490 181 414 88 l 490 357 m 349 1156 q 450 1114 408 1156 q 492 1014 492 1073 q 450 913 492 955 q 349 871 408 871 q 247 913 289 871 q 205 1014 205 955 q 247 1114 205 1073 q 349 1156 289 1156 m 349 946 q 397 966 377 946 q 417 1014 417 986 q 397 1061 417 1042 q 349 1081 377 1081 q 300 1061 320 1081 q 279 1014 279 1042 q 300 966 279 986 q 349 946 320 946 z "},"ç":{"ha":688,"x_min":44,"x_max":644,"o":"m 640 667 l 576 576 q 506 614 556 596 q 408 631 456 631 q 241 558 303 631 q 180 356 180 484 q 243 162 180 229 q 418 95 306 95 q 593 162 505 95 l 644 54 q 387 -14 540 -14 q 141 86 238 -14 q 44 356 44 186 q 145 635 44 530 q 420 740 245 740 q 543 716 477 740 q 640 667 608 692 m 276 -309 l 260 -241 q 348 -223 313 -241 q 383 -172 383 -205 q 322 -122 383 -122 l 322 -41 q 427 -79 389 -41 q 464 -172 464 -117 q 414 -272 464 -236 q 276 -309 365 -309 z "},"é":{"ha":758,"x_min":44,"x_max":713,"o":"m 703 351 l 180 351 q 250 155 180 223 q 408 95 311 95 q 593 159 519 95 l 647 66 q 555 15 617 37 q 383 -14 478 -14 q 151 79 246 -14 q 44 355 44 182 q 153 643 44 534 q 385 740 251 740 q 628 652 540 740 q 713 429 713 568 q 703 351 713 387 m 391 631 q 246 576 304 631 q 183 444 191 523 l 585 444 q 536 574 585 522 q 391 631 483 631 m 559 1097 l 406 871 l 311 871 l 425 1097 l 559 1097 z "},"è":{"ha":758,"x_min":44,"x_max":713,"o":"m 703 351 l 180 351 q 250 155 180 223 q 408 95 311 95 q 593 159 519 95 l 647 66 q 555 15 617 37 q 383 -14 478 -14 q 151 79 246 -14 q 44 355 44 182 q 153 643 44 534 q 385 740 251 740 q 628 652 540 740 q 713 429 713 568 q 703 351 713 387 m 391 631 q 246 576 304 631 q 183 444 191 523 l 585 444 q 536 574 585 522 q 391 631 483 631 m 398 871 l 245 1097 l 378 1097 l 493 871 l 398 871 z "},"ê":{"ha":758,"x_min":44,"x_max":713,"o":"m 703 351 l 180 351 q 250 155 180 223 q 408 95 311 95 q 593 159 519 95 l 647 66 q 555 15 617 37 q 383 -14 478 -14 q 151 79 246 -14 q 44 355 44 182 q 153 643 44 534 q 385 740 251 740 q 628 652 540 740 q 713 429 713 568 q 703 351 713 387 m 391 631 q 246 576 304 631 q 183 444 191 523 l 585 444 q 536 574 585 522 q 391 631 483 631 m 494 871 l 384 1000 l 263 871 l 146 871 l 349 1101 l 421 1101 l 628 871 l 494 871 z "},"ë":{"ha":758,"x_min":44,"x_max":713,"o":"m 703 351 l 180 351 q 250 155 180 223 q 408 95 311 95 q 593 159 519 95 l 647 66 q 555 15 617 37 q 383 -14 478 -14 q 151 79 246 -14 q 44 355 44 182 q 153 643 44 534 q 385 740 251 740 q 628 652 540 740 q 713 429 713 568 q 703 351 713 387 m 391 631 q 246 576 304 631 q 183 444 191 523 l 585 444 q 536 574 585 522 q 391 631 483 631 m 222 1026 q 276 1004 254 1026 q 298 950 298 982 q 276 896 298 918 q 222 873 254 873 q 168 896 190 873 q 145 950 145 918 q 168 1004 145 982 q 222 1026 190 1026 m 542 1026 q 596 1004 574 1026 q 618 950 618 982 q 596 896 618 918 q 542 873 574 873 q 488 896 510 873 q 466 950 466 918 q 488 1004 466 982 q 542 1026 510 1026 z "},"í":{"ha":396,"x_min":54,"x_max":366,"o":"m 154 0 l 154 618 l 54 618 l 54 726 l 285 726 l 285 0 l 154 0 m 366 1097 l 213 871 l 118 871 l 233 1097 l 366 1097 z "},"ì":{"ha":396,"x_min":42,"x_max":290,"o":"m 154 0 l 154 618 l 54 618 l 54 726 l 285 726 l 285 0 l 154 0 m 195 871 l 42 1097 l 176 1097 l 290 871 l 195 871 z "},"î":{"ha":396,"x_min":-47,"x_max":434,"o":"m 154 0 l 154 618 l 54 618 l 54 726 l 285 726 l 285 0 l 154 0 m 300 871 l 190 1000 l 69 871 l -47 871 l 155 1101 l 227 1101 l 434 871 l 300 871 z "},"ï":{"ha":396,"x_min":-41,"x_max":433,"o":"m 154 0 l 154 618 l 54 618 l 54 726 l 285 726 l 285 0 l 154 0 m 36 1026 q 90 1004 68 1026 q 112 950 112 982 q 90 896 112 918 q 36 873 68 873 q -18 896 4 873 q -41 950 -41 918 q -18 1004 -41 982 q 36 1026 4 1026 m 356 1026 q 410 1004 388 1026 q 433 950 433 982 q 410 896 433 918 q 356 873 388 873 q 302 896 324 873 q 280 950 280 918 q 302 1004 280 982 q 356 1026 324 1026 z "},"ñ":{"ha":759,"x_min":92,"x_max":667,"o":"m 538 0 l 538 422 q 504 585 538 538 q 387 631 469 631 q 294 605 342 631 q 220 540 246 578 l 220 0 l 92 0 l 92 726 l 180 726 l 220 633 q 429 740 284 740 q 667 450 667 740 l 667 0 l 538 0 m 576 1012 q 446 871 541 871 q 352 898 404 871 q 280 924 301 924 q 207 871 232 924 l 145 871 q 189 970 155 928 q 270 1012 223 1012 q 373 986 326 1012 q 444 960 420 960 q 517 1012 498 960 l 576 1012 z "},"ó":{"ha":745,"x_min":44,"x_max":701,"o":"m 44 365 q 135 636 44 533 q 373 740 225 740 q 615 641 529 740 q 701 365 701 541 q 613 88 701 189 q 373 -14 525 -14 q 131 89 218 -14 q 44 365 44 191 m 180 365 q 373 92 180 92 q 514 165 463 92 q 566 365 566 238 q 373 635 566 635 q 232 563 285 635 q 180 365 180 491 m 525 1097 l 372 871 l 277 871 l 391 1097 l 525 1097 z "},"ò":{"ha":745,"x_min":44,"x_max":701,"o":"m 44 365 q 135 636 44 533 q 373 740 225 740 q 615 641 529 740 q 701 365 701 541 q 613 88 701 189 q 373 -14 525 -14 q 131 89 218 -14 q 44 365 44 191 m 180 365 q 373 92 180 92 q 514 165 463 92 q 566 365 566 238 q 373 635 566 635 q 232 563 285 635 q 180 365 180 491 m 383 871 l 230 1097 l 363 1097 l 478 871 l 383 871 z "},"ô":{"ha":745,"x_min":44,"x_max":701,"o":"m 44 365 q 135 636 44 533 q 373 740 225 740 q 615 641 529 740 q 701 365 701 541 q 613 88 701 189 q 373 -14 525 -14 q 131 89 218 -14 q 44 365 44 191 m 180 365 q 373 92 180 92 q 514 165 463 92 q 566 365 566 238 q 373 635 566 635 q 232 563 285 635 q 180 365 180 491 m 481 871 l 370 1000 l 250 871 l 133 871 l 335 1101 l 408 1101 l 614 871 l 481 871 z "},"ö":{"ha":745,"x_min":44,"x_max":701,"o":"m 44 365 q 135 636 44 533 q 373 740 225 740 q 615 641 529 740 q 701 365 701 541 q 613 88 701 189 q 373 -14 525 -14 q 131 89 218 -14 q 44 365 44 191 m 180 365 q 373 92 180 92 q 514 165 463 92 q 566 365 566 238 q 373 635 566 635 q 232 563 285 635 q 180 365 180 491 m 222 1026 q 276 1004 254 1026 q 298 950 298 982 q 276 896 298 918 q 222 873 254 873 q 168 896 191 873 q 146 950 146 918 q 168 1004 146 982 q 222 1026 191 1026 m 543 1026 q 597 1004 574 1026 q 619 950 619 982 q 597 896 619 918 q 543 873 574 873 q 489 896 511 873 q 467 950 467 918 q 489 1004 467 982 q 543 1026 511 1026 z "},"õ":{"ha":745,"x_min":44,"x_max":701,"o":"m 44 365 q 135 636 44 533 q 373 740 225 740 q 615 641 529 740 q 701 365 701 541 q 613 88 701 189 q 373 -14 525 -14 q 131 89 218 -14 q 44 365 44 191 m 180 365 q 373 92 180 92 q 514 165 463 92 q 566 365 566 238 q 373 635 566 635 q 232 563 285 635 q 180 365 180 491 m 597 1012 q 467 871 561 871 q 373 898 424 871 q 300 924 321 924 q 227 871 252 924 l 165 871 q 209 970 175 928 q 290 1012 243 1012 q 393 986 346 1012 q 464 960 440 960 q 537 1012 519 960 l 597 1012 z "},"ú":{"ha":759,"x_min":85,"x_max":675,"o":"m 214 726 l 214 263 q 359 95 214 95 q 476 132 423 95 q 546 216 529 168 l 546 726 l 675 726 l 675 0 l 546 0 l 546 100 q 459 22 524 58 q 331 -14 393 -14 q 148 55 212 -14 q 85 250 85 123 l 85 726 l 214 726 m 502 1097 l 349 871 l 254 871 l 368 1097 l 502 1097 z "},"ù":{"ha":759,"x_min":85,"x_max":675,"o":"m 214 726 l 214 263 q 359 95 214 95 q 476 132 423 95 q 546 216 529 168 l 546 726 l 675 726 l 675 0 l 546 0 l 546 100 q 459 22 524 58 q 331 -14 393 -14 q 148 55 212 -14 q 85 250 85 123 l 85 726 l 214 726 m 371 871 l 218 1097 l 351 1097 l 466 871 l 371 871 z "},"û":{"ha":759,"x_min":85,"x_max":675,"o":"m 214 726 l 214 263 q 359 95 214 95 q 476 132 423 95 q 546 216 529 168 l 546 726 l 675 726 l 675 0 l 546 0 l 546 100 q 459 22 524 58 q 331 -14 393 -14 q 148 55 212 -14 q 85 250 85 123 l 85 726 l 214 726 m 460 871 l 350 1000 l 229 871 l 113 871 l 315 1101 l 387 1101 l 594 871 l 460 871 z "},"ü":{"ha":759,"x_min":85,"x_max":675,"o":"m 214 726 l 214 263 q 359 95 214 95 q 476 132 423 95 q 546 216 529 168 l 546 726 l 675 726 l 675 0 l 546 0 l 546 100 q 459 22 524 58 q 331 -14 393 -14 q 148 55 212 -14 q 85 250 85 123 l 85 726 l 214 726 m 199 1026 q 253 1004 231 1026 q 275 950 275 982 q 253 896 275 918 q 199 873 231 873 q 145 896 168 873 q 123 950 123 918 q 145 1004 123 982 q 199 1026 168 1026 m 519 1026 q 574 1004 551 1026 q 596 950 596 982 q 574 896 596 918 q 519 873 551 873 q 466 896 488 873 q 444 950 444 918 q 466 1004 444 982 q 519 1026 488 1026 z "},"†":{"ha":637,"x_min":17,"x_max":621,"o":"m 268 631 l 17 631 l 17 726 l 268 726 l 268 939 l 370 939 l 370 726 l 621 726 l 621 631 l 370 631 l 370 -170 l 319 -229 l 268 -170 l 268 631 z "},"°":{"ha":728,"x_min":201,"x_max":488,"o":"m 345 727 q 243 769 285 727 q 201 869 201 810 q 243 970 201 928 q 345 1011 285 1011 q 446 970 404 1011 q 488 869 488 928 q 446 769 488 810 q 345 727 404 727 m 345 964 q 278 936 306 964 q 250 869 250 908 q 278 803 250 831 q 345 775 306 775 q 411 803 383 775 q 439 869 439 831 q 411 936 439 908 q 345 964 383 964 z "},"¢":{"ha":728,"x_min":131,"x_max":610,"o":"m 471 825 l 540 825 l 492 657 q 607 606 566 640 l 554 530 q 466 568 528 555 l 351 168 q 430 154 387 154 q 570 208 499 154 l 610 115 q 405 62 528 62 q 324 72 363 62 l 274 -103 l 196 -103 l 256 100 q 131 357 131 175 q 209 578 131 494 q 423 665 287 662 l 471 825 m 288 210 l 395 570 q 283 500 327 559 q 239 357 239 441 q 288 210 239 262 z "},"£":{"ha":728,"x_min":90,"x_max":692,"o":"m 95 581 l 151 581 l 151 681 q 227 925 151 839 q 427 1011 302 1011 q 625 929 566 1011 l 562 839 q 411 897 518 897 q 286 686 286 897 l 286 581 l 421 581 l 421 479 l 286 479 l 286 122 l 437 122 q 596 199 541 122 l 692 123 q 391 0 623 0 l 90 0 l 90 94 q 151 182 151 115 l 151 479 l 95 479 l 95 581 z "},"§":{"ha":630,"x_min":58,"x_max":576,"o":"m 138 635 q 58 800 58 682 q 138 952 58 893 q 323 1010 218 1010 q 427 990 367 1010 q 519 943 487 970 l 477 819 q 327 888 404 888 q 200 802 200 888 q 221 746 200 772 q 348 693 241 720 q 501 619 454 667 q 548 492 548 571 q 493 368 548 425 q 576 218 576 313 q 503 45 576 105 q 305 -16 430 -16 q 68 47 155 -16 l 115 173 q 298 105 189 105 q 434 205 434 105 q 279 328 434 296 q 130 398 186 347 q 73 502 73 449 q 138 635 73 594 m 241 597 q 197 534 197 569 q 217 488 197 513 q 275 449 237 463 q 404 415 312 435 q 416 479 416 439 q 400 532 416 510 q 354 567 384 554 q 307 583 325 581 q 241 597 290 585 z "},"•":{"ha":728,"x_min":172,"x_max":564,"o":"m 368 585 q 506 528 449 585 q 564 389 564 471 q 506 251 564 308 q 368 193 449 193 q 229 251 286 193 q 172 389 172 308 q 229 528 172 471 q 368 585 286 585 z "},"¶":{"ha":728,"x_min":80,"x_max":632,"o":"m 528 -170 l 528 926 l 420 926 l 420 -170 l 316 -170 l 316 436 q 80 730 80 436 q 135 930 80 850 q 288 1010 190 1010 l 632 1010 l 632 -170 l 528 -170 z "},"ß":{"ha":759,"x_min":92,"x_max":705,"o":"m 354 2 l 378 104 l 416 98 q 457 102 429 96 q 506 123 485 108 q 541 162 527 138 q 562 219 555 186 q 569 294 569 252 q 549 392 569 350 q 510 450 529 434 q 407 535 491 466 q 350 634 350 581 q 384 678 350 649 q 436 733 418 707 q 454 799 454 760 q 339 909 454 909 q 247 858 274 909 q 220 689 220 807 l 220 0 l 92 0 l 92 756 q 154 952 92 881 q 321 1024 216 1024 q 507 973 441 1024 q 572 836 572 922 q 508 675 572 749 q 486 641 486 649 q 494 619 486 627 q 548 589 503 612 q 705 302 705 507 q 639 70 705 154 q 450 -14 573 -14 q 354 2 398 -14 z "},"®":{"ha":990,"x_min":71,"x_max":986,"o":"m 71 448 q 205 771 71 637 q 529 905 340 905 q 852 771 718 905 q 986 448 986 637 q 852 125 986 259 q 529 -9 718 -9 q 205 125 340 -9 q 71 448 71 259 m 911 448 q 800 719 911 607 q 529 831 688 831 q 258 719 370 831 q 146 448 146 607 q 258 177 146 290 q 529 65 370 65 q 800 177 688 65 q 911 448 911 290 m 671 172 l 528 414 l 447 414 l 447 172 l 366 172 l 366 736 l 511 736 q 714 580 714 736 q 605 427 714 471 l 759 172 l 671 172 m 447 667 l 447 479 q 500 478 457 478 q 606 498 578 478 q 633 574 633 518 q 511 667 633 667 l 479 667 l 447 667 z "},"©":{"ha":990,"x_min":71,"x_max":986,"o":"m 71 448 q 205 771 71 637 q 529 905 340 905 q 852 771 718 905 q 986 448 986 637 q 852 125 986 259 q 529 -9 718 -9 q 205 125 340 -9 q 71 448 71 259 m 911 448 q 800 719 911 607 q 529 831 688 831 q 258 719 370 831 q 146 448 146 607 q 258 177 146 290 q 529 65 370 65 q 800 177 688 65 q 911 448 911 290 m 704 227 q 532 160 636 160 q 358 239 422 160 q 294 450 294 318 q 362 660 294 576 q 537 743 430 743 q 681 713 630 743 l 655 647 q 538 673 618 673 q 419 610 464 673 q 375 446 375 546 q 421 290 375 349 q 540 230 467 230 q 661 286 619 230 l 704 227 z "},"™":{"ha":882,"x_min":130,"x_max":915,"o":"m 338 937 l 338 500 l 271 500 l 271 937 l 130 937 l 130 998 l 487 998 l 487 937 l 338 937 m 850 501 l 794 839 l 694 498 l 654 498 l 549 844 l 497 501 l 433 501 l 509 998 l 559 998 l 674 613 l 787 998 l 838 998 l 915 501 l 850 501 z "},"´":{"ha":728,"x_min":256,"x_max":505,"o":"m 505 1097 l 351 871 l 256 871 l 371 1097 l 505 1097 z "},"¨":{"ha":728,"x_min":128,"x_max":602,"o":"m 205 1026 q 259 1004 237 1026 q 281 950 281 982 q 259 896 281 918 q 205 873 237 873 q 151 896 173 873 q 128 950 128 918 q 151 1004 128 982 q 205 1026 173 1026 m 525 1026 q 579 1004 557 1026 q 602 950 602 982 q 579 896 602 918 q 525 873 557 873 q 471 896 493 873 q 449 950 449 918 q 471 1004 449 982 q 525 1026 493 1026 z "},"≠":{"ha":728,"x_min":83,"x_max":652,"o":"m 557 713 l 652 713 l 555 594 l 651 594 l 651 498 l 477 498 l 367 363 l 651 363 l 651 268 l 289 268 l 177 131 l 83 131 l 195 268 l 83 268 l 83 363 l 273 363 l 383 498 l 83 498 l 83 594 l 460 594 l 557 713 z "},"Æ":{"ha":1204,"x_min":12,"x_max":1155,"o":"m 562 208 l 258 208 l 163 0 l 12 0 l 490 994 l 1155 994 l 1155 871 l 697 871 l 697 595 l 1025 595 l 1025 480 l 697 480 l 697 122 l 1147 122 l 1147 0 l 562 0 l 562 208 m 562 871 l 301 309 l 562 309 l 562 871 z "},"Ø":{"ha":912,"x_min":45,"x_max":873,"o":"m 237 45 l 192 -17 l 45 -17 l 154 126 q 45 505 45 271 q 154 866 45 721 q 446 1011 262 1011 q 690 943 591 1011 l 736 1011 l 873 1011 l 775 862 q 873 505 873 730 q 762 122 873 260 q 446 -17 652 -17 q 237 45 326 -17 m 619 833 q 446 889 552 889 q 254 786 319 889 q 188 505 188 683 q 240 249 188 358 l 619 833 m 691 734 l 310 154 q 446 105 367 105 q 658 211 585 105 q 730 505 730 317 q 691 734 730 644 z "},"∞":{"ha":728,"x_min":35,"x_max":694,"o":"m 364 404 q 203 307 287 307 q 80 345 125 307 q 35 455 35 384 q 81 560 35 519 q 194 601 126 601 q 363 513 292 601 q 536 601 435 601 q 649 560 604 601 q 694 455 694 519 q 650 346 694 385 q 528 307 605 307 q 364 404 441 307 m 406 457 q 534 376 463 376 q 623 455 623 376 q 528 534 623 534 q 406 457 476 534 m 325 457 q 203 534 254 534 q 108 455 108 534 q 196 376 108 376 q 325 457 267 376 z "},"±":{"ha":728,"x_min":83,"x_max":651,"o":"m 414 479 l 651 479 l 651 383 l 414 383 l 414 149 l 319 149 l 319 383 l 83 383 l 83 479 l 319 479 l 319 711 l 414 711 l 414 479 m 651 82 l 651 -14 l 83 -14 l 83 82 l 651 82 z "},"≤":{"ha":728,"x_min":83,"x_max":651,"o":"m 102 403 l 102 486 l 603 726 l 603 617 l 216 444 l 603 269 l 603 160 l 102 403 m 651 82 l 651 -14 l 83 -14 l 83 82 l 651 82 z "},"≥":{"ha":728,"x_min":83,"x_max":651,"o":"m 632 403 l 131 160 l 131 269 l 518 444 l 131 617 l 131 726 l 632 486 l 632 403 m 83 82 l 651 82 l 651 -14 l 83 -14 l 83 82 z "},"¥":{"ha":792,"x_min":26,"x_max":774,"o":"m 632 322 l 460 322 l 460 0 l 324 0 l 324 322 l 159 322 l 159 411 l 324 411 l 324 445 l 26 994 l 166 994 l 391 559 l 641 994 l 774 994 l 460 445 l 460 411 l 632 411 l 632 322 z "},"μ":{"ha":759,"x_min":92,"x_max":668,"o":"m 220 12 l 220 -285 l 92 -285 l 92 726 l 220 726 l 220 304 q 380 99 220 99 q 480 129 437 99 q 539 200 524 158 l 539 726 l 668 726 l 668 0 l 539 0 l 539 100 q 463 18 516 50 q 345 -14 410 -14 q 220 12 271 -14 z "},"∂":{"ha":763,"x_min":37,"x_max":688,"o":"m 401 732 q 288 853 401 770 q 86 936 175 936 l 116 1045 q 374 948 231 1045 q 603 700 517 851 q 688 372 688 548 q 593 95 688 205 q 342 -14 498 -14 q 37 317 37 -14 q 152 613 37 494 q 401 732 266 732 m 487 624 q 253 537 340 624 q 166 317 166 450 q 215 157 166 213 q 349 102 263 102 q 503 175 446 102 q 559 378 559 248 q 487 624 559 552 z "},"∑":{"ha":729,"x_min":60,"x_max":680,"o":"m 223 871 l 494 501 l 216 5 l 680 5 l 680 -117 l 60 -117 l 60 5 l 331 501 l 60 885 l 60 994 l 653 994 l 653 871 l 223 871 z "},"∏":{"ha":768,"x_min":23,"x_max":735,"o":"m 248 871 l 247 -115 l 111 -115 l 111 871 l 23 871 l 23 994 l 735 994 l 735 871 l 647 871 l 647 -115 l 511 -115 l 511 871 l 248 871 z "},"π":{"ha":836,"x_min":62,"x_max":773,"o":"m 666 0 l 535 0 l 535 618 l 307 618 l 307 0 l 176 0 l 176 618 l 62 618 l 62 726 l 773 726 l 773 618 l 666 618 l 666 0 z "},"∫":{"ha":728,"x_min":-15,"x_max":723,"o":"m -15 -201 l 53 -105 q 168 -170 105 -170 q 245 -119 216 -170 q 275 -6 275 -69 l 275 722 q 350 934 275 844 q 533 1024 425 1024 q 723 955 642 1024 l 639 859 q 526 909 599 909 q 452 871 480 909 q 423 701 423 834 l 423 16 q 360 -198 423 -112 q 189 -285 297 -285 q -15 -201 68 -285 z "},"ª":{"ha":510,"x_min":59,"x_max":465,"o":"m 348 612 q 201 559 297 559 q 100 593 141 559 q 59 680 59 627 q 122 803 59 758 q 287 848 186 848 l 313 848 l 337 848 q 243 934 335 934 q 125 892 170 934 l 85 965 q 234 1011 147 1011 q 429 830 429 1011 l 429 677 q 465 605 429 624 l 465 559 q 348 612 371 559 m 338 785 l 289 785 q 188 758 227 785 q 150 690 150 730 q 174 648 150 664 q 233 633 198 633 q 338 680 296 633 l 338 785 z "},"º":{"ha":510,"x_min":45,"x_max":469,"o":"m 45 786 q 103 949 45 886 q 257 1011 161 1011 q 413 951 358 1011 q 469 786 469 890 q 413 621 469 682 q 257 559 357 559 q 101 620 157 559 q 45 786 45 682 m 140 786 q 257 636 140 636 q 373 786 373 636 q 257 934 373 934 q 140 786 140 934 z "},"Ω":{"ha":929,"x_min":51,"x_max":878,"o":"m 878 0 l 539 0 l 539 103 q 692 297 648 203 q 736 505 736 390 q 454 889 736 889 q 260 785 328 889 q 193 505 193 682 q 252 277 193 401 q 390 102 311 153 l 390 0 l 51 0 l 51 102 l 233 102 q 51 505 51 243 q 160 866 51 720 q 454 1011 270 1011 q 769 878 661 1011 q 878 505 878 745 q 827 273 878 381 q 682 102 775 165 l 878 102 l 878 0 z "},"æ":{"ha":1213,"x_min":54,"x_max":1160,"o":"m 1150 351 l 633 351 q 694 165 633 235 q 855 95 754 95 q 1041 169 974 95 l 1095 66 q 981 3 1042 19 q 830 -14 919 -14 q 628 51 715 -14 q 635 -14 631 17 l 526 -14 q 503 83 519 18 q 273 -14 425 -14 q 118 46 182 -14 q 54 191 54 105 q 150 389 54 314 q 401 463 246 463 q 491 448 439 463 q 333 625 491 625 q 147 559 212 625 l 93 667 q 194 719 130 697 q 318 740 259 740 q 582 623 517 740 q 831 740 682 740 q 1071 650 982 740 q 1160 416 1160 559 q 1150 351 1160 385 m 633 444 l 1039 444 q 982 579 1039 528 q 831 631 924 631 q 690 570 747 631 q 633 444 633 509 m 491 357 q 405 370 450 370 q 246 316 309 370 q 183 201 183 262 q 317 88 183 88 q 491 181 416 88 l 491 357 z "},"ø":{"ha":758,"x_min":41,"x_max":699,"o":"m 183 39 l 144 -14 l 41 -14 l 122 96 q 41 365 41 197 q 132 636 41 533 q 370 740 222 740 q 559 688 482 740 l 597 740 l 699 740 l 619 632 q 699 365 699 533 q 610 88 699 189 q 370 -14 522 -14 q 183 39 260 -14 m 200 201 l 488 591 q 370 628 437 628 q 225 558 279 628 q 170 365 170 488 q 200 201 170 264 m 253 135 q 370 92 300 92 q 515 165 461 92 q 570 365 570 239 q 541 526 570 464 l 253 135 z "},"¿":{"ha":510,"x_min":27,"x_max":468,"o":"m 275 536 q 203 566 233 536 q 174 637 174 595 q 203 710 174 680 q 275 740 233 740 q 347 710 317 740 q 377 637 377 680 q 347 566 377 595 q 275 536 317 536 m 247 435 l 336 435 q 359 342 359 371 q 341 243 359 294 q 260 121 323 192 q 175 12 197 50 q 153 -62 153 -26 q 298 -181 153 -181 q 418 -132 367 -181 l 468 -229 q 264 -285 399 -285 q 95 -227 162 -285 q 27 -73 27 -170 q 44 21 27 -24 q 98 104 62 66 l 197 210 q 256 374 256 283 q 247 435 256 388 z "},"¡":{"ha":510,"x_min":159,"x_max":362,"o":"m 260 536 q 189 566 218 536 q 159 637 159 595 q 189 710 159 680 q 260 740 218 740 q 332 710 302 740 q 362 637 362 680 q 332 566 362 595 q 260 536 302 536 m 333 -7 l 333 -285 l 180 -285 l 180 -7 q 232 467 180 126 l 280 467 q 333 -7 333 120 z "},"¬":{"ha":728,"x_min":83,"x_max":651,"o":"m 651 601 l 651 271 l 555 271 l 555 505 l 83 505 l 83 601 l 651 601 z "},"√":{"ha":728,"x_min":11,"x_max":738,"o":"m 509 915 l 249 0 l 153 0 l 11 182 l 77 238 l 179 106 l 433 998 l 738 998 l 738 915 l 509 915 z "},"ƒ":{"ha":539,"x_min":-119,"x_max":568,"o":"m 544 903 q 464 922 492 922 q 303 727 329 922 q 351 726 326 726 q 473 732 408 726 l 465 654 q 285 634 351 637 l 173 -50 q 88 -206 157 -147 q -83 -277 19 -265 q -85 -273 -83 -277 q -90 -259 -86 -269 q -98 -237 -94 -250 l -111 -198 q -119 -172 -119 -173 q -14 -125 -64 -161 q 44 -50 37 -90 l 157 628 q 54 619 127 628 l 75 726 l 174 727 q 472 1024 234 1024 q 568 1004 508 1024 l 544 903 z "},"≈":{"ha":728,"x_min":107,"x_max":613,"o":"m 613 567 q 483 427 577 427 q 356 453 438 427 q 242 479 275 479 q 169 427 194 479 l 107 427 q 151 526 117 485 q 232 567 186 567 q 363 541 281 567 q 480 515 446 515 q 553 567 535 515 l 613 567 m 613 343 q 483 203 577 203 q 356 229 438 203 q 242 255 275 255 q 169 203 194 255 l 107 203 q 151 302 117 261 q 232 343 186 343 q 363 317 281 343 q 480 291 446 291 q 553 343 535 291 l 613 343 z "},"Δ":{"ha":812,"x_min":17,"x_max":797,"o":"m 17 0 l 17 84 l 374 994 l 471 994 l 797 84 l 797 0 l 17 0 m 420 825 l 165 115 l 656 115 l 420 825 z "},"«":{"ha":728,"x_min":87,"x_max":599,"o":"m 87 363 l 87 406 l 328 572 l 328 487 l 184 380 l 328 287 l 328 202 l 87 363 m 358 363 l 358 406 l 599 572 l 599 487 l 455 380 l 599 287 l 599 202 l 358 363 z "},"»":{"ha":728,"x_min":115,"x_max":626,"o":"m 355 363 l 115 202 l 115 287 l 258 380 l 115 487 l 115 572 l 355 406 l 355 363 m 626 363 l 385 202 l 385 287 l 529 380 l 385 487 l 385 572 l 626 406 l 626 363 z "},"…":{"ha":1020,"x_min":68,"x_max":952,"o":"m 271 89 q 241 17 271 47 q 170 -14 212 -14 q 98 17 127 -14 q 68 89 68 47 q 98 161 68 131 q 170 191 127 191 q 241 161 212 191 q 271 89 271 131 m 612 89 q 582 17 612 47 q 510 -14 552 -14 q 438 17 468 -14 q 408 89 408 47 q 438 161 408 131 q 510 191 468 191 q 582 161 552 191 q 612 89 612 131 m 952 89 q 922 17 952 47 q 850 -14 892 -14 q 779 17 808 -14 q 749 89 749 47 q 779 161 749 131 q 850 191 808 191 q 922 161 892 191 q 952 89 952 131 z "}," ":{"ha":418,"x_min":0,"x_max":0,"o":""},"À":{"ha":819,"x_min":3,"x_max":817,"o":"m 666 0 l 597 210 l 228 210 l 155 0 l 3 0 l 406 1007 l 442 1007 l 817 0 l 666 0 m 418 747 l 264 309 l 559 309 l 418 747 m 392 1075 l 239 1301 l 372 1301 l 487 1075 l 392 1075 z "},"Ã":{"ha":819,"x_min":3,"x_max":817,"o":"m 666 0 l 597 210 l 228 210 l 155 0 l 3 0 l 406 1007 l 442 1007 l 817 0 l 666 0 m 418 747 l 264 309 l 559 309 l 418 747 m 632 1215 q 502 1075 596 1075 q 408 1101 459 1075 q 336 1127 357 1127 q 262 1075 288 1127 l 201 1075 q 244 1174 210 1132 q 326 1215 279 1215 q 428 1189 381 1215 q 499 1163 475 1163 q 572 1215 554 1163 l 632 1215 z "},"Õ":{"ha":936,"x_min":54,"x_max":882,"o":"m 54 505 q 162 866 54 721 q 454 1011 271 1011 q 771 878 661 1011 q 882 505 882 744 q 771 122 882 260 q 454 -17 661 -17 q 160 130 267 -17 q 54 505 54 276 m 197 505 q 264 220 197 334 q 454 105 332 105 q 666 210 593 105 q 739 505 739 315 q 454 889 739 889 q 262 786 328 889 q 197 505 197 683 m 678 1215 q 548 1075 642 1075 q 454 1101 505 1075 q 382 1127 403 1127 q 309 1075 334 1127 l 247 1075 q 291 1174 256 1132 q 372 1215 325 1215 q 474 1189 427 1215 q 545 1163 522 1163 q 618 1215 600 1163 l 678 1215 z "},"Œ":{"ha":1379,"x_min":45,"x_max":1331,"o":"m 873 871 l 873 595 l 1201 595 l 1201 480 l 873 480 l 873 122 l 1323 122 l 1323 0 l 737 0 l 737 94 q 446 -17 628 -17 q 152 130 258 -17 q 45 505 45 276 q 154 866 45 721 q 446 1011 262 1011 q 737 905 629 1011 l 737 994 l 1331 994 l 1331 871 l 873 871 m 188 505 q 255 220 188 334 q 446 105 323 105 q 657 210 585 105 q 730 505 730 315 q 446 889 730 889 q 254 786 319 889 q 188 505 188 683 z "},"œ":{"ha":1284,"x_min":41,"x_max":1232,"o":"m 639 605 q 903 740 740 740 q 1142 650 1053 740 q 1232 416 1232 559 q 1221 351 1232 385 l 705 351 q 765 165 705 235 q 926 95 825 95 q 1112 163 1040 95 l 1166 60 q 901 -14 1082 -14 q 633 117 729 -14 q 370 -14 545 -14 q 128 89 215 -14 q 41 365 41 191 q 132 636 41 533 q 370 740 222 740 q 639 605 554 740 m 705 444 l 1110 444 q 1053 579 1110 528 q 902 631 996 631 q 768 573 831 631 q 705 444 705 515 m 177 365 q 370 102 177 102 q 513 173 464 102 q 563 365 563 243 q 370 625 563 625 q 228 557 279 625 q 177 365 177 489 z "},"–":{"ha":510,"x_min":63,"x_max":416,"o":"m 63 361 l 63 426 l 416 426 l 416 361 l 63 361 z "},"—":{"ha":1020,"x_min":63,"x_max":951,"o":"m 63 361 l 63 426 l 951 426 l 951 361 l 63 361 z "},"“":{"ha":728,"x_min":113,"x_max":644,"o":"m 644 964 l 593 920 q 555 842 555 888 q 589 778 555 814 q 622 711 622 741 q 524 611 622 611 q 418 731 418 611 q 598 1024 418 911 l 644 964 m 338 964 l 288 920 q 250 842 250 888 q 283 778 250 814 q 317 711 317 741 q 218 611 317 611 q 113 731 113 611 q 293 1024 113 911 l 338 964 z "},"”":{"ha":728,"x_min":111,"x_max":648,"o":"m 648 904 q 468 611 648 724 l 422 671 l 473 715 q 511 793 511 747 q 477 857 511 821 q 444 924 444 894 q 543 1024 444 1024 q 648 904 648 1024 m 336 904 q 157 611 336 724 l 111 671 l 162 715 q 199 793 199 747 q 166 857 199 821 q 133 924 133 894 q 231 1024 133 1024 q 336 904 336 1024 z "},"‘":{"ha":510,"x_min":150,"x_max":375,"o":"m 375 964 l 324 920 q 287 842 287 888 q 320 778 287 814 q 353 711 353 741 q 255 611 353 611 q 150 731 150 611 q 330 1024 150 911 l 375 964 z "},"’":{"ha":510,"x_min":135,"x_max":360,"o":"m 360 904 q 180 611 360 724 l 135 671 l 186 715 q 223 793 223 747 q 190 857 223 821 q 157 924 157 894 q 255 1024 157 1024 q 360 904 360 1024 z "},"÷":{"ha":728,"x_min":83,"x_max":651,"o":"m 471 678 q 441 606 471 636 q 369 576 411 576 q 297 606 327 576 q 267 678 267 636 q 297 750 267 720 q 369 780 327 780 q 441 750 411 780 q 471 678 471 720 m 651 478 l 651 382 l 83 382 l 83 478 l 651 478 m 471 170 q 441 97 471 127 q 369 67 411 67 q 297 97 327 67 q 267 170 267 127 q 297 241 267 212 q 369 271 327 271 q 441 241 411 271 q 471 170 471 212 z "},"◊":{"ha":686,"x_min":32,"x_max":656,"o":"m 372 964 l 656 481 l 372 0 l 297 0 l 32 481 l 297 964 l 372 964 m 336 899 l 105 481 l 336 64 l 579 481 l 336 899 z "},"ÿ":{"ha":685,"x_min":8,"x_max":677,"o":"m 369 -123 q 263 -239 344 -193 q 84 -285 183 -285 l 84 -170 q 222 -132 165 -170 q 280 -40 280 -94 q 259 78 280 20 q 205 221 238 136 l 8 726 l 140 726 l 353 165 l 545 726 l 677 726 l 369 -123 m 179 1026 q 233 1004 211 1026 q 255 950 255 982 q 233 896 255 918 q 179 873 211 873 q 125 896 147 873 q 102 950 102 918 q 125 1004 102 982 q 179 1026 147 1026 m 499 1026 q 553 1004 531 1026 q 576 950 576 982 q 553 896 576 918 q 499 873 531 873 q 445 896 467 873 q 423 950 423 918 q 445 1004 423 982 q 499 1026 467 1026 z "},"Ÿ":{"ha":792,"x_min":9,"x_max":783,"o":"m 465 445 l 465 0 l 329 0 l 329 445 l 9 994 l 149 994 l 396 559 l 644 994 l 783 994 l 465 445 m 240 1230 q 294 1207 272 1230 q 316 1154 316 1185 q 294 1099 316 1122 q 240 1077 272 1077 q 186 1099 208 1077 q 163 1154 163 1122 q 186 1207 163 1185 q 240 1230 208 1230 m 560 1230 q 614 1207 592 1230 q 637 1154 637 1185 q 614 1099 637 1122 q 560 1077 592 1077 q 506 1099 528 1077 q 484 1154 484 1122 q 506 1207 484 1185 q 560 1230 528 1230 z "},"⁄":{"ha":734,"x_min":3,"x_max":748,"o":"m 89 -24 l 3 -24 l 663 1011 l 748 1011 l 89 -24 z "},"€":{"ha":728,"x_min":21,"x_max":713,"o":"m 546 629 l 507 534 l 226 534 q 224 486 224 509 q 225 445 224 467 l 460 445 l 427 349 l 235 349 q 309 185 245 259 q 466 105 379 105 q 593 132 526 105 q 699 202 659 159 l 699 55 q 452 -17 604 -17 q 208 96 305 -17 q 100 349 124 195 l 21 349 l 21 445 l 87 445 q 87 534 84 491 l 21 534 l 21 629 l 99 629 q 218 893 124 787 q 474 1010 322 1010 q 713 947 644 1010 l 653 836 q 477 888 585 888 q 308 808 374 888 q 235 629 251 739 l 546 629 z "},"‹":{"ha":510,"x_min":116,"x_max":357,"o":"m 116 363 l 116 406 l 357 572 l 357 487 l 213 380 l 357 287 l 357 202 l 116 363 z "},"›":{"ha":510,"x_min":143,"x_max":384,"o":"m 384 363 l 143 202 l 143 287 l 287 380 l 143 487 l 143 572 l 384 406 l 384 363 z "},"ﬁ":{"ha":805,"x_min":36,"x_max":703,"o":"m 572 0 l 572 618 l 271 618 l 271 0 l 142 0 l 142 618 l 36 618 l 36 726 l 142 726 q 210 945 142 865 q 391 1024 279 1024 q 512 1004 448 1024 l 476 909 q 403 922 437 922 q 306 878 344 922 q 267 764 267 833 q 271 726 267 746 l 703 726 l 703 0 l 572 0 m 622 1001 q 679 978 655 1001 q 702 922 702 954 q 679 865 702 888 q 622 842 655 842 q 566 865 589 842 q 543 922 543 888 q 566 978 543 955 q 622 1001 589 1001 z "},"ﬂ":{"ha":834,"x_min":44,"x_max":777,"o":"m 777 -14 q 605 36 657 -14 q 553 205 553 85 l 553 871 q 494 907 536 892 q 411 922 453 922 q 314 878 352 922 q 275 764 275 833 q 279 726 275 746 l 406 726 l 406 618 l 279 618 l 279 0 l 150 0 l 150 618 l 44 618 l 44 726 l 150 726 q 218 945 150 865 q 399 1024 287 1024 q 553 992 499 1024 l 553 1010 l 682 1010 l 682 227 q 777 102 682 102 l 777 -14 z "},"‡":{"ha":637,"x_min":17,"x_max":621,"o":"m 621 258 l 621 163 l 370 163 l 370 -170 l 318 -233 l 268 -170 l 268 163 l 17 163 l 17 258 l 268 258 l 268 631 l 17 631 l 17 726 l 268 726 l 268 939 l 370 939 l 370 726 l 621 726 l 621 631 l 370 631 l 370 258 l 621 258 z "},"∙":{"ha":510,"x_min":139,"x_max":342,"o":"m 241 543 q 313 513 283 543 q 342 441 342 484 q 313 369 342 399 q 241 339 283 339 q 169 369 199 339 q 139 441 139 399 q 169 513 139 484 q 241 543 199 543 z "},"‚":{"ha":510,"x_min":135,"x_max":360,"o":"m 360 68 q 180 -225 360 -112 l 135 -165 l 186 -121 q 223 -43 223 -90 q 190 21 223 -16 q 157 88 157 58 q 255 188 157 188 q 360 68 360 188 z "},"„":{"ha":728,"x_min":111,"x_max":648,"o":"m 648 68 q 468 -225 648 -112 l 422 -165 l 473 -121 q 511 -43 511 -90 q 477 21 511 -16 q 444 88 444 58 q 543 188 444 188 q 648 68 648 188 m 336 68 q 157 -225 336 -112 l 111 -165 l 162 -121 q 199 -43 199 -90 q 166 21 199 -16 q 133 88 133 58 q 231 188 133 188 q 336 68 336 188 z "},"‰":{"ha":1267,"x_min":41,"x_max":1226,"o":"m 148 -14 l 62 -14 l 661 1011 l 746 1011 l 148 -14 m 41 788 q 96 949 41 888 q 236 1011 151 1011 q 369 950 319 1011 q 419 775 419 889 q 366 607 419 669 q 230 545 313 545 q 41 788 41 545 m 127 781 q 154 658 127 702 q 224 614 180 614 q 334 781 334 614 q 234 942 334 942 q 156 899 184 942 q 127 781 127 855 m 408 229 q 463 391 408 329 q 602 452 517 452 q 735 391 686 452 q 785 216 785 330 q 732 48 785 111 q 596 -14 680 -14 q 408 229 408 -14 m 493 222 q 520 99 493 143 q 590 56 547 56 q 700 222 700 56 q 600 383 700 383 q 522 340 551 383 q 493 222 493 296 m 848 229 q 903 391 848 329 q 1043 452 958 452 q 1176 391 1126 452 q 1226 216 1226 330 q 1173 48 1226 111 q 1037 -14 1120 -14 q 848 229 848 -14 m 934 222 q 961 99 934 143 q 1031 56 987 56 q 1141 222 1141 56 q 1041 383 1141 383 q 963 340 991 383 q 934 222 934 296 z "},"Â":{"ha":819,"x_min":3,"x_max":817,"o":"m 666 0 l 597 210 l 228 210 l 155 0 l 3 0 l 406 1007 l 442 1007 l 817 0 l 666 0 m 418 747 l 264 309 l 559 309 l 418 747 m 528 1075 l 417 1203 l 296 1075 l 180 1075 l 382 1304 l 454 1304 l 661 1075 l 528 1075 z "},"Ê":{"ha":744,"x_min":102,"x_max":695,"o":"m 237 871 l 237 595 l 566 595 l 566 480 l 237 480 l 237 122 l 688 122 l 688 0 l 102 0 l 102 994 l 695 994 l 695 871 l 237 871 m 487 1075 l 376 1203 l 256 1075 l 139 1075 l 341 1304 l 414 1304 l 621 1075 l 487 1075 z "},"Á":{"ha":819,"x_min":3,"x_max":817,"o":"m 666 0 l 597 210 l 228 210 l 155 0 l 3 0 l 406 1007 l 442 1007 l 817 0 l 666 0 m 418 747 l 264 309 l 559 309 l 418 747 m 583 1301 l 429 1075 l 334 1075 l 449 1301 l 583 1301 z "},"Ë":{"ha":744,"x_min":102,"x_max":695,"o":"m 237 871 l 237 595 l 566 595 l 566 480 l 237 480 l 237 122 l 688 122 l 688 0 l 102 0 l 102 994 l 695 994 l 695 871 l 237 871 m 233 1230 q 287 1207 264 1230 q 309 1154 309 1185 q 287 1099 309 1122 q 233 1077 264 1077 q 178 1099 201 1077 q 156 1154 156 1122 q 178 1207 156 1185 q 233 1230 201 1230 m 553 1230 q 607 1207 585 1230 q 629 1154 629 1185 q 607 1099 629 1122 q 553 1077 585 1077 q 499 1099 521 1077 q 477 1154 477 1122 q 499 1207 477 1185 q 553 1230 521 1230 z "},"È":{"ha":744,"x_min":102,"x_max":695,"o":"m 237 871 l 237 595 l 566 595 l 566 480 l 237 480 l 237 122 l 688 122 l 688 0 l 102 0 l 102 994 l 695 994 l 695 871 l 237 871 m 401 1075 l 248 1301 l 382 1301 l 496 1075 l 401 1075 z "},"Í":{"ha":387,"x_min":125,"x_max":391,"o":"m 125 0 l 125 994 l 261 994 l 261 0 l 125 0 m 391 1301 l 238 1075 l 143 1075 l 258 1301 l 391 1301 z "},"Î":{"ha":387,"x_min":-54,"x_max":427,"o":"m 125 0 l 125 994 l 261 994 l 261 0 l 125 0 m 294 1075 l 183 1203 l 62 1075 l -54 1075 l 148 1304 l 220 1304 l 427 1075 l 294 1075 z "},"Ï":{"ha":387,"x_min":-21,"x_max":452,"o":"m 125 0 l 125 994 l 261 994 l 261 0 l 125 0 m 56 1230 q 110 1207 87 1230 q 132 1154 132 1185 q 110 1099 132 1122 q 56 1077 87 1077 q 1 1099 24 1077 q -21 1154 -21 1122 q 1 1207 -21 1185 q 56 1230 24 1230 m 376 1230 q 430 1207 408 1230 q 452 1154 452 1185 q 430 1099 452 1122 q 376 1077 408 1077 q 322 1099 344 1077 q 300 1154 300 1122 q 322 1207 300 1185 q 376 1230 344 1230 z "},"Ì":{"ha":387,"x_min":70,"x_max":318,"o":"m 125 0 l 125 994 l 261 994 l 261 0 l 125 0 m 223 1075 l 70 1301 l 203 1301 l 318 1075 l 223 1075 z "},"Ó":{"ha":936,"x_min":54,"x_max":882,"o":"m 54 505 q 162 866 54 721 q 454 1011 271 1011 q 771 878 661 1011 q 882 505 882 744 q 771 122 882 260 q 454 -17 661 -17 q 160 130 267 -17 q 54 505 54 276 m 197 505 q 264 220 197 334 q 454 105 332 105 q 666 210 593 105 q 739 505 739 315 q 454 889 739 889 q 262 786 328 889 q 197 505 197 683 m 603 1301 l 450 1075 l 355 1075 l 469 1301 l 603 1301 z "},"Ô":{"ha":936,"x_min":54,"x_max":882,"o":"m 54 505 q 162 866 54 721 q 454 1011 271 1011 q 771 878 661 1011 q 882 505 882 744 q 771 122 882 260 q 454 -17 661 -17 q 160 130 267 -17 q 54 505 54 276 m 197 505 q 264 220 197 334 q 454 105 332 105 q 666 210 593 105 q 739 505 739 315 q 454 889 739 889 q 262 786 328 889 q 197 505 197 683 m 562 1075 l 451 1203 l 330 1075 l 214 1075 l 416 1304 l 488 1304 l 695 1075 l 562 1075 z "},"Ò":{"ha":936,"x_min":54,"x_max":882,"o":"m 54 505 q 162 866 54 721 q 454 1011 271 1011 q 771 878 661 1011 q 882 505 882 744 q 771 122 882 260 q 454 -17 661 -17 q 160 130 267 -17 q 54 505 54 276 m 197 505 q 264 220 197 334 q 454 105 332 105 q 666 210 593 105 q 739 505 739 315 q 454 889 739 889 q 262 786 328 889 q 197 505 197 683 m 487 1075 l 334 1301 l 467 1301 l 582 1075 l 487 1075 z "},"Ú":{"ha":901,"x_min":102,"x_max":799,"o":"m 102 994 l 237 994 l 237 313 q 295 164 237 222 q 448 105 353 105 q 606 162 548 105 q 663 317 663 219 l 663 994 l 799 994 l 799 302 q 705 67 799 152 q 449 -17 611 -17 q 192 66 282 -17 q 102 303 102 149 l 102 994 m 579 1301 l 426 1075 l 331 1075 l 446 1301 l 579 1301 z "},"Û":{"ha":901,"x_min":102,"x_max":799,"o":"m 102 994 l 237 994 l 237 313 q 295 164 237 222 q 448 105 353 105 q 606 162 548 105 q 663 317 663 219 l 663 994 l 799 994 l 799 302 q 705 67 799 152 q 449 -17 611 -17 q 192 66 282 -17 q 102 303 102 149 l 102 994 m 537 1075 l 427 1203 l 306 1075 l 189 1075 l 391 1304 l 464 1304 l 671 1075 l 537 1075 z "},"Ù":{"ha":901,"x_min":102,"x_max":799,"o":"m 102 994 l 237 994 l 237 313 q 295 164 237 222 q 448 105 353 105 q 606 162 548 105 q 663 317 663 219 l 663 994 l 799 994 l 799 302 q 705 67 799 152 q 449 -17 611 -17 q 192 66 282 -17 q 102 303 102 149 l 102 994 m 447 1075 l 294 1301 l 427 1301 l 542 1075 l 447 1075 z "},"ı":{"ha":396,"x_min":54,"x_max":285,"o":"m 154 0 l 154 618 l 54 618 l 54 726 l 285 726 l 285 0 l 154 0 z "},"ˆ":{"ha":728,"x_min":115,"x_max":596,"o":"m 463 871 l 352 1000 l 231 871 l 115 871 l 317 1101 l 389 1101 l 596 871 l 463 871 z "},"˜":{"ha":728,"x_min":138,"x_max":570,"o":"m 570 1012 q 439 871 534 871 q 346 898 397 871 q 273 924 294 924 q 200 871 225 924 l 138 871 q 182 970 148 928 q 263 1012 216 1012 q 366 986 319 1012 q 437 960 413 960 q 510 1012 492 960 l 570 1012 z "},"ˉ":{"ha":728,"x_min":119,"x_max":619,"o":"m 619 967 l 619 871 l 119 871 l 119 967 l 619 967 z "},"˘":{"ha":728,"x_min":140,"x_max":590,"o":"m 590 1092 q 526 942 590 1012 q 357 871 463 871 q 198 935 256 871 q 140 1092 140 999 l 236 1092 q 271 1013 234 1050 q 357 976 307 976 q 454 1011 414 976 q 493 1092 493 1046 l 590 1092 z "},"˙":{"ha":728,"x_min":283,"x_max":443,"o":"m 363 1031 q 419 1007 396 1031 q 443 951 443 984 q 419 895 443 918 q 363 871 396 871 q 307 895 330 871 q 283 951 283 918 q 307 1008 283 985 q 363 1031 330 1031 z "},"˚":{"ha":728,"x_min":201,"x_max":488,"o":"m 345 1156 q 446 1114 404 1156 q 488 1014 488 1073 q 446 913 488 955 q 345 871 404 871 q 243 913 285 871 q 201 1014 201 955 q 243 1114 201 1073 q 345 1156 285 1156 m 345 946 q 393 966 373 946 q 413 1014 413 986 q 393 1061 413 1042 q 345 1081 373 1081 q 296 1061 316 1081 q 275 1014 275 1042 q 296 966 275 986 q 345 946 316 946 z "},"¸":{"ha":728,"x_min":224,"x_max":429,"o":"m 241 -309 l 224 -241 q 313 -223 277 -241 q 348 -172 348 -205 q 287 -122 348 -122 l 287 -41 q 391 -79 354 -41 q 429 -172 429 -117 q 379 -272 429 -236 q 241 -309 330 -309 z "},"˝":{"ha":728,"x_min":136,"x_max":617,"o":"m 366 1063 l 231 871 l 136 871 l 233 1063 l 366 1063 m 617 1063 l 482 871 l 387 871 l 484 1063 l 617 1063 z "},"˛":{"ha":728,"x_min":224,"x_max":530,"o":"m 484 -133 l 530 -229 q 409 -253 465 -253 q 277 -206 330 -253 q 224 -85 224 -159 q 363 109 224 33 l 403 0 q 347 -40 358 -22 q 336 -90 336 -59 q 412 -154 336 -154 q 484 -133 448 -154 z "},"ˇ":{"ha":728,"x_min":115,"x_max":596,"o":"m 596 1098 l 389 871 l 317 871 l 115 1101 l 231 1101 l 352 970 l 463 1098 l 596 1098 z "},"Ł":{"ha":703,"x_min":-1,"x_max":686,"o":"m 329 709 l 329 620 l 237 555 l 237 122 l 686 122 l 686 0 l 102 0 l 102 460 l -1 389 l -1 486 l 102 555 l 102 994 l 237 994 l 237 647 l 329 709 z "},"ł":{"ha":414,"x_min":33,"x_max":356,"o":"m 106 205 l 106 465 l 33 414 l 33 512 l 106 561 l 106 1024 l 235 1024 l 235 648 q 329 709 251 659 l 329 620 l 235 554 l 235 227 q 268 135 235 169 q 356 102 302 102 l 356 -14 q 106 205 106 -14 z "},"Š":{"ha":668,"x_min":54,"x_max":613,"o":"m 57 45 l 106 170 q 201 124 144 142 q 302 105 258 105 q 430 149 382 105 q 478 259 478 192 q 451 352 478 309 q 317 446 425 395 l 237 484 q 95 596 135 531 q 54 753 54 661 q 133 937 54 864 q 335 1010 212 1010 q 564 957 500 1010 l 524 839 q 441 877 497 859 q 338 895 386 895 q 230 856 269 895 q 190 755 190 817 q 204 686 190 717 q 244 633 218 654 q 348 574 269 612 l 429 536 q 572 421 531 488 q 613 251 613 354 q 523 61 613 139 q 283 -17 433 -17 q 57 45 151 -17 m 583 1301 l 376 1075 l 303 1075 l 101 1304 l 218 1304 l 338 1174 l 449 1301 l 583 1301 z "},"š":{"ha":562,"x_min":35,"x_max":518,"o":"m 44 43 l 90 165 q 263 95 197 95 q 382 195 382 95 q 267 319 382 267 q 148 380 178 359 q 94 428 117 401 q 60 485 71 455 q 49 550 49 515 q 114 690 49 640 q 284 740 179 740 q 484 690 363 740 l 448 570 q 294 631 371 631 q 216 610 248 631 q 184 555 184 588 q 264 449 184 485 l 356 407 q 479 319 441 368 q 518 195 518 269 q 450 42 518 97 q 260 -14 381 -14 q 44 43 145 -14 m 517 1098 l 310 871 l 237 871 l 35 1101 l 152 1101 l 273 970 l 383 1098 l 517 1098 z "},"Ž":{"ha":764,"x_min":68,"x_max":696,"o":"m 68 0 l 68 34 l 495 871 l 75 871 l 75 994 l 682 994 l 682 960 l 253 122 l 696 122 l 696 0 l 68 0 m 609 1301 l 402 1075 l 330 1075 l 127 1304 l 244 1304 l 365 1174 l 475 1301 l 609 1301 z "},"ž":{"ha":659,"x_min":27,"x_max":632,"o":"m 229 115 l 632 115 l 632 0 l 27 0 l 27 34 l 440 611 l 34 611 l 34 726 l 628 726 l 628 690 l 229 115 m 562 1098 l 355 871 l 282 871 l 80 1101 l 197 1101 l 317 970 l 428 1098 l 562 1098 z "},"¦":{"ha":728,"x_min":320,"x_max":419,"o":"m 320 471 l 320 961 l 419 961 l 419 471 l 320 471 m 320 -187 l 320 303 l 419 303 l 419 -187 l 320 -187 z "},"Ð":{"ha":852,"x_min":10,"x_max":798,"o":"m 10 469 l 10 577 l 102 577 l 102 994 q 347 1000 293 1000 q 676 874 555 1000 q 798 537 798 747 q 302 0 798 0 l 102 0 l 102 469 l 10 469 m 237 577 l 338 577 l 338 469 l 237 469 l 237 129 q 350 122 283 122 q 574 229 492 122 q 655 526 655 336 q 338 878 655 878 q 237 871 319 878 l 237 577 z "},"ð":{"ha":763,"x_min":41,"x_max":699,"o":"m 242 849 l 350 906 q 231 1024 288 981 l 401 1024 q 455 962 420 1004 l 572 1024 l 604 966 l 496 908 q 660 598 621 716 q 699 365 699 481 q 612 90 699 193 q 370 -14 525 -14 q 128 90 215 -14 q 41 365 41 193 q 131 635 41 530 q 370 740 220 740 q 469 728 422 740 q 391 852 426 804 l 273 788 l 242 849 m 170 365 q 370 102 170 102 q 518 174 466 102 q 570 365 570 245 q 370 625 570 625 q 222 553 275 625 q 170 365 170 482 z "},"Ý":{"ha":792,"x_min":9,"x_max":783,"o":"m 465 445 l 465 0 l 329 0 l 329 445 l 9 994 l 149 994 l 396 559 l 644 994 l 783 994 l 465 445 m 555 1301 l 402 1075 l 307 1075 l 422 1301 l 555 1301 z "},"Þ":{"ha":772,"x_min":102,"x_max":721,"o":"m 338 213 l 238 213 l 238 0 l 102 0 l 102 994 l 238 994 l 238 865 l 288 865 q 721 562 721 865 q 620 304 721 395 q 338 213 519 213 m 312 743 l 238 743 l 238 335 l 329 335 q 581 547 581 335 q 519 696 581 649 q 312 743 456 743 z "},"þ":{"ha":768,"x_min":92,"x_max":724,"o":"m 220 40 l 220 -285 l 92 -285 l 92 1024 l 220 1024 l 220 667 q 397 740 294 740 q 638 644 552 740 q 724 361 724 547 q 637 91 724 196 q 387 -14 551 -14 q 220 40 274 -14 m 220 563 l 220 153 q 349 102 281 102 q 532 165 475 102 q 589 366 589 229 q 532 563 589 502 q 349 625 476 625 q 283 606 322 625 q 220 563 243 587 z "},"−":{"ha":728,"x_min":83,"x_max":651,"o":"m 651 479 l 651 383 l 83 383 l 83 479 l 651 479 z "},"¹":{"ha":627,"x_min":170,"x_max":386,"o":"m 298 404 l 298 861 l 170 785 l 170 861 q 361 1002 304 928 l 386 1002 l 386 404 l 298 404 z "},"²":{"ha":627,"x_min":110,"x_max":491,"o":"m 125 404 l 125 420 l 305 701 q 363 852 363 791 q 277 935 363 935 q 162 850 204 935 l 110 893 q 173 977 127 943 q 273 1010 218 1010 q 452 859 452 1010 q 389 678 452 777 l 264 484 l 491 484 l 491 404 l 125 404 z "},"³":{"ha":630,"x_min":125,"x_max":465,"o":"m 125 446 l 165 515 q 266 478 199 478 q 376 574 376 478 q 345 654 376 624 q 258 685 314 685 l 252 685 l 252 754 l 256 754 q 356 848 356 754 q 262 929 356 929 q 178 899 204 929 l 141 961 q 268 1010 179 1010 q 395 968 347 1010 q 444 861 444 926 q 417 774 444 812 q 353 722 391 736 q 465 568 465 686 q 264 397 465 397 q 125 446 177 397 z "},"½":{"ha":1131,"x_min":68,"x_max":1061,"o":"m 228 -24 l 141 -24 l 802 1011 l 887 1011 l 228 -24 m 196 404 l 196 861 l 68 785 l 68 861 q 260 1002 202 928 l 284 1002 l 284 404 l 196 404 m 694 0 l 694 16 l 875 297 q 933 448 933 388 q 846 531 933 531 q 732 447 774 531 l 680 490 q 743 573 697 540 q 842 607 788 607 q 1021 455 1021 607 q 958 275 1021 374 l 834 80 l 1061 80 l 1061 0 l 694 0 z "},"¼":{"ha":1131,"x_min":55,"x_max":1010,"o":"m 237 -24 l 150 -24 l 810 1011 l 896 1011 l 237 -24 m 176 404 l 176 854 l 55 785 l 55 861 q 246 1002 189 928 l 271 1002 l 271 404 l 176 404 m 949 142 l 949 0 l 861 0 l 861 142 l 587 142 l 587 189 l 921 599 l 949 599 l 949 212 l 1010 212 l 1010 142 l 949 142 m 861 422 l 690 212 l 861 212 l 861 422 z "},"¾":{"ha":1131,"x_min":85,"x_max":1030,"o":"m 291 -24 l 204 -24 l 865 1011 l 950 1011 l 291 -24 m 85 446 l 125 515 q 225 478 158 478 q 336 574 336 478 q 304 654 336 624 q 218 685 273 685 l 211 685 l 211 754 l 215 754 q 315 848 315 754 q 221 929 315 929 q 137 899 163 929 l 100 961 q 227 1010 138 1010 q 355 968 306 1010 q 404 861 404 926 q 377 774 404 812 q 312 722 350 736 q 424 568 424 686 q 224 397 424 397 q 85 446 136 397 m 970 142 l 970 0 l 882 0 l 882 142 l 608 142 l 608 189 l 941 599 l 970 599 l 970 212 l 1030 212 l 1030 142 l 970 142 m 882 422 l 711 212 l 882 212 l 882 422 z "},"µ":{"ha":759,"x_min":92,"x_max":668,"o":"m 220 12 l 220 -285 l 92 -285 l 92 726 l 220 726 l 220 304 q 380 99 220 99 q 480 129 437 99 q 539 200 524 158 l 539 726 l 668 726 l 668 0 l 539 0 l 539 100 q 463 18 516 50 q 345 -14 410 -14 q 220 12 271 -14 z "},"Ω":{"ha":929,"x_min":51,"x_max":878,"o":"m 878 0 l 539 0 l 539 103 q 692 297 648 203 q 736 505 736 390 q 454 889 736 889 q 260 785 328 889 q 193 505 193 682 q 252 277 193 401 q 390 102 311 153 l 390 0 l 51 0 l 51 102 l 233 102 q 51 505 51 243 q 160 866 51 720 q 454 1011 270 1011 q 769 878 661 1011 q 878 505 878 745 q 827 273 878 381 q 682 102 775 165 l 878 102 l 878 0 z "},"∆":{"ha":812,"x_min":17,"x_max":797,"o":"m 17 0 l 17 84 l 374 994 l 471 994 l 797 84 l 797 0 l 17 0 m 420 825 l 165 115 l 656 115 l 420 825 z "},"ý":{"ha":685,"x_min":8,"x_max":677,"o":"m 369 -123 q 263 -239 344 -193 q 84 -285 183 -285 l 84 -170 q 222 -132 165 -170 q 280 -40 280 -94 q 259 78 280 20 q 205 221 238 136 l 8 726 l 140 726 l 353 165 l 545 726 l 677 726 l 369 -123 m 512 1097 l 359 871 l 264 871 l 378 1097 l 512 1097 z "},"×":{"ha":728,"x_min":83,"x_max":652,"o":"m 369 494 l 584 709 l 652 642 l 437 427 l 650 213 l 582 145 l 369 359 l 154 144 l 86 211 l 301 426 l 83 644 l 151 711 l 369 494 z "},"­":{"ha":510,"x_min":108,"x_max":398,"o":"m 108 343 l 108 462 l 398 462 l 398 343 l 108 343 z "},"₣":{"ha":729,"x_min":10,"x_max":715,"o":"m 237 871 l 237 595 l 587 595 l 587 480 l 237 480 l 237 340 l 338 340 l 338 231 l 237 231 l 237 0 l 102 0 l 102 231 l 10 231 l 10 340 l 102 340 l 102 994 l 715 994 l 715 871 l 237 871 z "},"Ğ":{"ha":939,"x_min":54,"x_max":838,"o":"m 790 924 l 734 812 q 533 888 631 888 q 287 779 377 888 q 197 488 197 669 q 285 210 197 315 q 526 105 374 105 q 702 170 635 105 l 702 403 l 564 403 l 564 518 l 838 518 l 838 85 q 686 11 783 39 q 498 -17 589 -17 q 173 122 292 -17 q 54 493 54 262 q 185 867 54 724 q 537 1010 315 1010 q 790 924 692 1010 m 719 1295 q 655 1145 719 1215 q 486 1075 591 1075 q 327 1139 385 1075 q 269 1295 269 1202 l 365 1295 q 399 1217 363 1254 q 486 1179 436 1179 q 583 1214 543 1179 q 622 1295 622 1249 l 719 1295 z "},"ğ":{"ha":697,"x_min":54,"x_max":656,"o":"m 65 -199 l 135 -96 q 342 -171 248 -171 q 480 -141 430 -171 q 531 -66 531 -111 q 404 22 531 22 q 325 12 382 22 q 236 1 268 1 q 81 117 81 1 q 118 182 81 153 q 208 224 154 212 q 54 474 54 296 q 134 664 54 588 q 330 740 213 740 q 497 696 437 740 l 562 773 l 646 694 l 568 635 q 618 467 618 571 q 549 283 618 357 q 370 197 481 208 l 263 186 q 212 172 244 184 q 180 139 180 159 q 247 111 180 111 q 338 122 276 111 q 429 132 399 132 q 596 81 536 132 q 656 -61 656 30 q 567 -223 656 -161 q 339 -285 477 -285 q 191 -260 269 -285 q 65 -199 113 -235 m 338 636 q 229 589 271 636 q 186 473 186 541 q 228 348 186 397 q 338 298 269 298 q 446 346 407 298 q 484 473 484 395 q 443 589 484 541 q 338 636 401 636 m 549 1092 q 486 942 549 1012 q 316 871 422 871 q 157 935 215 871 q 100 1092 100 999 l 195 1092 q 230 1013 193 1050 q 316 976 267 976 q 413 1011 374 976 q 452 1092 452 1046 l 549 1092 z "},"İ":{"ha":387,"x_min":113,"x_max":272,"o":"m 125 0 l 125 994 l 261 994 l 261 0 l 125 0 m 192 1234 q 249 1211 225 1234 q 272 1155 272 1187 q 249 1098 272 1122 q 192 1075 225 1075 q 136 1098 159 1075 q 113 1155 113 1122 q 136 1211 113 1188 q 192 1234 159 1234 z "},"Ş":{"ha":668,"x_min":54,"x_max":613,"o":"m 57 45 l 106 170 q 201 124 144 142 q 302 105 258 105 q 430 149 382 105 q 478 259 478 192 q 451 352 478 309 q 317 446 425 395 l 237 484 q 95 596 135 531 q 54 753 54 661 q 133 937 54 864 q 335 1010 212 1010 q 564 957 500 1010 l 524 839 q 441 877 497 859 q 338 895 386 895 q 230 856 269 895 q 190 755 190 817 q 204 686 190 717 q 244 633 218 654 q 348 574 269 612 l 429 536 q 572 421 531 488 q 613 251 613 354 q 523 61 613 139 q 283 -17 433 -17 q 57 45 151 -17 m 207 -309 l 191 -241 q 279 -223 243 -241 q 314 -172 314 -205 q 253 -122 314 -122 l 253 -41 q 357 -79 320 -41 q 395 -172 395 -117 q 345 -272 395 -236 q 207 -309 296 -309 z "},"ş":{"ha":562,"x_min":44,"x_max":518,"o":"m 44 43 l 90 165 q 263 95 197 95 q 382 195 382 95 q 267 319 382 267 q 148 380 178 359 q 94 428 117 401 q 60 485 71 455 q 49 550 49 515 q 114 690 49 640 q 284 740 179 740 q 484 690 363 740 l 448 570 q 294 631 371 631 q 216 610 248 631 q 184 555 184 588 q 264 449 184 485 l 356 407 q 479 319 441 368 q 518 195 518 269 q 450 42 518 97 q 260 -14 381 -14 q 44 43 145 -14 m 153 -309 l 136 -241 q 224 -223 189 -241 q 260 -172 260 -205 q 199 -122 260 -122 l 199 -41 q 303 -79 266 -41 q 340 -172 340 -117 q 291 -272 340 -236 q 153 -309 241 -309 z "},"Ć":{"ha":831,"x_min":54,"x_max":777,"o":"m 736 957 l 690 841 q 486 888 625 888 q 276 776 355 888 q 197 486 197 663 q 278 211 197 316 q 487 105 359 105 q 702 204 627 105 l 777 100 q 473 -17 659 -17 q 166 123 278 -17 q 54 494 54 264 q 174 863 54 716 q 482 1010 293 1010 q 736 957 644 1010 m 647 1301 l 494 1075 l 399 1075 l 513 1301 l 647 1301 z "},"ć":{"ha":688,"x_min":44,"x_max":644,"o":"m 640 667 l 576 576 q 506 614 556 596 q 408 631 456 631 q 241 558 303 631 q 180 356 180 484 q 243 162 180 229 q 418 95 306 95 q 593 162 505 95 l 644 54 q 387 -14 540 -14 q 141 86 238 -14 q 44 356 44 186 q 145 635 44 530 q 420 740 245 740 q 543 716 477 740 q 640 667 608 692 m 566 1097 l 412 871 l 317 871 l 432 1097 l 566 1097 z "},"Č":{"ha":831,"x_min":54,"x_max":777,"o":"m 736 957 l 690 841 q 486 888 625 888 q 276 776 355 888 q 197 486 197 663 q 278 211 197 316 q 487 105 359 105 q 702 204 627 105 l 777 100 q 473 -17 659 -17 q 166 123 278 -17 q 54 494 54 264 q 174 863 54 716 q 482 1010 293 1010 q 736 957 644 1010 m 711 1301 l 505 1075 l 432 1075 l 230 1304 l 347 1304 l 467 1174 l 578 1301 l 711 1301 z "},"č":{"ha":688,"x_min":44,"x_max":644,"o":"m 640 667 l 576 576 q 506 614 556 596 q 408 631 456 631 q 241 558 303 631 q 180 356 180 484 q 243 162 180 229 q 418 95 306 95 q 593 162 505 95 l 644 54 q 387 -14 540 -14 q 141 86 238 -14 q 44 356 44 186 q 145 635 44 530 q 420 740 245 740 q 543 716 477 740 q 640 667 608 692 m 623 1098 l 416 871 l 344 871 l 142 1101 l 258 1101 l 379 970 l 490 1098 l 623 1098 z "},"đ":{"ha":774,"x_min":51,"x_max":762,"o":"m 681 1 l 552 1 l 552 54 q 357 -13 485 -13 q 136 85 220 -13 q 51 345 51 182 q 149 624 51 509 q 381 740 246 740 q 552 687 494 740 l 552 808 l 383 808 l 383 909 l 552 909 l 552 1024 l 681 1024 l 681 909 l 762 909 l 762 808 l 681 808 l 681 1 m 552 162 l 552 551 q 418 625 503 625 q 250 550 313 625 q 186 357 186 475 q 425 102 186 102 q 508 126 465 102 q 552 162 552 150 z "},"¯":{"ha":728,"x_min":-5,"x_max":730,"o":"m -5 1048 l -5 1136 l 730 1136 l 730 1048 l -5 1048 z "},"·":{"ha":510,"x_min":139,"x_max":342,"o":"m 241 543 q 313 513 283 543 q 342 441 342 484 q 313 369 342 399 q 241 339 283 339 q 169 369 199 339 q 139 441 139 399 q 169 513 139 484 q 241 543 199 543 z "},"Ă":{"ha":819,"x_min":3,"x_max":817,"o":"m 666 0 l 597 210 l 228 210 l 155 0 l 3 0 l 406 1007 l 442 1007 l 817 0 l 666 0 m 418 747 l 264 309 l 559 309 l 418 747 m 647 1295 q 583 1145 647 1215 q 414 1075 519 1075 q 255 1139 313 1075 q 197 1295 197 1202 l 293 1295 q 328 1217 291 1254 q 414 1179 364 1179 q 511 1214 471 1179 q 550 1295 550 1249 l 647 1295 z "},"ă":{"ha":730,"x_min":54,"x_max":675,"o":"m 502 83 q 265 -14 425 -14 q 117 48 180 -14 q 54 203 54 111 q 151 390 54 313 q 397 466 248 466 q 490 448 438 466 q 332 625 490 625 q 146 559 212 625 l 92 667 q 194 719 129 697 q 317 740 258 740 q 547 668 475 740 q 618 439 618 596 l 618 179 q 675 52 618 83 l 675 -13 q 558 9 597 -13 q 502 83 519 32 m 490 357 q 404 370 429 370 q 245 320 307 370 q 183 201 183 270 q 317 88 183 88 q 490 181 414 88 l 490 357 m 576 1092 q 513 942 576 1012 q 343 871 449 871 q 184 935 242 871 q 127 1092 127 999 l 222 1092 q 257 1013 220 1050 q 343 976 294 976 q 440 1011 401 976 q 479 1092 479 1046 l 576 1092 z "},"Ą":{"ha":819,"x_min":3,"x_max":903,"o":"m 903 -229 q 782 -253 838 -253 q 650 -206 703 -253 q 597 -85 597 -159 q 653 40 597 -8 l 597 210 l 228 210 l 155 0 l 3 0 l 406 1007 l 442 1007 l 817 0 l 772 0 q 733 -21 756 0 q 709 -90 709 -42 q 732 -136 709 -117 q 785 -154 755 -154 q 857 -133 821 -154 l 903 -229 m 559 309 l 418 747 l 264 309 l 559 309 z "},"ą":{"ha":730,"x_min":54,"x_max":793,"o":"m 748 -133 l 793 -229 q 673 -253 728 -253 q 541 -206 593 -253 q 488 -85 488 -159 q 530 32 488 -21 q 502 83 513 52 q 265 -14 425 -14 q 117 48 180 -14 q 54 203 54 111 q 151 390 54 313 q 397 466 248 466 q 490 448 438 466 q 332 625 490 625 q 146 559 212 625 l 92 667 q 194 719 129 697 q 317 740 258 740 q 547 668 475 740 q 618 439 618 596 l 618 179 q 675 52 618 83 l 675 -13 q 644 -12 654 -13 q 600 -90 600 -37 q 675 -154 600 -154 q 748 -133 712 -154 m 490 357 q 404 370 429 370 q 245 320 307 370 q 183 201 183 270 q 317 88 183 88 q 490 181 414 88 l 490 357 z "},"Ď":{"ha":852,"x_min":102,"x_max":798,"o":"m 302 0 l 102 0 l 102 994 q 347 1000 294 1000 q 677 874 555 1000 q 798 537 798 747 q 302 0 798 0 m 238 871 l 238 129 q 351 122 283 122 q 574 229 493 122 q 656 526 656 336 q 339 878 656 878 q 238 871 320 878 m 637 1301 l 431 1075 l 358 1075 l 156 1304 l 273 1304 l 393 1174 l 504 1301 l 637 1301 z "},"ď":{"ha":960,"x_min":51,"x_max":964,"o":"m 552 1 l 552 54 q 357 -13 485 -13 q 136 85 220 -13 q 51 345 51 182 q 149 624 51 509 q 381 740 246 740 q 552 687 494 740 l 552 1024 l 681 1024 l 681 1 l 552 1 m 552 558 q 418 631 503 631 q 251 554 315 631 q 186 357 186 477 q 425 95 186 95 q 498 114 456 95 q 552 155 541 134 l 552 558 m 838 734 l 806 777 q 862 832 855 817 q 868 862 868 847 q 845 907 868 884 q 821 954 821 930 q 890 1024 821 1024 q 964 940 964 1024 q 838 734 964 812 z "},"Đ":{"ha":852,"x_min":10,"x_max":798,"o":"m 10 469 l 10 577 l 102 577 l 102 994 q 347 1000 293 1000 q 676 874 555 1000 q 798 537 798 747 q 302 0 798 0 l 102 0 l 102 469 l 10 469 m 237 577 l 338 577 l 338 469 l 237 469 l 237 129 q 350 122 283 122 q 574 229 492 122 q 655 526 655 336 q 338 878 655 878 q 237 871 319 878 l 237 577 z "},"Ę":{"ha":744,"x_min":102,"x_max":707,"o":"m 662 -133 l 707 -229 q 587 -253 642 -253 q 455 -206 507 -253 q 402 -85 402 -159 q 424 0 402 -40 l 102 0 l 102 994 l 695 994 l 695 871 l 238 871 l 238 595 l 566 595 l 566 480 l 238 480 l 238 122 l 688 122 l 688 0 l 581 0 q 552 -16 578 0 q 520 -50 527 -31 q 514 -90 514 -68 q 589 -154 514 -154 q 662 -133 626 -154 z "},"ę":{"ha":758,"x_min":44,"x_max":713,"o":"m 587 -229 q 466 -253 522 -253 q 334 -206 387 -253 q 281 -85 281 -159 q 296 -3 281 -54 q 112 121 180 26 q 44 355 44 216 q 144 633 44 527 q 385 740 244 740 q 625 655 537 740 q 713 429 713 570 q 703 351 713 398 l 180 351 q 242 162 180 229 q 408 95 304 95 q 593 159 519 95 l 646 56 q 437 -12 564 -6 q 393 -90 393 -37 q 469 -154 393 -154 q 541 -133 505 -154 l 587 -229 m 585 444 q 532 578 585 526 q 391 631 479 631 q 248 578 306 631 q 183 444 191 524 l 585 444 z "},"Ě":{"ha":744,"x_min":102,"x_max":695,"o":"m 237 871 l 237 595 l 566 595 l 566 480 l 237 480 l 237 122 l 688 122 l 688 0 l 102 0 l 102 994 l 695 994 l 695 871 l 237 871 m 637 1301 l 430 1075 l 357 1075 l 155 1304 l 272 1304 l 393 1174 l 503 1301 l 637 1301 z "},"ě":{"ha":758,"x_min":44,"x_max":713,"o":"m 703 351 l 180 351 q 250 155 180 223 q 408 95 311 95 q 593 159 519 95 l 647 66 q 555 15 617 37 q 383 -14 478 -14 q 151 79 246 -14 q 44 355 44 182 q 153 643 44 534 q 385 740 251 740 q 628 652 540 740 q 713 429 713 568 q 703 351 713 387 m 391 631 q 246 576 304 631 q 183 444 191 523 l 585 444 q 536 574 585 522 q 391 631 483 631 m 616 1098 l 410 871 l 337 871 l 135 1101 l 252 1101 l 372 970 l 483 1098 l 616 1098 z "},"Ĺ":{"ha":703,"x_min":102,"x_max":686,"o":"m 102 0 l 102 994 l 237 994 l 237 122 l 686 122 l 686 0 l 102 0 m 410 1301 l 256 1075 l 161 1075 l 276 1301 l 410 1301 z "},"ĺ":{"ha":410,"x_min":102,"x_max":369,"o":"m 102 205 l 102 1024 l 231 1024 l 231 227 q 264 135 231 169 q 352 102 298 102 l 352 -14 q 102 205 102 -14 m 369 1301 l 216 1075 l 121 1075 l 235 1301 l 369 1301 z "},"Ľ":{"ha":703,"x_min":102,"x_max":686,"o":"m 102 0 l 102 994 l 237 994 l 237 122 l 686 122 l 686 0 l 102 0 m 397 722 l 366 764 q 421 819 414 804 q 427 849 427 834 q 404 894 427 871 q 380 941 380 917 q 450 1011 380 1011 q 523 927 523 1011 q 397 722 523 800 z "},"ľ":{"ha":410,"x_min":102,"x_max":482,"o":"m 102 205 l 102 1024 l 231 1024 l 231 227 q 264 135 231 169 q 352 102 298 102 l 352 -14 q 102 205 102 -14 m 357 734 l 325 777 q 380 832 374 817 q 387 862 387 847 q 363 907 387 884 q 340 954 340 930 q 409 1024 340 1024 q 482 940 482 1024 q 357 734 482 812 z "},"Ŀ":{"ha":703,"x_min":102,"x_max":686,"o":"m 102 0 l 102 994 l 237 994 l 237 122 l 686 122 l 686 0 l 102 0 m 471 576 q 528 553 505 576 q 551 497 551 530 q 528 440 551 464 q 471 417 505 417 q 415 440 439 417 q 392 497 392 464 q 415 553 392 530 q 471 576 438 576 z "},"ŀ":{"ha":458,"x_min":102,"x_max":511,"o":"m 102 205 l 102 1024 l 231 1024 l 231 227 q 264 135 231 169 q 352 102 298 102 l 352 -14 q 102 205 102 -14 m 431 604 q 487 580 464 604 q 511 524 511 557 q 487 468 511 491 q 431 444 464 444 q 375 468 398 444 q 351 524 351 491 q 374 581 351 557 q 431 604 397 604 z "},"Ń":{"ha":886,"x_min":102,"x_max":785,"o":"m 744 -14 l 231 713 l 231 0 l 102 0 l 102 994 l 156 994 l 656 307 l 656 994 l 785 994 l 785 -14 l 744 -14 m 586 1301 l 433 1075 l 338 1075 l 452 1301 l 586 1301 z "},"ń":{"ha":759,"x_min":92,"x_max":667,"o":"m 538 0 l 538 422 q 504 585 538 538 q 387 631 469 631 q 294 605 342 631 q 220 540 246 578 l 220 0 l 92 0 l 92 726 l 180 726 l 220 633 q 429 740 284 740 q 667 450 667 740 l 667 0 l 538 0 m 538 1097 l 385 871 l 290 871 l 405 1097 l 538 1097 z "},"Ň":{"ha":886,"x_min":102,"x_max":785,"o":"m 744 -14 l 231 713 l 231 0 l 102 0 l 102 994 l 156 994 l 656 307 l 656 994 l 785 994 l 785 -14 l 744 -14 m 650 1301 l 444 1075 l 371 1075 l 169 1304 l 286 1304 l 406 1174 l 517 1301 l 650 1301 z "},"ň":{"ha":759,"x_min":92,"x_max":667,"o":"m 538 0 l 538 422 q 504 585 538 538 q 387 631 469 631 q 294 605 342 631 q 220 540 246 578 l 220 0 l 92 0 l 92 726 l 180 726 l 220 633 q 429 740 284 740 q 667 450 667 740 l 667 0 l 538 0 m 630 1098 l 423 871 l 351 871 l 149 1101 l 265 1101 l 386 970 l 496 1098 l 630 1098 z "},"Ő":{"ha":936,"x_min":54,"x_max":882,"o":"m 54 505 q 162 866 54 721 q 454 1011 271 1011 q 771 878 661 1011 q 882 505 882 744 q 771 122 882 260 q 454 -17 661 -17 q 160 130 267 -17 q 54 505 54 276 m 197 505 q 264 220 197 334 q 454 105 332 105 q 666 210 593 105 q 739 505 739 315 q 454 889 739 889 q 262 786 328 889 q 197 505 197 683 m 509 1267 l 374 1075 l 279 1075 l 375 1267 l 509 1267 m 760 1267 l 625 1075 l 530 1075 l 626 1267 l 760 1267 z "},"ő":{"ha":745,"x_min":44,"x_max":701,"o":"m 44 365 q 135 636 44 533 q 373 740 225 740 q 615 641 529 740 q 701 365 701 541 q 613 88 701 189 q 373 -14 525 -14 q 131 89 218 -14 q 44 365 44 191 m 180 365 q 373 92 180 92 q 514 165 463 92 q 566 365 566 238 q 373 635 566 635 q 232 563 285 635 q 180 365 180 491 m 420 1063 l 286 871 l 191 871 l 287 1063 l 420 1063 m 671 1063 l 536 871 l 441 871 l 538 1063 l 671 1063 z "},"Ŕ":{"ha":808,"x_min":109,"x_max":808,"o":"m 653 0 l 388 427 q 244 433 342 427 l 244 0 l 109 0 l 109 994 q 214 999 116 994 q 357 1004 312 1004 q 715 719 715 1004 q 657 550 715 625 q 520 457 600 475 l 808 0 l 653 0 m 244 871 l 244 549 q 339 542 293 542 q 517 581 461 542 q 572 722 572 621 q 513 842 572 805 q 324 878 453 878 q 244 871 304 878 m 505 1301 l 351 1075 l 256 1075 l 371 1301 l 505 1301 z "},"ŕ":{"ha":540,"x_min":102,"x_max":540,"o":"m 486 602 q 401 631 444 631 q 282 568 333 631 q 231 416 231 505 l 231 0 l 102 0 l 102 726 l 231 726 l 231 610 q 440 740 301 740 q 540 728 475 740 l 486 602 m 471 1097 l 317 871 l 222 871 l 337 1097 l 471 1097 z "},"Ř":{"ha":808,"x_min":109,"x_max":808,"o":"m 653 0 l 388 427 q 244 433 342 427 l 244 0 l 109 0 l 109 994 q 214 999 116 994 q 357 1004 312 1004 q 715 719 715 1004 q 657 550 715 625 q 520 457 600 475 l 808 0 l 653 0 m 244 871 l 244 549 q 339 542 293 542 q 517 581 461 542 q 572 722 572 621 q 513 842 572 805 q 324 878 453 878 q 244 871 304 878 m 624 1301 l 417 1075 l 345 1075 l 142 1304 l 259 1304 l 380 1174 l 490 1301 l 624 1301 z "},"ř":{"ha":540,"x_min":67,"x_max":549,"o":"m 486 602 q 401 631 444 631 q 282 568 333 631 q 231 416 231 505 l 231 0 l 102 0 l 102 726 l 231 726 l 231 610 q 440 740 301 740 q 540 728 475 740 l 486 602 m 549 1098 l 342 871 l 269 871 l 67 1101 l 184 1101 l 304 970 l 415 1098 l 549 1098 z "},"Ś":{"ha":668,"x_min":54,"x_max":613,"o":"m 57 45 l 106 170 q 201 124 144 142 q 302 105 258 105 q 430 149 382 105 q 478 259 478 192 q 451 352 478 309 q 317 446 425 395 l 237 484 q 95 596 135 531 q 54 753 54 661 q 133 937 54 864 q 335 1010 212 1010 q 564 957 500 1010 l 524 839 q 441 877 497 859 q 338 895 386 895 q 230 856 269 895 q 190 755 190 817 q 204 686 190 717 q 244 633 218 654 q 348 574 269 612 l 429 536 q 572 421 531 488 q 613 251 613 354 q 523 61 613 139 q 283 -17 433 -17 q 57 45 151 -17 m 515 1301 l 362 1075 l 267 1075 l 382 1301 l 515 1301 z "},"ś":{"ha":562,"x_min":44,"x_max":518,"o":"m 44 43 l 90 165 q 263 95 197 95 q 382 195 382 95 q 267 319 382 267 q 148 380 178 359 q 94 428 117 401 q 60 485 71 455 q 49 550 49 515 q 114 690 49 640 q 284 740 179 740 q 484 690 363 740 l 448 570 q 294 631 371 631 q 216 610 248 631 q 184 555 184 588 q 264 449 184 485 l 356 407 q 479 319 441 368 q 518 195 518 269 q 450 42 518 97 q 260 -14 381 -14 q 44 43 145 -14 m 444 1097 l 290 871 l 195 871 l 310 1097 l 444 1097 z "},"Ț":{"ha":806,"x_min":12,"x_max":794,"o":"m 464 871 l 464 0 l 328 0 l 328 871 l 12 871 l 12 994 l 794 994 l 794 871 l 464 871 m 342 -364 l 310 -321 q 365 -267 359 -282 q 372 -237 372 -252 q 348 -192 372 -214 q 325 -144 325 -169 q 394 -75 325 -75 q 467 -159 467 -75 q 342 -364 467 -286 z "},"ț":{"ha":551,"x_min":54,"x_max":518,"o":"m 138 625 l 54 625 l 54 726 l 138 726 l 138 878 l 267 928 l 267 726 l 466 726 l 466 625 l 267 625 l 267 264 q 297 134 267 172 q 397 95 328 95 q 499 120 446 95 l 518 7 q 342 -14 438 -14 q 197 51 256 -14 q 138 212 138 115 l 138 625 m 262 -364 l 230 -321 q 285 -267 279 -282 q 292 -237 292 -252 q 268 -192 292 -214 q 245 -144 245 -169 q 314 -75 245 -75 q 387 -159 387 -75 q 262 -364 387 -286 z "},"Ť":{"ha":806,"x_min":12,"x_max":794,"o":"m 464 871 l 464 0 l 328 0 l 328 871 l 12 871 l 12 994 l 794 994 l 794 871 l 464 871 m 644 1301 l 437 1075 l 364 1075 l 162 1304 l 279 1304 l 399 1174 l 510 1301 l 644 1301 z "},"ť":{"ha":689,"x_min":54,"x_max":674,"o":"m 138 625 l 54 625 l 54 726 l 138 726 l 138 878 l 267 928 l 267 726 l 466 726 l 466 625 l 267 625 l 267 264 q 297 134 267 172 q 397 95 328 95 q 499 120 446 95 l 518 7 q 342 -14 438 -14 q 197 51 256 -14 q 138 212 138 115 l 138 625 m 549 646 l 517 688 q 572 743 566 728 q 578 773 578 758 q 555 818 578 795 q 532 865 532 841 q 601 935 532 935 q 674 851 674 935 q 549 646 674 724 z "},"Ů":{"ha":901,"x_min":102,"x_max":799,"o":"m 102 994 l 237 994 l 237 313 q 295 164 237 222 q 448 105 353 105 q 606 162 548 105 q 663 317 663 219 l 663 994 l 799 994 l 799 302 q 705 67 799 152 q 449 -17 611 -17 q 192 66 282 -17 q 102 303 102 149 l 102 994 m 460 1291 q 561 1250 519 1291 q 603 1149 603 1208 q 561 1049 603 1090 q 460 1007 519 1007 q 358 1049 400 1007 q 316 1149 316 1090 q 358 1250 316 1208 q 460 1291 400 1291 m 460 1082 q 508 1102 488 1082 q 528 1149 528 1122 q 508 1197 528 1177 q 460 1217 488 1217 q 411 1197 431 1217 q 391 1149 391 1177 q 411 1102 391 1122 q 460 1082 431 1082 z "},"ů":{"ha":759,"x_min":85,"x_max":675,"o":"m 214 726 l 214 263 q 359 95 214 95 q 476 132 423 95 q 546 216 529 168 l 546 726 l 675 726 l 675 0 l 546 0 l 546 100 q 459 22 524 58 q 331 -14 393 -14 q 148 55 212 -14 q 85 250 85 123 l 85 726 l 214 726 m 399 1156 q 500 1114 458 1156 q 542 1014 542 1073 q 500 913 542 955 q 399 871 458 871 q 297 913 339 871 q 255 1014 255 955 q 297 1114 255 1073 q 399 1156 339 1156 m 399 946 q 447 966 427 946 q 467 1014 467 986 q 447 1061 467 1042 q 399 1081 427 1081 q 350 1061 370 1081 q 330 1014 330 1042 q 350 966 330 986 q 399 946 370 946 z "},"Ű":{"ha":901,"x_min":102,"x_max":799,"o":"m 102 994 l 237 994 l 237 313 q 295 164 237 222 q 448 105 353 105 q 606 162 548 105 q 663 317 663 219 l 663 994 l 799 994 l 799 302 q 705 67 799 152 q 449 -17 611 -17 q 192 66 282 -17 q 102 303 102 149 l 102 994 m 488 1267 l 353 1075 l 258 1075 l 355 1267 l 488 1267 m 739 1267 l 604 1075 l 509 1075 l 606 1267 l 739 1267 z "},"ű":{"ha":759,"x_min":85,"x_max":678,"o":"m 214 726 l 214 263 q 359 95 214 95 q 476 132 423 95 q 546 216 529 168 l 546 726 l 675 726 l 675 0 l 546 0 l 546 100 q 459 22 524 58 q 331 -14 393 -14 q 148 55 212 -14 q 85 250 85 123 l 85 726 l 214 726 m 427 1063 l 292 871 l 197 871 l 294 1063 l 427 1063 m 678 1063 l 543 871 l 448 871 l 545 1063 l 678 1063 z "},"Ź":{"ha":764,"x_min":68,"x_max":696,"o":"m 68 0 l 68 34 l 495 871 l 75 871 l 75 994 l 682 994 l 682 960 l 253 122 l 696 122 l 696 0 l 68 0 m 477 1301 l 323 1075 l 229 1075 l 343 1301 l 477 1301 z "},"ź":{"ha":659,"x_min":27,"x_max":632,"o":"m 229 115 l 632 115 l 632 0 l 27 0 l 27 34 l 440 611 l 34 611 l 34 726 l 628 726 l 628 690 l 229 115 m 456 1097 l 303 871 l 208 871 l 323 1097 l 456 1097 z "},"Ż":{"ha":764,"x_min":68,"x_max":696,"o":"m 68 0 l 68 34 l 495 871 l 75 871 l 75 994 l 682 994 l 682 960 l 253 122 l 696 122 l 696 0 l 68 0 m 335 1234 q 392 1211 368 1234 q 415 1155 415 1187 q 392 1098 415 1122 q 335 1075 368 1075 q 279 1098 302 1075 q 256 1155 256 1122 q 279 1211 256 1188 q 335 1234 302 1234 z "},"ż":{"ha":659,"x_min":27,"x_max":632,"o":"m 229 115 l 632 115 l 632 0 l 27 0 l 27 34 l 440 611 l 34 611 l 34 726 l 628 726 l 628 690 l 229 115 m 335 1031 q 392 1007 368 1031 q 415 951 415 984 q 392 895 415 918 q 335 871 368 871 q 279 895 302 871 q 256 951 256 918 q 279 1008 256 985 q 335 1031 302 1031 z "},"¤":{"ha":728,"x_min":38,"x_max":690,"o":"m 632 167 l 535 264 q 363 208 453 208 q 192 264 275 208 l 95 167 l 38 227 l 135 321 q 79 492 79 408 q 135 663 79 576 l 38 758 l 95 817 l 192 720 q 363 777 275 777 q 535 720 453 777 l 632 817 l 690 758 l 593 663 q 648 492 648 576 q 593 321 648 408 l 690 227 l 632 167 m 160 492 q 219 348 160 408 q 363 289 278 289 q 506 349 447 289 q 566 492 566 408 q 507 636 566 577 q 363 695 448 695 q 219 636 278 695 q 160 492 160 577 z "},";":{"ha":510,"x_min":117,"x_max":349,"o":"m 240 740 q 312 710 282 740 q 342 638 342 680 q 312 566 342 596 q 240 536 282 536 q 168 566 198 536 q 138 638 138 596 q 168 710 138 680 q 240 740 198 740 m 152 -246 l 117 -197 q 234 -35 234 -102 q 214 25 234 -5 q 155 105 155 53 q 183 164 155 141 q 253 188 211 188 q 320 155 290 188 q 349 79 349 123 q 312 -83 349 -11 q 152 -246 274 -155 z "},"΄":{"ha":728,"x_min":268,"x_max":496,"o":"m 496 1097 l 375 871 l 268 871 l 343 1097 l 496 1097 z "},"΅":{"ha":728,"x_min":90,"x_max":637,"o":"m 456 1097 l 376 857 l 297 857 l 336 1097 l 456 1097 m 558 1029 q 614 1008 591 1029 q 637 954 637 986 q 615 899 637 922 q 559 876 592 876 q 506 899 528 876 q 484 954 484 922 q 505 1008 484 987 q 558 1029 526 1029 m 243 954 l 244 954 q 222 899 244 922 q 168 876 200 876 q 113 899 135 876 q 90 954 90 922 q 112 1008 90 986 q 167 1029 134 1029 q 221 1008 199 1029 q 243 954 243 986 z "},"Ά":{"ha":819,"x_min":3,"x_max":817,"o":"m 665 0 l 597 210 l 228 210 l 154 0 l 3 0 l 406 1007 l 441 1007 l 817 0 l 665 0 m 418 747 l 264 310 l 558 310 l 418 747 m 253 993 l 142 755 l 37 755 l 106 993 l 253 993 z "},"·":{"ha":511,"x_min":140,"x_max":345,"o":"m 241 546 q 314 515 283 546 q 345 443 345 485 q 316 373 345 406 q 241 340 288 340 q 170 370 200 340 q 140 443 140 400 q 171 516 140 487 q 241 546 201 546 z "},"Έ":{"ha":897,"x_min":-64,"x_max":847,"o":"m 390 871 l 390 596 l 718 596 l 718 481 l 390 481 l 390 122 l 840 122 l 840 0 l 254 0 l 254 993 l 847 993 l 847 871 l 390 871 m 151 993 l 40 755 l -64 755 l 4 993 l 151 993 z "},"Ή":{"ha":1061,"x_min":-64,"x_max":960,"o":"m 823 0 l 823 481 l 390 481 l 390 0 l 254 0 l 254 993 l 390 993 l 390 596 l 823 596 l 823 993 l 960 993 l 960 0 l 823 0 m 151 993 l 40 755 l -64 755 l 4 993 l 151 993 z "},"Ί":{"ha":515,"x_min":-64,"x_max":390,"o":"m 254 0 l 254 993 l 390 993 l 390 0 l 254 0 m 151 993 l 40 755 l -64 755 l 4 993 l 151 993 z "},"Ό":{"ha":1006,"x_min":-64,"x_max":951,"o":"m 123 505 q 177 773 123 656 q 317 950 230 889 q 524 1011 404 1011 q 842 876 732 1011 q 951 505 951 741 q 841 123 951 262 q 524 -17 730 -17 q 229 130 334 -17 q 123 505 123 276 m 267 505 q 332 222 267 338 q 524 106 397 106 q 736 210 663 106 q 808 505 808 314 q 524 889 808 889 q 333 788 400 889 q 267 505 267 688 m 151 993 l 40 755 l -64 755 l 4 993 l 151 993 z "},"Ύ":{"ha":991,"x_min":-64,"x_max":1000,"o":"m 681 444 l 681 0 l 546 0 l 546 444 l 225 993 l 366 993 l 612 559 l 860 993 l 1000 993 l 681 444 m 151 993 l 40 755 l -64 755 l 4 993 l 151 993 z "},"Ώ":{"ha":1031,"x_min":-64,"x_max":982,"o":"m 982 0 l 606 0 l 606 35 q 767 287 711 166 q 823 538 823 407 q 751 802 823 709 q 549 895 680 895 q 349 797 420 895 q 277 545 277 699 q 333 295 277 416 q 494 35 389 173 l 494 0 l 118 0 l 118 117 q 307 110 242 117 q 134 543 134 320 q 248 881 134 746 q 550 1017 362 1017 q 856 887 746 1017 q 966 542 966 757 q 921 322 966 439 q 790 110 875 205 q 982 117 855 117 l 982 0 m 151 993 l 40 755 l -64 755 l 4 993 l 151 993 z "},"ΐ":{"ha":386,"x_min":-94,"x_max":452,"o":"m 328 -12 q 103 197 103 -12 l 103 726 l 233 726 l 233 214 q 328 96 233 103 l 328 -12 m 271 1097 l 191 857 l 113 857 l 151 1097 l 271 1097 m 374 1029 q 429 1008 406 1029 q 452 954 452 986 q 429 899 452 922 q 374 876 406 876 q 320 899 342 876 q 298 954 298 922 q 320 1008 298 986 q 374 1029 341 1029 m -18 1029 q 36 1008 14 1029 q 58 954 58 986 q 36 899 58 922 q -18 876 14 876 q -73 899 -51 876 q -94 954 -94 922 q -72 1008 -94 986 q -18 1029 -50 1029 z "},"Α":{"ha":819,"x_min":3,"x_max":817,"o":"m 665 0 l 597 210 l 228 210 l 154 0 l 3 0 l 406 1007 l 441 1007 l 817 0 l 665 0 m 418 747 l 264 310 l 558 310 l 418 747 z "},"Β":{"ha":786,"x_min":102,"x_max":732,"o":"m 385 0 l 102 0 l 102 993 q 363 1003 271 1003 q 589 940 507 1003 q 671 757 671 878 q 620 632 671 690 q 505 559 568 574 q 732 288 732 509 q 636 78 732 156 q 385 0 541 0 m 237 885 l 237 600 q 343 596 279 596 q 536 753 536 596 q 358 890 536 890 q 237 885 308 890 m 237 494 l 237 115 q 345 109 313 109 q 528 155 468 109 q 589 309 589 201 q 531 453 589 409 q 364 498 473 498 q 237 494 358 498 z "},"Γ":{"ha":708,"x_min":102,"x_max":681,"o":"m 681 871 l 239 871 l 239 0 l 102 0 l 102 993 l 681 993 l 681 871 z "},"Ε":{"ha":745,"x_min":102,"x_max":694,"o":"m 237 871 l 237 596 l 566 596 l 566 481 l 237 481 l 237 122 l 688 122 l 688 0 l 102 0 l 102 993 l 694 993 l 694 871 l 237 871 z "},"Ζ":{"ha":764,"x_min":68,"x_max":696,"o":"m 68 0 l 68 33 l 494 871 l 75 871 l 75 993 l 682 993 l 682 960 l 253 122 l 696 122 l 696 0 l 68 0 z "},"Η":{"ha":908,"x_min":102,"x_max":807,"o":"m 671 0 l 671 481 l 237 481 l 237 0 l 102 0 l 102 993 l 237 993 l 237 596 l 671 596 l 671 993 l 807 993 l 807 0 l 671 0 z "},"Θ":{"ha":960,"x_min":54,"x_max":905,"o":"m 484 1011 q 702 953 602 1011 q 854 774 802 895 q 905 505 905 654 q 787 123 905 262 q 478 -17 668 -17 q 167 123 280 -17 q 54 505 54 262 q 104 758 54 642 q 253 943 155 874 q 484 1011 351 1011 m 481 103 q 691 201 617 103 q 765 505 765 300 q 690 791 765 690 q 479 892 616 892 q 269 790 342 892 q 195 505 195 688 q 270 209 195 315 q 481 103 345 103 m 676 450 l 283 450 l 283 570 l 676 570 l 676 450 z "},"Ι":{"ha":386,"x_min":125,"x_max":261,"o":"m 125 0 l 125 993 l 261 993 l 261 0 l 125 0 z "},"Κ":{"ha":800,"x_min":102,"x_max":800,"o":"m 650 0 l 370 457 l 237 269 l 237 0 l 102 0 l 102 993 l 237 993 l 237 453 l 607 993 l 757 993 l 461 562 l 800 0 l 650 0 z "},"Λ":{"ha":814,"x_min":5,"x_max":808,"o":"m 808 0 l 656 0 l 412 726 l 157 0 l 5 0 l 399 1007 l 435 1007 l 808 0 z "},"Μ":{"ha":985,"x_min":14,"x_max":979,"o":"m 850 0 l 732 637 l 515 -14 l 481 -14 l 258 637 l 143 0 l 14 0 l 200 993 l 261 993 l 497 268 l 717 993 l 778 993 l 979 0 l 850 0 z "},"Ν":{"ha":886,"x_min":102,"x_max":785,"o":"m 745 -14 l 231 713 l 231 0 l 102 0 l 102 993 l 155 993 l 656 307 l 656 993 l 785 993 l 785 -14 l 745 -14 z "},"Ξ":{"ha":829,"x_min":69,"x_max":760,"o":"m 760 0 l 69 0 l 69 115 l 349 115 l 349 482 l 146 482 l 146 590 l 349 590 l 349 879 l 78 879 l 78 993 l 751 993 l 751 879 l 481 879 l 481 590 l 684 590 l 684 482 l 481 482 l 481 115 l 760 115 l 760 0 z "},"Ο":{"ha":936,"x_min":54,"x_max":882,"o":"m 54 505 q 162 866 54 722 q 454 1011 271 1011 q 772 876 663 1011 q 882 505 882 741 q 771 123 882 262 q 454 -17 661 -17 q 159 130 264 -17 q 54 505 54 276 m 197 505 q 264 219 197 333 q 454 106 331 106 q 667 210 594 106 q 739 505 739 314 q 454 889 739 889 q 264 788 331 889 q 197 505 197 688 z "},"Π":{"ha":882,"x_min":102,"x_max":781,"o":"m 781 0 l 644 0 l 644 871 l 237 871 l 237 0 l 102 0 l 102 993 l 781 993 l 781 0 z "},"Ρ":{"ha":775,"x_min":102,"x_max":721,"o":"m 237 382 l 237 0 l 102 0 l 102 993 q 288 1000 230 1000 q 721 711 721 1000 q 338 376 721 376 q 237 382 306 376 m 237 871 l 237 504 l 328 497 q 581 696 581 497 q 311 878 581 878 q 237 871 276 878 z "},"Σ":{"ha":753,"x_min":28,"x_max":705,"o":"m 705 871 l 288 871 l 541 543 l 241 122 l 700 122 l 700 0 l 28 0 l 28 33 l 382 529 l 54 961 l 54 993 l 705 993 l 705 871 z "},"Τ":{"ha":807,"x_min":12,"x_max":794,"o":"m 464 871 l 464 0 l 328 0 l 328 871 l 12 871 l 12 993 l 794 993 l 794 871 l 464 871 z "},"Υ":{"ha":791,"x_min":25,"x_max":800,"o":"m 481 444 l 481 0 l 346 0 l 346 444 l 25 993 l 165 993 l 412 559 l 660 993 l 800 993 l 481 444 z "},"Φ":{"ha":1059,"x_min":50,"x_max":1007,"o":"m 596 930 q 895 805 783 922 q 1007 511 1007 689 q 897 208 1007 330 q 596 78 786 86 l 596 -25 l 461 -25 l 461 78 q 162 204 275 87 q 50 500 50 322 q 160 802 50 681 q 461 930 271 922 l 461 1034 l 596 1034 l 596 930 m 595 183 q 799 277 727 189 q 871 509 871 364 q 799 733 871 646 q 595 825 726 819 l 595 183 m 463 183 l 463 825 q 258 733 330 819 q 186 503 186 646 q 258 277 186 365 q 463 183 331 189 z "},"Χ":{"ha":774,"x_min":8,"x_max":764,"o":"m 621 0 l 374 399 l 146 0 l 8 0 l 301 515 l 32 994 l 167 993 l 378 618 l 612 993 l 749 993 l 440 513 l 764 0 l 621 0 z "},"Ψ":{"ha":1074,"x_min":81,"x_max":993,"o":"m 993 615 q 890 356 993 456 q 606 239 787 256 l 606 -3 l 471 -3 l 471 237 q 184 348 287 250 q 81 604 81 446 l 81 993 l 215 993 l 215 616 q 282 432 215 506 q 472 349 349 359 l 472 993 l 604 993 l 604 349 q 792 432 726 359 q 859 611 859 505 l 859 993 l 993 993 l 993 615 z "},"Ϊ":{"ha":386,"x_min":-43,"x_max":432,"o":"m 125 0 l 125 993 l 261 993 l 261 0 l 125 0 m 354 1234 q 409 1211 387 1234 q 432 1157 432 1189 q 409 1102 432 1124 q 354 1080 387 1080 q 301 1102 322 1080 q 279 1157 279 1124 q 301 1212 279 1190 q 354 1234 322 1234 m 33 1234 q 88 1211 66 1234 q 110 1157 110 1189 q 88 1102 110 1124 q 33 1080 66 1080 q -21 1103 1 1080 q -43 1157 -43 1125 q -21 1211 -43 1189 q 33 1234 1 1234 z "},"Ϋ":{"ha":791,"x_min":25,"x_max":800,"o":"m 481 444 l 481 0 l 346 0 l 346 444 l 25 993 l 165 993 l 412 559 l 660 993 l 800 993 l 481 444 m 574 1234 q 628 1211 606 1234 q 650 1157 650 1189 q 628 1102 650 1124 q 574 1080 606 1080 q 519 1103 541 1080 q 497 1157 497 1125 q 519 1211 497 1189 q 574 1234 541 1234 m 252 1234 q 306 1211 283 1234 q 329 1157 329 1189 q 306 1103 329 1125 q 252 1080 283 1080 q 197 1103 219 1080 q 175 1157 175 1125 q 197 1212 175 1190 q 252 1234 219 1234 z "},"ά":{"ha":808,"x_min":54,"x_max":754,"o":"m 754 -12 q 624 9 663 -12 q 567 86 585 31 q 363 -14 493 -14 q 138 86 222 -14 q 54 359 54 185 q 146 634 54 527 q 392 741 239 741 q 574 665 493 741 q 636 724 598 708 q 746 741 673 741 l 746 667 q 697 629 711 653 q 684 555 684 606 l 684 189 q 701 102 684 129 q 754 65 718 75 l 754 -12 m 554 183 l 554 571 q 414 632 490 632 q 249 559 308 632 q 191 361 191 486 q 250 164 191 233 q 400 96 309 96 q 554 183 488 96 m 559 1097 l 439 871 l 332 871 l 407 1097 l 559 1097 z "},"έ":{"ha":648,"x_min":57,"x_max":608,"o":"m 608 71 q 336 -14 481 -14 q 130 43 203 -14 q 57 195 57 100 q 214 375 57 317 q 112 433 149 391 q 75 526 75 475 q 145 681 75 621 q 340 741 215 741 q 576 684 450 741 l 529 579 q 332 635 420 635 q 243 608 276 635 q 210 533 210 581 q 248 457 210 484 q 358 429 286 429 q 452 432 412 429 l 452 328 q 347 332 415 332 q 235 297 275 332 q 195 204 195 263 q 235 121 195 151 q 349 92 275 92 q 547 168 454 92 l 608 71 m 504 1097 l 383 871 l 277 871 l 351 1097 l 504 1097 z "},"ή":{"ha":764,"x_min":97,"x_max":667,"o":"m 667 -189 l 539 -221 l 539 422 q 501 587 539 543 q 390 632 463 632 q 298 603 343 632 q 227 534 252 574 l 227 0 l 97 0 l 97 726 l 184 726 l 225 636 q 433 741 302 741 q 607 664 547 741 q 667 441 667 588 l 667 -189 m 566 1097 l 444 871 l 338 871 l 412 1097 l 566 1097 z "},"ί":{"ha":386,"x_min":103,"x_max":332,"o":"m 328 -12 q 103 197 103 -12 l 103 726 l 233 726 l 233 214 q 328 96 233 103 l 328 -12 m 332 1097 l 211 871 l 104 871 l 179 1097 l 332 1097 z "},"ΰ":{"ha":765,"x_min":92,"x_max":669,"o":"m 669 315 q 598 64 669 140 q 376 -12 528 -12 q 161 66 230 -12 q 92 313 92 145 l 92 729 l 221 729 l 221 306 q 376 92 221 92 q 502 142 463 92 q 542 302 542 193 l 542 729 l 669 729 l 669 315 m 468 1097 l 387 857 l 310 857 l 349 1097 l 468 1097 m 571 1029 q 626 1008 604 1029 q 648 954 648 986 q 626 899 648 922 q 571 876 603 876 q 517 899 539 876 q 496 954 496 922 q 517 1008 496 986 q 571 1029 538 1029 m 179 1029 q 234 1008 212 1029 q 256 954 256 986 q 233 899 256 922 q 179 876 211 876 q 125 899 146 876 q 103 954 103 922 q 125 1008 103 986 q 179 1029 146 1029 z "},"α":{"ha":808,"x_min":54,"x_max":754,"o":"m 754 -12 q 624 9 663 -12 q 567 86 585 31 q 363 -14 493 -14 q 138 86 222 -14 q 54 359 54 185 q 146 634 54 527 q 392 741 239 741 q 574 665 493 741 q 636 724 598 708 q 746 741 673 741 l 746 667 q 697 629 711 653 q 684 555 684 606 l 684 189 q 701 102 684 129 q 754 65 718 75 l 754 -12 m 554 183 l 554 571 q 414 632 490 632 q 249 559 308 632 q 191 361 191 486 q 250 164 191 233 q 400 96 309 96 q 554 183 488 96 z "},"β":{"ha":783,"x_min":97,"x_max":728,"o":"m 482 575 q 665 479 602 552 q 728 298 728 406 q 640 74 728 162 q 416 -14 552 -14 q 207 58 279 -14 l 160 -12 l 97 -12 l 97 711 q 173 941 97 853 q 386 1028 250 1028 q 577 963 503 1028 q 652 790 652 897 q 605 660 652 719 q 482 575 557 600 m 224 616 l 334 616 q 470 664 418 616 q 522 787 522 712 q 485 887 522 848 q 383 925 447 925 q 266 871 307 925 q 224 717 224 817 l 224 616 m 224 160 q 298 109 253 128 q 386 90 344 90 q 539 145 483 90 q 595 294 595 201 q 527 456 595 395 q 329 517 459 517 l 224 517 l 224 160 z "},"γ":{"ha":754,"x_min":20,"x_max":741,"o":"m 741 726 l 450 28 l 450 -285 l 318 -285 l 318 17 q 188 413 246 264 q 97 592 129 562 q 20 623 65 623 l 20 732 q 145 712 102 732 q 221 646 189 693 q 300 468 254 599 q 393 170 347 338 l 603 726 l 741 726 z "},"δ":{"ha":768,"x_min":50,"x_max":707,"o":"m 399 920 q 539 762 429 896 q 678 543 650 627 q 707 363 707 459 q 620 91 707 195 q 378 -14 532 -14 q 136 89 222 -14 q 50 366 50 191 q 88 553 50 467 q 195 686 126 638 q 345 733 263 733 q 411 726 380 733 l 203 987 l 203 1023 l 669 1023 l 669 920 l 399 920 m 571 366 q 479 629 571 528 q 393 642 440 642 q 239 566 293 642 q 184 366 184 490 q 378 92 184 92 q 521 167 471 92 q 571 366 571 242 z "},"ε":{"ha":648,"x_min":57,"x_max":608,"o":"m 608 71 q 336 -14 481 -14 q 130 43 203 -14 q 57 195 57 100 q 214 375 57 317 q 112 433 149 391 q 75 526 75 475 q 145 681 75 621 q 340 741 215 741 q 576 684 450 741 l 529 579 q 332 635 420 635 q 243 608 276 635 q 210 533 210 581 q 248 457 210 484 q 358 429 286 429 q 452 432 410 429 l 452 328 q 347 332 415 332 q 235 297 275 332 q 195 204 195 263 q 235 121 195 151 q 349 92 275 92 q 547 168 454 92 l 608 71 z "},"ζ":{"ha":615,"x_min":50,"x_max":616,"o":"m 616 987 q 295 593 399 754 q 192 293 192 431 q 236 158 192 204 q 397 103 281 111 q 557 46 500 96 q 614 -87 614 -3 q 549 -230 614 -174 q 387 -285 485 -285 q 302 -275 342 -285 l 326 -171 q 393 -183 360 -183 q 463 -161 436 -183 q 490 -98 490 -138 q 468 -39 490 -61 q 414 -12 445 -18 q 319 -3 383 -7 q 123 74 196 1 q 50 277 50 148 q 133 563 50 415 q 416 918 216 711 l 147 918 l 147 1023 l 616 1023 l 616 987 z "},"η":{"ha":764,"x_min":97,"x_max":667,"o":"m 667 -189 l 539 -221 l 539 422 q 501 587 539 543 q 390 632 463 632 q 298 603 343 632 q 227 534 252 574 l 227 0 l 97 0 l 97 726 l 184 726 l 225 636 q 433 741 302 741 q 607 664 547 741 q 667 441 667 588 l 667 -189 z "},"θ":{"ha":755,"x_min":60,"x_max":696,"o":"m 380 1028 q 612 893 528 1028 q 696 513 696 759 q 613 121 696 255 q 375 -14 531 -14 q 143 119 227 -14 q 60 498 60 252 q 143 892 60 755 q 380 1028 227 1028 m 562 579 q 512 825 559 726 q 375 924 466 924 q 193 579 209 924 l 562 579 m 564 476 l 192 476 q 380 90 201 90 q 564 476 558 90 z "},"ι":{"ha":386,"x_min":103,"x_max":328,"o":"m 328 -12 q 103 197 103 -12 l 103 726 l 233 726 l 233 214 q 328 96 233 103 l 328 -12 z "},"κ":{"ha":757,"x_min":98,"x_max":729,"o":"m 729 0 l 561 0 l 336 329 l 228 208 l 228 0 l 98 0 l 98 726 l 228 726 l 228 367 l 528 726 l 692 726 l 421 421 l 729 0 z "},"λ":{"ha":736,"x_min":18,"x_max":721,"o":"m 721 0 l 578 0 l 393 589 l 161 0 l 18 0 l 334 739 q 281 878 307 834 q 199 921 256 921 q 109 896 163 921 l 74 1004 q 215 1028 153 1028 q 366 972 317 1028 q 447 819 415 916 l 721 0 z "},"ν":{"ha":692,"x_min":14,"x_max":677,"o":"m 677 726 l 359 -14 l 326 -14 l 14 726 l 158 726 l 349 227 l 539 726 l 677 726 z "},"ξ":{"ha":639,"x_min":53,"x_max":628,"o":"m 549 507 l 431 507 q 268 445 343 507 q 193 277 193 382 q 237 153 193 195 q 408 102 281 110 q 570 47 512 96 q 628 -87 628 -2 q 564 -229 628 -173 q 401 -285 499 -285 q 309 -275 349 -285 l 332 -171 q 407 -183 367 -183 q 477 -161 450 -183 q 504 -98 504 -138 q 474 -31 504 -53 q 398 -6 444 -9 l 332 -3 q 129 71 205 1 q 53 260 53 140 q 111 441 53 363 q 273 555 170 518 q 140 628 189 571 q 92 766 92 686 q 176 957 92 886 q 395 1028 260 1028 q 602 987 503 1028 l 559 879 q 389 922 484 922 q 271 885 314 922 q 228 779 228 847 q 287 656 228 701 q 452 612 347 612 l 549 612 l 549 507 z "},"ο":{"ha":757,"x_min":50,"x_max":707,"o":"m 379 741 q 621 640 535 741 q 707 366 707 539 q 616 86 707 186 q 379 -14 526 -14 q 137 88 224 -14 q 50 366 50 190 q 141 637 50 533 q 379 741 232 741 m 379 92 q 520 167 470 92 q 571 366 571 242 q 379 635 571 635 q 237 562 289 635 q 184 366 184 488 q 379 92 184 92 z "},"ρ":{"ha":793,"x_min":87,"x_max":737,"o":"m 87 -285 l 87 310 q 174 636 87 532 q 407 741 261 741 q 650 637 562 741 q 737 364 737 534 q 649 91 737 196 q 410 -14 561 -14 q 216 43 288 -14 l 216 -285 l 87 -285 m 220 147 q 380 94 285 94 q 545 162 488 94 q 602 358 602 230 q 549 562 602 489 q 407 635 496 635 q 269 556 319 635 q 220 349 220 477 l 220 147 z "},"ς":{"ha":637,"x_min":50,"x_max":633,"o":"m 559 586 q 410 632 491 632 q 245 558 306 632 q 184 355 184 484 q 416 117 184 163 q 581 46 528 94 q 633 -87 633 -1 q 570 -229 633 -174 q 410 -285 506 -285 q 323 -275 363 -285 l 346 -171 q 414 -183 380 -183 q 484 -161 458 -183 q 510 -98 510 -139 q 484 -30 510 -56 q 364 9 457 -3 q 132 120 214 29 q 50 355 50 211 q 151 637 50 533 q 416 741 251 741 q 616 679 532 741 l 559 586 z "},"σ":{"ha":791,"x_min":50,"x_max":761,"o":"m 761 619 l 545 619 q 668 483 624 559 q 711 328 711 406 q 623 84 711 181 q 382 -14 534 -14 q 139 85 229 -14 q 50 346 50 184 q 149 622 50 517 q 411 726 248 726 l 761 726 l 761 619 m 575 326 q 530 488 575 408 q 414 619 485 568 q 244 549 304 619 q 184 354 184 479 q 238 163 184 235 q 387 92 291 92 q 527 157 478 92 q 575 326 575 223 z "},"τ":{"ha":614,"x_min":25,"x_max":585,"o":"m 585 618 l 338 618 l 338 205 q 356 123 338 150 q 418 97 375 97 q 490 114 449 97 l 507 5 q 393 -12 449 -12 q 256 39 304 -12 q 208 186 208 90 l 208 618 l 25 618 l 25 726 l 585 726 l 585 618 z "},"υ":{"ha":765,"x_min":93,"x_max":672,"o":"m 672 317 q 375 -12 672 -12 q 162 68 232 -12 q 93 315 93 149 l 93 726 l 222 726 l 222 304 q 379 92 222 92 q 504 142 465 92 q 543 301 543 192 l 543 726 l 672 726 l 672 317 z "},"φ":{"ha":981,"x_min":52,"x_max":926,"o":"m 427 89 l 427 472 q 484 676 427 610 q 639 742 541 742 q 847 636 768 742 q 926 372 926 531 q 829 106 926 211 q 554 -12 732 1 l 554 -285 l 425 -285 l 425 -12 q 148 96 244 -3 q 52 355 52 195 q 106 579 52 477 q 264 742 161 681 l 334 653 q 182 350 182 546 q 248 170 182 241 q 427 89 315 98 m 553 87 q 732 170 667 98 q 798 357 798 242 q 753 557 798 476 q 639 639 708 639 q 553 494 553 639 l 553 87 z "},"χ":{"ha":707,"x_min":14,"x_max":693,"o":"m 693 0 l 533 0 l 347 278 l 167 0 l 14 0 l 283 372 l 36 726 l 187 726 l 350 471 l 522 726 l 668 726 l 412 378 l 693 0 z "},"ψ":{"ha":1000,"x_min":90,"x_max":909,"o":"m 909 364 q 823 99 909 196 q 567 -12 736 1 l 567 -285 l 437 -285 l 437 -12 q 90 358 90 12 l 90 726 l 220 726 l 220 355 q 275 170 220 241 q 439 89 331 100 l 439 726 l 566 726 l 566 87 q 728 168 673 98 q 783 354 783 237 l 783 726 l 909 726 l 909 364 z "},"ω":{"ha":1055,"x_min":54,"x_max":1002,"o":"m 799 746 q 1002 329 1002 578 q 930 78 1002 169 q 725 -14 858 -14 q 528 119 591 -14 q 329 -14 459 -14 q 126 76 198 -14 q 54 321 54 165 q 260 746 54 577 l 346 667 q 227 512 269 602 q 186 326 186 422 q 226 152 186 213 q 338 92 266 92 q 392 105 368 92 q 440 158 416 119 q 465 208 465 197 l 465 343 q 460 525 465 452 l 593 525 q 587 347 587 459 l 587 224 q 648 121 614 150 q 734 92 681 92 q 869 323 869 92 q 708 665 869 526 l 799 746 z "},"ϊ":{"ha":386,"x_min":-65,"x_max":408,"o":"m 328 -12 q 103 197 103 -12 l 103 726 l 233 726 l 233 214 q 328 96 233 103 l 328 -12 m 332 1029 q 386 1008 364 1029 q 408 954 408 986 q 387 899 408 922 q 332 876 365 876 q 278 899 300 876 q 256 954 256 922 q 278 1008 256 986 q 332 1029 300 1029 m 11 1029 q 65 1008 43 1029 q 86 954 86 986 q 65 899 86 922 q 11 876 43 876 q -43 899 -22 876 q -65 954 -65 922 q -43 1008 -65 986 q 11 1029 -21 1029 z "},"ϋ":{"ha":765,"x_min":92,"x_max":669,"o":"m 669 315 q 598 64 669 140 q 376 -12 528 -12 q 161 66 230 -12 q 92 313 92 145 l 92 729 l 221 729 l 221 306 q 376 92 221 92 q 502 142 463 92 q 542 302 542 193 l 542 729 l 669 729 l 669 315 m 542 1029 q 596 1008 574 1029 q 618 954 618 986 q 596 899 618 922 q 542 876 574 876 q 488 899 510 876 q 465 954 465 922 q 487 1008 465 986 q 542 1029 509 1029 m 221 1029 q 275 1008 253 1029 q 297 954 297 986 q 275 899 297 922 q 221 876 253 876 q 166 899 189 876 q 144 954 144 922 q 166 1008 144 986 q 221 1029 189 1029 z "},"ό":{"ha":757,"x_min":50,"x_max":707,"o":"m 379 741 q 621 640 535 741 q 707 366 707 539 q 616 86 707 186 q 379 -14 526 -14 q 137 88 224 -14 q 50 366 50 190 q 141 637 50 533 q 379 741 232 741 m 379 92 q 520 167 470 92 q 571 366 571 242 q 379 635 571 635 q 237 562 289 635 q 184 366 184 488 q 379 92 184 92 m 542 1097 l 421 871 l 314 871 l 393 1097 l 542 1097 z "},"ύ":{"ha":765,"x_min":93,"x_max":672,"o":"m 672 317 q 375 -12 672 -12 q 162 68 232 -12 q 93 315 93 149 l 93 726 l 222 726 l 222 304 q 379 92 222 92 q 504 142 465 92 q 543 301 543 192 l 543 726 l 672 726 l 672 317 m 549 1097 l 428 871 l 318 871 l 387 1097 l 549 1097 z "},"ώ":{"ha":1055,"x_min":54,"x_max":1002,"o":"m 799 746 q 950 555 899 663 q 1002 329 1002 448 q 930 77 1002 168 q 725 -14 858 -14 q 528 119 591 -14 q 329 -14 459 -14 q 126 76 198 -14 q 54 321 54 165 q 260 746 54 577 l 346 667 q 227 512 269 602 q 186 326 186 422 q 226 152 186 213 q 338 92 266 92 q 392 105 368 92 q 441 158 416 118 q 465 208 465 197 l 465 343 q 460 525 465 452 l 593 525 q 587 347 587 459 l 587 224 q 648 121 614 150 q 734 92 681 92 q 869 323 869 92 q 708 665 869 525 l 799 746 m 700 1097 l 579 871 l 472 871 l 547 1097 l 700 1097 z "},"Ё":{"ha":754,"x_min":102,"x_max":694,"o":"m 237 871 l 237 596 l 566 596 l 566 481 l 237 481 l 237 122 l 688 122 l 688 0 l 102 0 l 102 993 l 694 993 l 694 871 l 237 871 m 542 1229 q 595 1207 572 1229 q 618 1153 618 1186 q 596 1099 618 1121 q 542 1076 574 1076 q 487 1100 508 1076 q 465 1153 465 1123 q 490 1209 465 1190 q 542 1229 515 1229 m 271 1229 q 325 1207 302 1229 q 347 1153 347 1185 q 326 1099 347 1122 q 271 1076 304 1076 q 216 1100 237 1076 q 195 1153 195 1123 q 217 1206 195 1184 q 271 1229 239 1229 z "},"Ђ":{"ha":1013,"x_min":39,"x_max":964,"o":"m 964 296 q 928 134 964 202 q 827 30 892 66 q 686 -7 762 -7 q 600 -1 640 -7 l 600 111 q 672 106 646 106 q 783 153 742 106 q 823 288 823 201 l 823 307 q 769 449 823 399 q 616 498 715 498 q 449 482 530 498 l 449 0 l 314 0 l 314 873 l 39 873 l 39 993 l 770 993 l 770 873 l 449 873 l 449 593 q 615 610 527 610 q 872 531 781 610 q 964 306 964 452 l 964 296 z "},"Ѓ":{"ha":722,"x_min":102,"x_max":681,"o":"m 681 871 l 239 871 l 239 0 l 102 0 l 102 993 l 681 993 l 681 871 m 589 1301 l 436 1075 l 342 1075 l 456 1301 l 589 1301 z "},"Є":{"ha":812,"x_min":54,"x_max":777,"o":"m 777 100 q 472 -17 659 -17 q 165 125 275 -17 q 54 493 54 267 q 172 861 54 711 q 493 1011 290 1011 q 736 957 625 1011 l 690 842 q 488 893 600 893 q 295 811 370 893 q 199 581 220 729 l 568 581 l 568 471 l 192 471 q 277 201 199 301 q 486 102 356 102 q 701 203 623 102 l 777 100 z "},"Ѕ":{"ha":673,"x_min":57,"x_max":615,"o":"m 60 46 l 110 171 q 205 124 149 142 q 306 106 260 106 q 431 148 382 106 q 481 260 481 189 q 456 349 481 313 q 395 406 431 385 q 296 456 359 428 q 171 522 218 491 q 90 609 123 553 q 57 753 57 665 q 138 941 57 870 q 338 1011 219 1011 q 567 957 501 1011 l 526 839 q 437 880 492 863 q 342 896 382 896 q 234 857 275 896 q 193 754 193 819 q 217 668 193 703 q 275 613 240 634 q 371 566 310 593 q 498 499 450 531 q 581 407 547 467 q 615 252 615 347 q 519 56 615 129 q 286 -17 424 -17 q 60 46 154 -17 z "},"І":{"ha":386,"x_min":125,"x_max":261,"o":"m 125 0 l 125 993 l 261 993 l 261 0 l 125 0 z "},"Ї":{"ha":386,"x_min":-20,"x_max":404,"o":"m 125 0 l 125 993 l 261 993 l 261 0 l 125 0 m 328 1229 q 381 1207 359 1229 q 404 1154 404 1186 q 383 1100 404 1124 q 328 1076 361 1076 q 275 1099 298 1076 q 252 1154 252 1122 q 274 1206 252 1184 q 328 1229 296 1229 m 58 1229 q 112 1207 90 1229 q 134 1154 134 1185 q 110 1099 134 1121 q 58 1076 87 1076 q 4 1099 27 1076 q -20 1154 -20 1122 q 2 1206 -20 1184 q 58 1229 24 1229 z "},"Ј":{"ha":652,"x_min":31,"x_max":557,"o":"m 31 199 l 149 199 q 257 109 165 109 q 388 151 353 109 q 422 366 422 193 l 422 993 l 557 993 l 557 371 q 486 69 557 152 q 258 -14 415 -14 q 99 43 162 -14 q 31 199 37 100 z "},"Љ":{"ha":1349,"x_min":21,"x_max":1292,"o":"m 812 616 q 928 624 887 624 q 1196 544 1100 624 q 1292 315 1292 464 q 1195 84 1292 169 q 942 0 1097 0 l 679 0 l 679 873 l 496 873 q 391 419 450 618 q 274 134 332 221 q 158 19 216 46 q 21 -8 101 -8 l 21 115 q 115 145 75 115 q 208 288 155 176 q 303 571 260 401 q 399 993 347 741 l 812 993 l 812 616 m 811 115 q 914 109 867 109 q 1156 318 1156 109 q 1095 463 1156 413 q 922 513 1034 513 q 811 505 872 513 l 811 115 z "},"Њ":{"ha":1268,"x_min":102,"x_max":1211,"o":"m 732 616 q 847 624 806 624 q 1115 544 1019 624 q 1211 315 1211 464 q 1114 84 1211 169 q 861 0 1017 0 l 599 0 l 599 481 l 235 481 l 235 0 l 102 0 l 102 993 l 235 993 l 235 596 l 599 596 l 599 993 l 732 993 l 732 616 m 730 115 q 833 109 786 109 q 1075 318 1075 109 q 1015 462 1075 412 q 842 513 954 513 q 730 505 791 513 l 730 115 z "},"Ћ":{"ha":1031,"x_min":39,"x_max":945,"o":"m 945 0 l 807 0 l 807 310 q 755 450 807 402 q 604 498 703 498 q 449 482 535 498 l 449 0 l 314 0 l 314 873 l 39 873 l 39 993 l 766 993 l 766 873 l 449 873 l 449 593 q 603 610 529 610 q 854 531 764 610 q 945 309 945 453 l 945 0 z "},"Ќ":{"ha":850,"x_min":102,"x_max":787,"o":"m 787 -4 q 737 -7 777 -7 q 613 37 652 -7 q 555 187 574 81 q 455 400 531 333 q 243 467 379 467 l 237 467 l 237 0 l 102 0 l 102 993 l 237 993 l 237 582 l 250 582 q 454 641 377 582 q 550 811 531 699 q 605 955 567 911 q 725 999 644 999 q 772 996 751 999 l 772 879 q 745 880 768 880 q 705 863 719 880 q 679 786 691 846 q 598 621 660 690 q 443 525 536 551 q 692 220 648 454 q 720 133 705 152 q 758 114 735 114 q 787 117 772 114 l 787 -4 m 615 1301 l 463 1075 l 368 1075 l 482 1301 l 615 1301 z "},"Ў":{"ha":802,"x_min":9,"x_max":793,"o":"m 793 993 q 589 424 705 662 q 358 88 472 185 q 90 -9 245 -9 l 90 122 q 350 278 254 122 l 9 993 l 164 993 l 433 387 q 646 993 572 670 l 793 993 m 660 1280 q 416 1072 614 1072 q 174 1280 219 1072 l 289 1307 q 416 1168 314 1168 q 550 1305 532 1168 l 660 1280 z "},"Џ":{"ha":882,"x_min":102,"x_max":781,"o":"m 781 0 l 504 0 l 504 -285 l 378 -285 l 378 0 l 102 0 l 102 993 l 237 993 l 237 121 l 644 121 l 644 993 l 781 993 l 781 0 z "},"А":{"ha":825,"x_min":5,"x_max":819,"o":"m 668 0 l 600 210 l 231 210 l 157 0 l 5 0 l 408 1007 l 444 1007 l 819 0 l 668 0 m 421 747 l 267 310 l 561 310 l 421 747 z "},"Б":{"ha":790,"x_min":102,"x_max":733,"o":"m 237 600 q 367 607 313 607 q 638 530 543 607 q 733 307 733 452 q 636 81 733 163 q 380 0 540 0 l 102 0 l 102 993 l 664 993 l 664 875 l 237 875 l 237 600 m 237 115 q 351 109 330 109 q 590 311 590 109 q 358 497 590 497 q 237 490 298 497 l 237 115 z "},"В":{"ha":789,"x_min":102,"x_max":732,"o":"m 385 0 l 102 0 l 102 993 q 363 1003 271 1003 q 589 940 507 1003 q 671 757 671 878 q 620 632 671 690 q 505 559 568 574 q 732 288 732 509 q 636 78 732 156 q 385 0 541 0 m 237 885 l 237 600 q 343 596 279 596 q 536 753 536 596 q 358 890 536 890 q 237 885 308 890 m 237 494 l 237 115 q 345 109 313 109 q 528 155 468 109 q 589 309 589 201 q 531 453 589 409 q 364 498 473 498 q 237 494 358 498 z "},"Г":{"ha":722,"x_min":102,"x_max":681,"o":"m 681 871 l 239 871 l 239 0 l 102 0 l 102 993 l 681 993 l 681 871 z "},"Д":{"ha":960,"x_min":20,"x_max":929,"o":"m 929 -285 l 806 -285 l 806 0 l 143 0 l 143 -285 l 20 -285 l 20 114 l 78 114 q 236 370 174 240 q 336 629 298 500 q 424 993 374 759 l 823 993 l 823 114 l 929 114 l 929 -285 m 693 114 l 693 879 l 517 879 q 218 114 427 402 l 693 114 z "},"Е":{"ha":754,"x_min":102,"x_max":694,"o":"m 237 871 l 237 596 l 566 596 l 566 481 l 237 481 l 237 122 l 688 122 l 688 0 l 102 0 l 102 993 l 694 993 l 694 871 l 237 871 z "},"Ж":{"ha":1240,"x_min":60,"x_max":1181,"o":"m 1181 -4 q 1135 -7 1170 -7 q 1014 37 1052 -7 q 958 189 976 81 q 870 405 934 341 q 690 469 806 469 l 690 0 l 557 0 l 557 469 q 369 405 435 469 q 279 189 303 340 q 224 39 262 84 q 107 -7 186 -7 q 60 -4 70 -7 l 60 117 q 89 114 75 114 q 134 143 119 114 q 155 220 148 172 q 230 411 176 339 q 379 522 285 484 q 165 786 201 568 q 146 856 158 831 q 102 880 134 880 q 72 879 77 880 l 72 996 q 118 999 94 999 q 238 954 199 999 q 293 810 277 909 q 375 635 313 690 q 557 581 438 581 l 557 993 l 690 993 l 690 581 q 868 636 805 581 q 950 810 931 692 q 1004 954 966 909 q 1122 999 1042 999 q 1168 996 1146 999 l 1168 879 q 1137 880 1162 880 q 1101 863 1116 880 q 1075 786 1086 846 q 1000 620 1057 688 q 859 525 944 551 q 1012 413 957 484 q 1088 220 1067 341 q 1108 144 1095 174 q 1152 114 1121 114 q 1181 117 1165 114 l 1181 -4 z "},"З":{"ha":729,"x_min":36,"x_max":672,"o":"m 467 536 q 619 446 566 510 q 672 290 672 382 q 574 66 672 149 q 310 -17 477 -17 q 36 49 137 -17 l 86 172 q 321 100 192 100 q 477 151 419 100 q 534 285 534 201 q 469 429 534 378 q 289 481 404 481 q 204 478 254 481 l 204 591 q 301 589 258 589 q 453 633 397 589 q 510 755 510 678 q 461 862 510 823 q 332 900 412 900 q 114 838 229 900 l 72 950 q 339 1011 195 1011 q 560 944 480 1011 q 640 754 640 878 q 592 623 640 685 q 467 536 545 562 z "},"И":{"ha":933,"x_min":102,"x_max":832,"o":"m 832 0 l 696 0 l 696 713 l 138 -14 l 102 -14 l 102 993 l 237 993 l 237 281 l 796 1007 l 832 1007 l 832 0 z "},"Й":{"ha":933,"x_min":102,"x_max":832,"o":"m 832 0 l 696 0 l 696 713 l 138 -14 l 102 -14 l 102 993 l 237 993 l 237 281 l 796 1007 l 832 1007 l 832 0 m 736 1280 q 493 1072 690 1072 q 250 1280 296 1072 l 366 1307 q 493 1168 391 1168 q 627 1305 608 1168 l 736 1280 z "},"К":{"ha":850,"x_min":102,"x_max":787,"o":"m 787 -4 q 737 -7 777 -7 q 613 37 652 -7 q 555 187 574 81 q 455 400 531 333 q 243 467 379 467 l 237 467 l 237 0 l 102 0 l 102 993 l 237 993 l 237 582 l 250 582 q 454 641 377 582 q 550 811 531 699 q 605 955 567 911 q 725 999 644 999 q 772 996 751 999 l 772 879 q 745 880 768 880 q 705 863 719 880 q 679 786 691 846 q 598 621 660 690 q 443 525 536 551 q 692 220 648 454 q 720 133 705 152 q 758 114 735 114 q 787 117 772 114 l 787 -4 z "},"Л":{"ha":933,"x_min":21,"x_max":832,"o":"m 832 0 l 696 0 l 696 873 l 476 873 q 422 512 455 678 q 338 233 389 346 q 242 72 286 120 q 148 7 197 24 q 21 -9 98 -9 l 21 118 q 101 135 68 118 q 172 202 135 151 q 253 378 209 254 q 323 656 296 503 q 372 993 351 809 l 832 993 l 832 0 z "},"М":{"ha":1032,"x_min":33,"x_max":999,"o":"m 869 0 l 750 642 l 530 -14 l 496 -14 l 279 642 l 163 0 l 33 0 l 227 993 l 286 993 l 517 269 l 746 993 l 804 993 l 999 0 l 869 0 z "},"Н":{"ha":908,"x_min":102,"x_max":807,"o":"m 671 0 l 671 481 l 237 481 l 237 0 l 102 0 l 102 993 l 237 993 l 237 596 l 671 596 l 671 993 l 807 993 l 807 0 l 671 0 z "},"О":{"ha":936,"x_min":54,"x_max":882,"o":"m 54 505 q 162 866 54 722 q 454 1011 271 1011 q 772 876 663 1011 q 882 505 882 741 q 771 123 882 262 q 454 -17 661 -17 q 159 130 264 -17 q 54 505 54 276 m 197 505 q 264 219 197 333 q 454 106 331 106 q 667 210 594 106 q 739 505 739 314 q 454 889 739 889 q 264 788 331 889 q 197 505 197 688 z "},"П":{"ha":882,"x_min":102,"x_max":781,"o":"m 781 0 l 644 0 l 644 871 l 237 871 l 237 0 l 102 0 l 102 993 l 781 993 l 781 0 z "},"Р":{"ha":775,"x_min":102,"x_max":721,"o":"m 237 382 l 237 0 l 102 0 l 102 993 q 288 1000 230 1000 q 721 711 721 1000 q 338 376 721 376 q 237 382 306 376 m 237 871 l 237 504 l 328 497 q 581 696 581 497 q 311 878 581 878 q 237 871 276 878 z "},"С":{"ha":818,"x_min":54,"x_max":777,"o":"m 736 957 l 690 840 q 486 889 626 889 q 274 773 350 889 q 197 486 197 656 q 275 215 197 325 q 488 106 352 106 q 701 204 626 106 l 777 100 q 472 -17 658 -17 q 165 125 275 -17 q 54 493 54 267 q 171 861 54 710 q 482 1011 288 1011 q 736 957 642 1011 z "},"Т":{"ha":860,"x_min":39,"x_max":821,"o":"m 490 871 l 490 0 l 354 0 l 354 871 l 39 871 l 39 993 l 821 993 l 821 871 l 490 871 z "},"У":{"ha":802,"x_min":9,"x_max":793,"o":"m 793 993 q 589 424 705 662 q 358 88 472 185 q 90 -9 245 -9 l 90 122 q 350 278 254 122 l 9 993 l 164 993 l 433 387 q 646 993 572 670 l 793 993 z "},"Ф":{"ha":1025,"x_min":50,"x_max":975,"o":"m 579 899 q 866 782 758 890 q 975 511 975 674 q 868 230 975 345 q 579 107 761 115 l 579 -14 l 446 -14 l 446 107 q 159 224 268 115 q 50 497 50 334 q 157 777 50 663 q 446 899 264 890 l 446 1014 l 579 1014 l 579 899 m 578 211 q 773 298 703 216 q 843 507 843 380 q 772 709 843 628 q 578 794 702 789 l 578 211 m 447 211 l 447 794 q 252 709 322 789 q 182 501 182 628 q 252 298 182 380 q 447 211 323 216 z "},"Х":{"ha":783,"x_min":14,"x_max":770,"o":"m 627 0 l 379 399 l 151 0 l 14 0 l 307 515 l 37 994 l 172 993 l 383 618 l 618 993 l 754 993 l 446 513 l 770 0 l 627 0 z "},"Ц":{"ha":904,"x_min":102,"x_max":873,"o":"m 873 -285 l 750 -285 l 750 0 l 102 0 l 102 993 l 237 993 l 237 121 l 629 121 l 629 993 l 765 993 l 765 121 l 873 121 l 873 -285 z "},"Ч":{"ha":829,"x_min":81,"x_max":728,"o":"m 728 0 l 593 0 l 593 400 q 411 378 496 378 q 168 460 254 378 q 81 694 81 543 l 81 993 l 218 993 l 218 710 q 270 546 218 602 q 421 490 322 490 q 593 513 506 490 l 593 993 l 728 993 l 728 0 z "},"Ш":{"ha":1242,"x_min":102,"x_max":1140,"o":"m 1140 0 l 102 0 l 102 993 l 232 993 l 232 115 l 555 115 l 555 993 l 686 993 l 686 115 l 1010 115 l 1010 993 l 1140 993 l 1140 0 z "},"Щ":{"ha":1278,"x_min":102,"x_max":1247,"o":"m 1247 -285 l 1125 -285 l 1125 0 l 102 0 l 102 993 l 232 993 l 232 115 l 555 115 l 555 993 l 686 993 l 686 115 l 1010 115 l 1010 993 l 1140 993 l 1140 115 l 1247 115 l 1247 -285 z "},"Ъ":{"ha":1028,"x_min":39,"x_max":971,"o":"m 473 615 q 606 623 550 623 q 876 543 780 623 q 971 315 971 464 q 873 84 971 168 q 618 0 776 0 l 338 0 l 338 872 l 39 872 l 39 993 l 473 993 l 473 615 m 473 115 q 589 109 567 109 q 828 318 828 109 q 768 462 828 413 q 597 511 709 511 q 473 504 534 511 l 473 115 z "},"Ы":{"ha":1086,"x_min":102,"x_max":985,"o":"m 985 0 l 851 0 l 851 993 l 985 993 l 985 0 m 235 616 q 361 624 309 624 q 629 544 533 624 q 725 315 725 464 q 628 84 725 169 q 375 0 531 0 l 102 0 l 102 993 l 235 993 l 235 616 m 233 114 q 347 107 294 107 q 589 318 589 107 q 528 463 589 412 q 355 514 468 514 q 233 507 294 514 l 233 114 z "},"Ь":{"ha":800,"x_min":102,"x_max":743,"o":"m 237 615 q 378 623 314 623 q 648 543 552 623 q 743 315 743 464 q 646 84 743 168 q 390 0 548 0 l 102 0 l 102 993 l 237 993 l 237 615 m 237 115 q 361 109 294 109 q 600 318 600 109 q 541 462 600 412 q 370 511 481 511 q 237 504 299 511 l 237 115 z "},"Э":{"ha":815,"x_min":36,"x_max":761,"o":"m 72 945 q 338 1011 189 1011 q 648 870 536 1011 q 761 503 761 729 q 647 130 761 277 q 330 -17 534 -17 q 36 77 154 -17 l 96 196 q 317 102 196 102 q 536 199 455 102 q 624 471 616 296 l 245 471 l 245 581 l 619 581 q 528 807 606 722 q 335 893 450 893 q 129 831 223 893 l 72 945 z "},"Ю":{"ha":1227,"x_min":102,"x_max":1174,"o":"m 399 596 q 522 900 422 788 q 775 1011 622 1011 q 1072 874 969 1011 q 1174 505 1174 736 q 1124 227 1174 345 q 988 46 1075 109 q 771 -17 901 -17 q 499 117 599 -17 q 393 482 399 250 l 233 482 l 233 0 l 102 0 l 102 993 l 233 993 l 233 596 l 399 596 m 774 102 q 969 205 903 102 q 1035 505 1035 309 q 968 794 1035 695 q 772 893 902 893 q 591 787 654 893 q 529 505 529 680 q 595 208 529 315 q 774 102 662 102 z "},"Я":{"ha":831,"x_min":40,"x_max":729,"o":"m 729 0 l 595 0 l 595 431 l 536 432 q 345 373 412 432 q 253 174 278 314 q 197 31 234 68 q 81 -7 161 -7 q 40 -4 50 -7 l 40 117 q 62 114 54 114 q 98 131 85 114 q 123 207 112 148 q 325 469 163 409 q 147 565 195 504 q 100 711 100 626 q 195 924 100 843 q 481 1004 290 1004 q 729 991 580 1004 l 729 0 m 595 541 l 595 878 q 450 886 523 886 q 286 838 333 886 q 239 724 239 789 q 488 542 239 545 l 595 541 z "},"а":{"ha":713,"x_min":47,"x_max":668,"o":"m 494 83 q 258 -14 416 -14 q 110 49 172 -14 q 47 203 47 111 q 143 389 47 313 q 390 465 239 465 q 484 449 431 465 q 325 625 484 625 q 139 559 206 625 l 85 667 q 183 718 117 694 q 311 741 250 741 q 538 671 465 741 q 611 439 611 601 l 611 179 q 668 52 611 83 l 668 -12 q 546 13 584 -12 q 494 83 509 38 m 484 357 q 397 371 414 371 q 238 320 300 371 q 176 201 176 269 q 310 87 176 87 q 484 180 406 87 l 484 357 z "},"б":{"ha":765,"x_min":53,"x_max":721,"o":"m 155 524 q 270 644 201 602 q 416 685 338 685 q 640 595 558 685 q 721 351 721 505 q 632 87 721 188 q 390 -14 543 -14 q 142 102 231 -14 q 53 415 53 218 q 76 648 53 547 q 143 814 99 750 q 256 918 187 878 q 437 983 326 958 l 669 1036 l 697 917 q 385 846 444 862 q 276 797 326 831 q 196 700 225 763 q 155 524 168 636 m 396 93 q 535 159 486 93 q 583 338 583 226 q 535 517 583 456 q 397 579 488 579 q 248 509 305 579 q 191 338 191 438 q 246 161 191 229 q 396 93 302 93 z "},"в":{"ha":717,"x_min":92,"x_max":664,"o":"m 525 390 q 664 207 664 345 q 595 59 664 117 q 387 0 526 0 l 92 0 l 92 725 q 375 733 245 733 q 566 683 498 733 q 633 538 633 633 q 604 450 633 490 q 525 390 575 410 m 214 431 q 370 429 224 429 q 507 536 507 429 q 475 609 507 583 q 385 635 443 635 q 214 629 273 635 l 214 431 m 214 103 q 372 98 290 98 q 534 216 534 98 q 492 304 534 273 q 370 335 450 335 q 214 332 266 335 l 214 103 z "},"г":{"ha":602,"x_min":92,"x_max":559,"o":"m 559 618 l 221 618 l 221 0 l 92 0 l 92 726 l 559 726 l 559 618 z "},"д":{"ha":803,"x_min":28,"x_max":770,"o":"m 770 -237 l 656 -237 l 656 0 l 142 0 l 142 -237 l 28 -237 l 28 103 l 83 103 q 213 343 168 201 q 258 632 258 486 l 258 726 l 688 726 l 688 103 l 770 103 l 770 -237 m 564 103 l 564 624 l 366 624 q 325 340 366 481 q 208 103 283 199 l 564 103 z "},"е":{"ha":760,"x_min":45,"x_max":714,"o":"m 703 350 l 179 350 q 206 214 179 270 q 284 126 233 159 q 408 94 336 94 q 593 160 517 94 l 646 56 q 534 1 595 16 q 383 -14 473 -14 q 140 88 235 -14 q 45 354 45 189 q 145 634 45 527 q 385 741 245 741 q 625 656 535 741 q 714 429 714 572 q 703 350 714 401 m 390 632 q 247 577 305 632 q 183 444 189 522 l 585 444 q 532 579 585 527 q 390 632 479 632 z "},"ж":{"ha":1023,"x_min":56,"x_max":968,"o":"m 968 -4 q 922 -7 949 -7 q 785 119 802 -7 q 720 282 768 233 q 576 330 671 330 l 576 0 l 454 0 l 454 330 q 304 284 354 330 q 237 119 254 237 q 100 -7 219 -7 q 56 -4 75 -7 l 56 109 q 85 106 68 106 q 126 146 119 106 q 307 383 162 338 q 193 446 235 401 q 134 581 151 492 q 96 621 126 621 q 65 619 68 621 l 65 730 q 111 733 85 733 q 245 610 224 733 q 311 473 263 511 q 454 435 359 435 l 454 726 l 576 726 l 576 435 q 718 475 670 435 q 781 608 765 516 q 914 733 802 733 q 958 730 939 733 l 958 619 q 926 621 955 621 q 889 579 897 621 q 722 383 860 425 q 837 303 795 357 q 899 144 880 248 q 939 106 905 106 q 968 109 958 106 l 968 -4 z "},"з":{"ha":631,"x_min":35,"x_max":585,"o":"m 449 379 q 585 201 585 330 q 508 43 585 100 q 301 -14 432 -14 q 35 68 157 -14 l 100 171 q 307 92 186 92 q 412 122 373 92 q 450 201 450 152 q 288 332 450 332 q 207 328 241 332 l 207 431 q 292 429 219 429 q 395 455 358 429 q 432 528 432 481 q 398 607 432 578 q 304 635 365 635 q 114 579 213 635 l 66 684 q 311 741 191 741 q 491 684 418 741 q 564 533 564 627 q 449 379 564 421 z "},"и":{"ha":794,"x_min":92,"x_max":703,"o":"m 703 0 l 574 0 l 574 497 l 121 -20 l 92 -20 l 92 726 l 221 726 l 221 229 l 673 746 l 703 746 l 703 0 z "},"й":{"ha":794,"x_min":92,"x_max":703,"o":"m 703 0 l 574 0 l 574 497 l 121 -20 l 92 -20 l 92 726 l 221 726 l 221 229 l 673 746 l 703 746 l 703 0 m 653 1078 q 410 869 608 869 q 167 1078 212 869 l 282 1104 q 410 965 307 965 q 543 1103 524 965 l 653 1078 z "},"к":{"ha":717,"x_min":92,"x_max":664,"o":"m 664 -4 q 616 -7 645 -7 q 471 121 489 -7 q 397 280 455 229 q 232 330 340 330 l 221 330 l 221 0 l 92 0 l 92 726 l 221 726 l 221 436 l 239 436 q 394 478 340 436 q 464 607 448 519 q 607 733 486 733 q 652 730 630 733 l 652 619 q 618 621 643 621 q 579 579 587 621 q 399 383 549 427 q 591 144 555 330 q 629 106 600 106 q 664 109 656 106 l 664 -4 z "},"л":{"ha":782,"x_min":28,"x_max":694,"o":"m 694 0 l 566 0 l 566 624 l 371 624 q 340 341 368 471 q 264 126 312 211 q 161 17 217 42 q 28 -8 106 -8 l 28 110 q 200 298 149 110 q 250 659 250 486 l 250 726 l 694 726 l 694 0 z "},"м":{"ha":947,"x_min":36,"x_max":913,"o":"m 783 0 l 707 437 l 488 -12 l 453 -12 l 235 431 l 160 0 l 36 0 l 175 739 l 210 739 l 478 197 l 743 739 l 777 739 l 913 0 l 783 0 z "},"н":{"ha":777,"x_min":92,"x_max":685,"o":"m 685 0 l 555 0 l 555 328 l 221 328 l 221 0 l 92 0 l 92 726 l 221 726 l 221 435 l 555 435 l 555 726 l 685 726 l 685 0 z "},"о":{"ha":746,"x_min":45,"x_max":701,"o":"m 374 741 q 615 640 530 741 q 701 366 701 539 q 612 87 701 187 q 374 -14 522 -14 q 132 88 218 -14 q 45 366 45 190 q 136 637 45 533 q 374 741 227 741 m 374 92 q 515 167 465 92 q 566 366 566 242 q 374 635 566 635 q 231 562 283 635 q 179 366 179 488 q 374 92 179 92 z "},"п":{"ha":758,"x_min":92,"x_max":667,"o":"m 667 0 l 538 0 l 538 618 l 221 618 l 221 0 l 92 0 l 92 726 l 667 726 l 667 0 z "},"р":{"ha":774,"x_min":92,"x_max":724,"o":"m 221 40 l 221 -285 l 92 -285 l 92 726 l 221 726 l 221 667 q 397 741 294 741 q 637 643 551 741 q 724 361 724 546 q 636 90 724 194 q 386 -14 549 -14 q 289 3 341 -14 q 221 40 236 19 m 221 570 l 221 146 q 274 110 236 126 q 349 94 312 94 q 589 367 589 94 q 530 570 589 508 q 349 632 472 632 q 281 612 322 632 q 221 570 241 591 z "},"с":{"ha":690,"x_min":46,"x_max":644,"o":"m 640 667 l 578 576 q 506 615 554 597 q 410 632 458 632 q 242 557 304 632 q 180 355 180 483 q 242 163 180 232 q 419 94 304 94 q 595 163 506 94 l 644 54 q 387 -14 543 -14 q 143 86 239 -14 q 46 355 46 186 q 148 637 46 534 q 422 741 250 741 q 547 716 481 741 q 640 667 612 692 z "},"т":{"ha":629,"x_min":41,"x_max":587,"o":"m 587 618 l 379 618 l 379 0 l 250 0 l 250 618 l 41 618 l 41 726 l 587 726 l 587 618 z "},"у":{"ha":690,"x_min":11,"x_max":679,"o":"m 372 -119 q 267 -234 347 -188 q 87 -281 187 -281 l 87 -165 q 225 -128 167 -165 q 283 -36 283 -90 q 262 82 283 28 l 11 730 l 143 730 l 355 170 l 549 730 l 679 730 l 372 -119 z "},"ф":{"ha":1079,"x_min":52,"x_max":1028,"o":"m 604 707 q 711 741 660 741 q 946 642 865 741 q 1028 364 1028 543 q 943 85 1028 183 q 728 -14 859 -14 q 604 17 665 -14 l 604 -285 l 479 -285 l 479 17 q 355 -14 418 -14 q 131 88 210 -14 q 52 358 52 189 q 135 635 52 530 q 367 741 218 741 q 479 705 420 741 l 479 1023 l 604 1023 l 604 707 m 604 113 q 694 89 653 89 q 900 367 900 89 q 845 565 900 493 q 696 637 790 637 q 604 618 654 637 l 604 113 m 479 109 l 479 612 q 378 637 422 637 q 231 567 283 637 q 179 367 179 496 q 231 164 179 239 q 393 89 283 89 q 479 109 431 89 z "},"х":{"ha":707,"x_min":14,"x_max":693,"o":"m 693 0 l 533 0 l 347 278 l 167 0 l 14 0 l 283 372 l 36 726 l 187 726 l 350 471 l 522 726 l 668 726 l 412 378 l 693 0 z "},"ц":{"ha":765,"x_min":92,"x_max":732,"o":"m 732 -235 l 615 -235 l 615 0 l 92 0 l 92 726 l 221 726 l 221 107 l 518 107 l 518 726 l 647 726 l 647 107 l 732 107 l 732 -235 z "},"ч":{"ha":737,"x_min":74,"x_max":646,"o":"m 646 0 l 517 0 l 517 285 q 329 262 429 262 q 142 331 210 262 q 74 530 74 399 l 74 726 l 203 726 l 203 533 q 244 410 203 452 q 363 368 285 368 q 518 385 441 368 l 518 726 l 646 726 l 646 0 z "},"ш":{"ha":1053,"x_min":92,"x_max":961,"o":"m 961 0 l 92 0 l 92 726 l 214 726 l 214 104 l 465 104 l 465 726 l 587 726 l 587 104 l 839 104 l 839 726 l 961 726 l 961 0 z "},"щ":{"ha":1072,"x_min":92,"x_max":1039,"o":"m 1039 -237 l 925 -237 l 925 0 l 92 0 l 92 726 l 214 726 l 214 104 l 463 104 l 463 726 l 583 726 l 583 104 l 832 104 l 832 726 l 954 726 l 954 104 l 1039 104 l 1039 -237 z "},"ъ":{"ha":846,"x_min":39,"x_max":799,"o":"m 376 458 q 514 468 460 468 q 726 408 653 468 q 799 229 799 347 q 728 68 799 137 q 510 0 658 0 l 250 0 l 250 621 l 39 621 l 39 726 l 376 726 l 376 458 m 376 106 q 513 102 425 102 q 627 135 585 102 q 669 232 669 169 q 627 332 669 298 q 505 367 584 367 q 376 357 464 367 l 376 106 z "},"ы":{"ha":951,"x_min":92,"x_max":860,"o":"m 860 0 l 733 0 l 733 726 l 860 726 l 860 0 m 218 460 q 342 468 274 468 q 555 408 481 468 q 628 229 628 347 q 595 114 628 170 q 498 29 562 58 q 339 0 434 0 l 92 0 l 92 726 l 218 726 l 218 460 m 218 104 q 342 100 264 100 q 457 134 414 100 q 500 232 500 169 q 455 334 500 300 q 335 368 410 368 q 218 359 294 368 l 218 104 z "},"ь":{"ha":703,"x_min":92,"x_max":656,"o":"m 220 457 q 371 468 313 468 q 583 408 510 468 q 656 229 656 347 q 585 68 656 137 q 367 0 515 0 l 92 0 l 92 726 l 220 726 l 220 457 m 220 106 q 372 102 267 102 q 485 135 444 102 q 526 232 526 169 q 366 367 526 367 q 220 355 310 367 l 220 106 z "},"э":{"ha":690,"x_min":43,"x_max":644,"o":"m 58 672 q 302 741 165 741 q 552 637 459 741 q 644 366 644 534 q 548 88 644 189 q 277 -14 452 -14 q 43 64 138 -14 l 106 163 q 288 90 186 90 q 450 151 391 90 q 515 326 509 212 l 221 326 l 221 427 l 513 427 q 439 582 498 528 q 286 636 380 636 q 113 576 192 636 l 58 672 z "},"ю":{"ha":1003,"x_min":92,"x_max":956,"o":"m 353 433 q 453 659 372 577 q 653 741 534 741 q 875 641 795 741 q 956 366 956 542 q 873 91 956 195 q 653 -14 791 -14 q 439 76 518 -14 q 350 329 360 165 l 215 329 l 215 0 l 92 0 l 92 726 l 215 726 l 215 433 l 353 433 m 654 87 q 785 162 741 87 q 828 364 828 237 q 653 639 828 639 q 522 565 568 639 q 476 368 476 492 q 523 160 476 232 q 654 87 569 87 z "},"я":{"ha":728,"x_min":49,"x_max":636,"o":"m 636 0 l 513 0 l 513 296 l 453 296 q 298 254 351 296 q 228 110 245 212 q 93 -7 208 -7 q 49 -4 68 -7 l 49 109 q 75 106 59 106 q 114 146 106 106 q 272 334 141 283 q 143 397 190 347 q 97 513 97 447 q 138 640 97 585 q 243 715 178 695 q 401 734 307 734 q 636 724 515 734 l 636 0 m 513 387 l 513 629 q 385 636 445 636 q 264 602 304 636 q 225 518 225 568 q 276 421 225 453 q 406 389 328 390 l 513 387 z "},"ё":{"ha":760,"x_min":45,"x_max":714,"o":"m 703 350 l 179 350 q 206 214 179 270 q 284 126 233 159 q 408 94 336 94 q 593 160 517 94 l 646 56 q 534 1 595 16 q 383 -14 473 -14 q 140 88 235 -14 q 45 354 45 189 q 145 634 45 527 q 385 741 245 741 q 625 656 535 741 q 714 429 714 572 q 703 350 714 401 m 390 632 q 247 577 305 632 q 183 444 189 522 l 585 444 q 532 579 585 527 q 390 632 479 632 m 538 999 q 590 977 567 999 q 614 922 614 956 q 592 868 614 890 q 538 846 570 846 q 483 869 504 846 q 461 922 461 892 q 484 976 461 954 q 538 999 506 999 m 267 999 q 321 977 298 999 q 343 922 343 954 q 322 869 343 892 q 267 846 300 846 q 212 869 233 846 q 191 922 191 892 q 215 979 191 959 q 267 999 240 999 z "},"ђ":{"ha":761,"x_min":-3,"x_max":673,"o":"m 673 0 q 349 -288 673 -288 l 349 -174 q 493 -140 442 -174 q 543 0 543 -106 l 543 422 q 393 593 543 593 q 227 498 300 593 l 227 0 l 96 0 l 96 807 l -3 807 l -3 901 l 96 901 l 96 1023 l 227 1023 l 227 901 l 479 901 l 479 807 l 227 807 l 227 608 q 428 703 301 703 q 608 627 543 703 q 673 422 673 552 l 673 0 z "},"ѓ":{"ha":602,"x_min":92,"x_max":559,"o":"m 559 618 l 221 618 l 221 0 l 92 0 l 92 726 l 559 726 l 559 618 m 526 1097 l 372 871 l 278 871 l 393 1097 l 526 1097 z "},"є":{"ha":690,"x_min":46,"x_max":644,"o":"m 644 54 q 387 -14 547 -14 q 140 90 233 -14 q 46 355 46 193 q 146 636 46 531 q 422 741 247 741 q 640 667 550 741 l 576 576 q 410 636 507 636 q 255 579 318 636 q 178 425 193 522 l 469 425 l 469 325 l 175 325 q 247 151 183 212 q 419 90 311 90 q 597 155 511 90 l 644 54 z "},"ѕ":{"ha":570,"x_min":47,"x_max":521,"o":"m 47 43 l 92 165 q 265 94 201 94 q 385 196 385 94 q 361 257 385 228 q 244 331 338 286 q 144 386 182 361 q 79 451 106 410 q 52 550 52 492 q 117 690 52 640 q 288 741 182 741 q 488 690 366 741 l 450 571 q 296 632 374 632 q 220 611 253 632 q 187 554 187 590 q 210 491 187 520 q 327 420 233 462 q 428 369 389 393 q 493 302 466 345 q 521 195 521 260 q 451 40 521 94 q 262 -14 380 -14 q 47 43 151 -14 z "},"і":{"ha":392,"x_min":57,"x_max":298,"o":"m 208 1011 q 272 985 245 1011 q 298 921 298 960 q 271 856 298 879 q 208 832 243 832 q 143 858 168 832 q 118 921 118 884 q 144 984 118 958 q 208 1011 170 1011 m 157 0 l 157 618 l 57 618 l 57 726 l 286 726 l 286 0 l 157 0 z "},"ї":{"ha":392,"x_min":-22,"x_max":401,"o":"m 325 999 q 378 977 355 999 q 401 922 401 956 q 379 868 401 890 q 325 846 357 846 q 270 869 292 846 q 249 922 249 892 q 271 976 249 954 q 325 999 294 999 m 54 999 q 109 977 86 999 q 131 922 131 954 q 109 868 131 891 q 54 846 87 846 q -1 869 20 846 q -22 922 -22 892 q 0 976 -22 954 q 54 999 22 999 m 286 0 l 157 0 l 157 618 l 57 618 l 57 726 l 286 726 l 286 0 z "},"ј":{"ha":424,"x_min":-37,"x_max":332,"o":"m 241 1011 q 305 985 279 1011 q 332 921 332 960 q 306 857 332 882 q 241 832 279 832 q 176 858 201 832 q 151 921 151 884 q 177 984 151 956 q 241 1011 202 1011 m -37 -285 l -37 -170 q 143 -130 94 -170 q 193 3 193 -90 l 193 618 l 49 618 l 49 726 l 322 726 l 322 5 q 231 -217 322 -150 q -37 -285 139 -285 z "},"љ":{"ha":1145,"x_min":28,"x_max":1097,"o":"m 689 460 q 812 468 745 468 q 1024 408 951 468 q 1097 229 1097 347 q 1065 114 1097 170 q 969 29 1033 58 q 810 0 905 0 l 562 0 l 562 624 l 368 624 q 335 336 361 459 q 261 129 308 214 q 158 18 215 45 q 28 -8 102 -8 l 28 110 q 112 137 76 110 q 180 241 148 165 q 231 434 212 317 q 250 656 250 551 l 250 726 l 689 726 l 689 460 m 689 106 q 812 102 736 102 q 927 135 885 102 q 970 232 970 169 q 927 332 970 298 q 806 367 884 367 q 689 358 765 367 l 689 106 z "},"њ":{"ha":1096,"x_min":92,"x_max":1048,"o":"m 640 460 q 764 468 696 468 q 976 408 903 468 q 1048 229 1048 347 q 1016 114 1048 170 q 920 29 984 58 q 761 0 857 0 l 514 0 l 514 328 l 221 328 l 221 0 l 92 0 l 92 726 l 221 726 l 221 435 l 514 435 l 514 726 l 640 726 l 640 460 m 640 106 q 764 102 687 102 q 879 135 836 102 q 921 232 921 169 q 878 332 921 298 q 757 367 836 367 q 640 358 716 367 l 640 106 z "},"ћ":{"ha":761,"x_min":-3,"x_max":673,"o":"m 673 0 l 543 0 l 543 422 q 393 593 543 593 q 227 498 300 593 l 227 0 l 96 0 l 96 807 l -3 807 l -3 901 l 96 901 l 96 1023 l 227 1023 l 227 901 l 479 901 l 479 807 l 227 807 l 227 608 q 428 703 301 703 q 608 627 543 703 q 673 422 673 552 l 673 0 z "},"ќ":{"ha":717,"x_min":92,"x_max":664,"o":"m 664 -4 q 616 -7 645 -7 q 471 121 489 -7 q 397 280 455 229 q 232 330 340 330 l 221 330 l 221 0 l 92 0 l 92 726 l 221 726 l 221 436 l 239 436 q 394 478 340 436 q 464 607 448 519 q 607 733 486 733 q 652 730 630 733 l 652 619 q 618 621 643 621 q 579 579 587 621 q 399 383 549 427 q 591 144 555 330 q 629 106 600 106 q 664 109 656 106 l 664 -4 m 554 1097 l 400 871 l 306 871 l 421 1097 l 554 1097 z "},"ў":{"ha":690,"x_min":8,"x_max":676,"o":"m 370 -123 q 264 -238 345 -192 q 85 -285 184 -285 l 85 -170 q 222 -132 164 -170 q 281 -40 281 -94 q 260 78 281 24 l 8 726 l 140 726 l 353 165 l 546 726 l 676 726 l 370 -123 m 604 1079 q 361 871 559 871 q 118 1079 163 871 l 233 1105 q 361 966 258 966 q 494 1104 476 966 l 604 1079 z "},"џ":{"ha":758,"x_min":92,"x_max":667,"o":"m 667 0 l 436 0 l 436 -237 l 322 -237 l 322 0 l 92 0 l 92 726 l 221 726 l 221 107 l 538 107 l 538 726 l 667 726 l 667 0 z "},"Ґ":{"ha":722,"x_min":102,"x_max":681,"o":"m 681 871 l 239 871 l 239 0 l 102 0 l 102 993 l 568 993 l 568 1208 l 681 1208 l 681 871 z "},"ґ":{"ha":602,"x_min":92,"x_max":559,"o":"m 559 618 l 221 618 l 221 0 l 92 0 l 92 726 l 453 726 l 453 908 l 559 908 l 559 618 z "},"Ā":{"ha":819,"x_min":3,"x_max":817,"o":"m 666 0 l 597 210 l 228 210 l 155 0 l 3 0 l 406 1007 l 442 1007 l 817 0 l 666 0 m 418 747 l 264 309 l 559 309 l 418 747 m 675 1171 l 675 1075 l 174 1075 l 174 1171 l 675 1171 z "},"ā":{"ha":730,"x_min":54,"x_max":675,"o":"m 502 83 q 265 -14 425 -14 q 117 48 180 -14 q 54 203 54 111 q 151 390 54 313 q 397 466 248 466 q 490 448 438 466 q 332 625 490 625 q 146 559 212 625 l 92 667 q 194 719 129 697 q 317 740 258 740 q 547 668 475 740 q 618 439 618 596 l 618 179 q 675 52 618 83 l 675 -13 q 558 9 597 -13 q 502 83 519 32 m 490 357 q 404 370 429 370 q 245 320 307 370 q 183 201 183 270 q 317 88 183 88 q 490 181 414 88 l 490 357 m 585 967 l 585 871 l 85 871 l 85 967 l 585 967 z "},"Ĉ":{"ha":831,"x_min":54,"x_max":777,"o":"m 736 957 l 690 841 q 486 888 625 888 q 276 776 355 888 q 197 486 197 663 q 278 211 197 316 q 487 105 359 105 q 702 204 627 105 l 777 100 q 473 -17 659 -17 q 166 123 278 -17 q 54 494 54 264 q 174 863 54 716 q 482 1010 293 1010 q 736 957 644 1010 m 593 1075 l 482 1203 l 361 1075 l 245 1075 l 447 1304 l 519 1304 l 726 1075 l 593 1075 z "},"ĉ":{"ha":688,"x_min":44,"x_max":644,"o":"m 640 667 l 576 576 q 506 614 556 596 q 408 631 456 631 q 241 558 303 631 q 180 356 180 484 q 243 162 180 229 q 418 95 306 95 q 593 162 505 95 l 644 54 q 387 -14 540 -14 q 141 86 238 -14 q 44 356 44 186 q 145 635 44 530 q 420 740 245 740 q 543 716 477 740 q 640 667 608 692 m 506 871 l 395 1000 l 275 871 l 158 871 l 360 1101 l 433 1101 l 640 871 l 506 871 z "},"Ċ":{"ha":831,"x_min":54,"x_max":777,"o":"m 736 957 l 690 841 q 486 888 625 888 q 276 776 355 888 q 197 486 197 663 q 278 211 197 316 q 487 105 359 105 q 702 204 627 105 l 777 100 q 473 -17 659 -17 q 166 123 278 -17 q 54 494 54 264 q 174 863 54 716 q 482 1010 293 1010 q 736 957 644 1010 m 471 1234 q 528 1211 505 1234 q 551 1155 551 1187 q 528 1098 551 1122 q 471 1075 505 1075 q 415 1098 439 1075 q 392 1155 392 1122 q 415 1211 392 1188 q 471 1234 438 1234 z "},"ċ":{"ha":688,"x_min":44,"x_max":644,"o":"m 640 667 l 576 576 q 506 614 556 596 q 408 631 456 631 q 241 558 303 631 q 180 356 180 484 q 243 162 180 229 q 418 95 306 95 q 593 162 505 95 l 644 54 q 387 -14 540 -14 q 141 86 238 -14 q 44 356 44 186 q 145 635 44 530 q 420 740 245 740 q 543 716 477 740 q 640 667 608 692 m 390 1031 q 447 1007 423 1031 q 470 951 470 984 q 447 895 470 918 q 390 871 423 871 q 334 895 357 871 q 311 951 311 918 q 334 1008 311 985 q 390 1031 357 1031 z "},"Ē":{"ha":744,"x_min":102,"x_max":695,"o":"m 237 871 l 237 595 l 566 595 l 566 480 l 237 480 l 237 122 l 688 122 l 688 0 l 102 0 l 102 994 l 695 994 l 695 871 l 237 871 m 648 1171 l 648 1075 l 148 1075 l 148 1171 l 648 1171 z "},"ē":{"ha":758,"x_min":44,"x_max":713,"o":"m 703 351 l 180 351 q 250 155 180 223 q 408 95 311 95 q 593 159 519 95 l 647 66 q 555 15 617 37 q 383 -14 478 -14 q 151 79 246 -14 q 44 355 44 182 q 153 643 44 534 q 385 740 251 740 q 628 652 540 740 q 713 429 713 568 q 703 351 713 387 m 391 631 q 246 576 304 631 q 183 444 191 523 l 585 444 q 536 574 585 522 q 391 631 483 631 m 635 967 l 635 871 l 134 871 l 134 967 l 635 967 z "},"Ĕ":{"ha":744,"x_min":102,"x_max":695,"o":"m 237 871 l 237 595 l 566 595 l 566 480 l 237 480 l 237 122 l 688 122 l 688 0 l 102 0 l 102 994 l 695 994 l 695 871 l 237 871 m 623 1295 q 559 1145 623 1215 q 390 1075 496 1075 q 231 1139 289 1075 q 174 1295 174 1202 l 269 1295 q 304 1217 267 1254 q 390 1179 340 1179 q 487 1214 448 1179 q 526 1295 526 1249 l 623 1295 z "},"ĕ":{"ha":758,"x_min":44,"x_max":713,"o":"m 703 351 l 180 351 q 250 155 180 223 q 408 95 311 95 q 593 159 519 95 l 647 66 q 555 15 617 37 q 383 -14 478 -14 q 151 79 246 -14 q 44 355 44 182 q 153 643 44 534 q 385 740 251 740 q 628 652 540 740 q 713 429 713 568 q 703 351 713 387 m 391 631 q 246 576 304 631 q 183 444 191 523 l 585 444 q 536 574 585 522 q 391 631 483 631 m 617 1092 q 553 942 617 1012 q 384 871 490 871 q 225 935 283 871 q 168 1092 168 999 l 263 1092 q 298 1013 261 1050 q 384 976 334 976 q 481 1011 441 976 q 520 1092 520 1046 l 617 1092 z "},"Ė":{"ha":744,"x_min":102,"x_max":695,"o":"m 237 871 l 237 595 l 566 595 l 566 480 l 237 480 l 237 122 l 688 122 l 688 0 l 102 0 l 102 994 l 695 994 l 695 871 l 237 871 m 398 1234 q 455 1211 431 1234 q 478 1155 478 1187 q 455 1098 478 1122 q 398 1075 431 1075 q 342 1098 366 1075 q 319 1155 319 1122 q 342 1211 319 1188 q 398 1234 365 1234 z "},"ė":{"ha":758,"x_min":44,"x_max":713,"o":"m 703 351 l 180 351 q 250 155 180 223 q 408 95 311 95 q 593 159 519 95 l 647 66 q 555 15 617 37 q 383 -14 478 -14 q 151 79 246 -14 q 44 355 44 182 q 153 643 44 534 q 385 740 251 740 q 628 652 540 740 q 713 429 713 568 q 703 351 713 387 m 391 631 q 246 576 304 631 q 183 444 191 523 l 585 444 q 536 574 585 522 q 391 631 483 631 m 378 1031 q 434 1007 411 1031 q 458 951 458 984 q 434 895 458 918 q 378 871 411 871 q 322 895 345 871 q 298 951 298 918 q 321 1008 298 985 q 378 1031 345 1031 z "},"Ĝ":{"ha":939,"x_min":54,"x_max":838,"o":"m 790 924 l 734 812 q 533 888 631 888 q 287 779 377 888 q 197 488 197 669 q 285 210 197 315 q 526 105 374 105 q 702 170 635 105 l 702 403 l 564 403 l 564 518 l 838 518 l 838 85 q 686 11 783 39 q 498 -17 589 -17 q 173 122 292 -17 q 54 493 54 262 q 185 867 54 724 q 537 1010 315 1010 q 790 924 692 1010 m 605 1075 l 494 1203 l 374 1075 l 257 1075 l 459 1304 l 532 1304 l 739 1075 l 605 1075 z "},"ĝ":{"ha":697,"x_min":54,"x_max":656,"o":"m 65 -199 l 135 -96 q 342 -171 248 -171 q 480 -141 430 -171 q 531 -66 531 -111 q 404 22 531 22 q 325 12 382 22 q 236 1 268 1 q 81 117 81 1 q 118 182 81 153 q 208 224 154 212 q 54 474 54 296 q 134 664 54 588 q 330 740 213 740 q 497 696 437 740 l 562 773 l 646 694 l 568 635 q 618 467 618 571 q 549 283 618 357 q 370 197 481 208 l 263 186 q 212 172 244 184 q 180 139 180 159 q 247 111 180 111 q 338 122 276 111 q 429 132 399 132 q 596 81 536 132 q 656 -61 656 30 q 567 -223 656 -161 q 339 -285 477 -285 q 191 -260 269 -285 q 65 -199 113 -235 m 338 636 q 229 589 271 636 q 186 473 186 541 q 228 348 186 397 q 338 298 269 298 q 446 346 407 298 q 484 473 484 395 q 443 589 484 541 q 338 636 401 636 m 449 871 l 338 1000 l 218 871 l 101 871 l 303 1101 l 376 1101 l 583 871 l 449 871 z "},"Ġ":{"ha":939,"x_min":54,"x_max":838,"o":"m 790 924 l 734 812 q 533 888 631 888 q 287 779 377 888 q 197 488 197 669 q 285 210 197 315 q 526 105 374 105 q 702 170 635 105 l 702 403 l 564 403 l 564 518 l 838 518 l 838 85 q 686 11 783 39 q 498 -17 589 -17 q 173 122 292 -17 q 54 493 54 262 q 185 867 54 724 q 537 1010 315 1010 q 790 924 692 1010 m 505 1234 q 562 1211 538 1234 q 585 1155 585 1187 q 562 1098 585 1122 q 505 1075 538 1075 q 449 1098 473 1075 q 426 1155 426 1122 q 449 1211 426 1188 q 505 1234 472 1234 z "},"ġ":{"ha":697,"x_min":54,"x_max":656,"o":"m 65 -199 l 135 -96 q 342 -171 248 -171 q 480 -141 430 -171 q 531 -66 531 -111 q 404 22 531 22 q 325 12 382 22 q 236 1 268 1 q 81 117 81 1 q 118 182 81 153 q 208 224 154 212 q 54 474 54 296 q 134 664 54 588 q 330 740 213 740 q 497 696 437 740 l 562 773 l 646 694 l 568 635 q 618 467 618 571 q 549 283 618 357 q 370 197 481 208 l 263 186 q 212 172 244 184 q 180 139 180 159 q 247 111 180 111 q 338 122 276 111 q 429 132 399 132 q 596 81 536 132 q 656 -61 656 30 q 567 -223 656 -161 q 339 -285 477 -285 q 191 -260 269 -285 q 65 -199 113 -235 m 338 636 q 229 589 271 636 q 186 473 186 541 q 228 348 186 397 q 338 298 269 298 q 446 346 407 298 q 484 473 484 395 q 443 589 484 541 q 338 636 401 636 m 330 1031 q 386 1007 363 1031 q 410 951 410 984 q 386 895 410 918 q 330 871 363 871 q 274 895 297 871 q 250 951 250 918 q 273 1008 250 985 q 330 1031 296 1031 z "},"Ģ":{"ha":939,"x_min":54,"x_max":838,"o":"m 790 924 l 734 812 q 533 888 631 888 q 287 779 377 888 q 197 488 197 669 q 285 210 197 315 q 526 105 374 105 q 702 170 635 105 l 702 403 l 564 403 l 564 518 l 838 518 l 838 85 q 686 11 783 39 q 498 -17 589 -17 q 173 122 292 -17 q 54 493 54 262 q 185 867 54 724 q 537 1010 315 1010 q 790 924 692 1010 m 412 -309 l 395 -241 q 484 -223 448 -241 q 519 -172 519 -205 q 458 -122 519 -122 l 458 -41 q 562 -79 525 -41 q 600 -172 600 -117 q 550 -272 600 -236 q 412 -309 500 -309 z "},"ģ":{"ha":697,"x_min":54,"x_max":656,"o":"m 65 -199 l 135 -96 q 342 -171 248 -171 q 480 -141 430 -171 q 531 -66 531 -111 q 404 22 531 22 q 325 12 382 22 q 236 1 268 1 q 81 117 81 1 q 118 182 81 153 q 208 224 154 212 q 54 474 54 296 q 134 664 54 588 q 330 740 213 740 q 497 696 437 740 l 562 773 l 646 694 l 568 635 q 618 467 618 571 q 549 283 618 357 q 370 197 481 208 l 263 186 q 212 172 244 184 q 180 139 180 159 q 247 111 180 111 q 338 122 276 111 q 429 132 399 132 q 596 81 536 132 q 656 -61 656 30 q 567 -223 656 -161 q 339 -285 477 -285 q 191 -260 269 -285 q 65 -199 113 -235 m 338 636 q 229 589 271 636 q 186 473 186 541 q 228 348 186 397 q 338 298 269 298 q 446 346 407 298 q 484 473 484 395 q 443 589 484 541 q 338 636 401 636 m 361 1165 l 397 1126 q 350 1070 355 1085 q 345 1044 345 1056 q 373 993 345 1016 q 401 938 401 970 q 330 871 401 871 q 256 970 256 871 q 361 1165 256 1084 z "},"Ĥ":{"ha":909,"x_min":102,"x_max":807,"o":"m 671 0 l 671 480 l 237 480 l 237 0 l 102 0 l 102 994 l 237 994 l 237 595 l 671 595 l 671 994 l 807 994 l 807 0 l 671 0 m 562 1075 l 451 1203 l 330 1075 l 214 1075 l 416 1304 l 488 1304 l 695 1075 l 562 1075 z "},"ĥ":{"ha":759,"x_min":92,"x_max":668,"o":"m 539 0 l 539 456 q 499 585 539 538 q 387 631 459 631 q 293 604 340 631 q 220 540 245 576 l 220 0 l 92 0 l 92 1024 l 220 1024 l 220 646 q 303 713 246 686 q 422 740 361 740 q 603 664 537 740 q 668 456 668 588 l 668 0 l 539 0 m 487 1075 l 376 1203 l 256 1075 l 139 1075 l 341 1304 l 414 1304 l 621 1075 l 487 1075 z "},"Ħ":{"ha":946,"x_min":14,"x_max":931,"o":"m 931 747 l 828 747 l 828 0 l 693 0 l 693 472 l 252 472 l 252 0 l 117 0 l 117 747 l 14 747 l 14 841 l 117 841 l 117 994 l 252 994 l 252 841 l 693 841 l 693 994 l 828 994 l 828 841 l 931 841 l 931 747 m 693 587 l 693 747 l 252 747 l 252 587 l 693 587 z "},"ħ":{"ha":761,"x_min":-3,"x_max":673,"o":"m 673 0 l 543 0 l 543 422 q 393 593 543 593 q 300 566 346 593 q 227 498 257 541 l 227 0 l 96 0 l 96 807 l -3 807 l -3 901 l 96 901 l 96 1024 l 227 1024 l 227 901 l 479 901 l 479 807 l 227 807 l 227 608 q 310 676 260 652 q 428 703 366 703 q 608 628 543 703 q 673 422 673 553 l 673 0 z "},"Ĩ":{"ha":387,"x_min":-22,"x_max":409,"o":"m 125 0 l 125 994 l 261 994 l 261 0 l 125 0 m 409 1215 q 279 1075 373 1075 q 185 1101 236 1075 q 113 1127 134 1127 q 39 1075 64 1127 l -22 1075 q 21 1174 -13 1132 q 102 1215 56 1215 q 205 1189 158 1215 q 276 1163 252 1163 q 349 1215 331 1163 l 409 1215 z "},"ĩ":{"ha":396,"x_min":-18,"x_max":414,"o":"m 154 0 l 154 618 l 54 618 l 54 726 l 285 726 l 285 0 l 154 0 m 414 1012 q 283 871 378 871 q 190 898 241 871 q 117 924 138 924 q 44 871 69 924 l -18 871 q 26 970 -8 928 q 107 1012 60 1012 q 210 986 163 1012 q 281 960 257 960 q 354 1012 336 960 l 414 1012 z "},"Ī":{"ha":387,"x_min":-57,"x_max":444,"o":"m 125 0 l 125 994 l 261 994 l 261 0 l 125 0 m 444 1171 l 444 1075 l -57 1075 l -57 1171 l 444 1171 z "},"ī":{"ha":396,"x_min":-52,"x_max":448,"o":"m 154 0 l 154 618 l 54 618 l 54 726 l 285 726 l 285 0 l 154 0 m 448 967 l 448 871 l -52 871 l -52 967 l 448 967 z "},"Ĭ":{"ha":387,"x_min":-31,"x_max":418,"o":"m 125 0 l 125 994 l 261 994 l 261 0 l 125 0 m 418 1295 q 355 1145 418 1215 q 185 1075 291 1075 q 26 1139 84 1075 q -31 1295 -31 1202 l 64 1295 q 99 1217 62 1254 q 185 1179 136 1179 q 282 1214 243 1179 q 321 1295 321 1249 l 418 1295 z "},"ĭ":{"ha":396,"x_min":-25,"x_max":425,"o":"m 154 0 l 154 618 l 54 618 l 54 726 l 285 726 l 285 0 l 154 0 m 425 1092 q 361 942 425 1012 q 191 871 297 871 q 33 935 90 871 q -25 1092 -25 999 l 71 1092 q 105 1013 68 1050 q 191 976 142 976 q 288 1011 249 976 q 328 1092 328 1046 l 425 1092 z "},"Į":{"ha":387,"x_min":83,"x_max":389,"o":"m 389 -229 q 268 -253 323 -253 q 138 -208 190 -253 q 83 -85 83 -161 q 125 33 83 -20 l 125 994 l 261 994 l 261 0 q 212 -34 224 -18 q 195 -90 195 -53 q 271 -154 195 -154 q 343 -133 307 -154 l 389 -229 z "},"į":{"ha":396,"x_min":54,"x_max":410,"o":"m 304 922 q 280 865 304 888 q 225 842 256 842 q 169 865 193 842 q 144 922 144 888 q 168 978 144 954 q 225 1002 192 1002 q 281 978 257 1002 q 304 922 304 954 m 410 -229 q 289 -253 345 -253 q 159 -208 212 -253 q 104 -85 105 -161 q 154 40 105 -15 l 154 618 l 54 618 l 54 726 l 283 726 l 283 0 q 233 -34 245 -18 q 216 -90 217 -53 q 292 -154 217 -154 q 364 -133 329 -154 l 410 -229 z "},"Ĳ":{"ha":1010,"x_min":125,"x_max":908,"o":"m 125 0 l 125 994 l 261 994 l 261 0 l 125 0 m 381 199 l 500 199 q 608 109 516 109 q 735 148 699 109 q 772 366 772 186 l 772 994 l 908 994 l 908 371 q 842 77 908 168 q 608 -14 777 -14 q 449 44 511 -14 q 381 199 387 102 z "},"ĳ":{"ha":836,"x_min":54,"x_max":699,"o":"m 224 1001 q 281 978 258 1001 q 304 922 304 954 q 281 865 304 888 q 224 842 258 842 q 169 865 192 842 q 145 922 145 888 q 168 978 145 955 q 224 1001 191 1001 m 154 0 l 154 618 l 54 618 l 54 726 l 283 726 l 283 0 l 154 0 m 617 1001 q 674 978 650 1001 q 697 922 697 954 q 674 865 697 888 q 617 842 650 842 q 561 865 584 842 q 538 922 538 888 q 561 978 538 955 q 617 1001 584 1001 m 339 -285 l 339 -170 q 521 -129 472 -170 q 570 3 570 -89 l 570 618 l 426 618 l 426 726 l 699 726 l 699 6 q 611 -214 699 -144 q 339 -285 523 -285 z "},"Ĵ":{"ha":662,"x_min":33,"x_max":669,"o":"m 33 199 l 152 199 q 260 109 168 109 q 388 148 351 109 q 425 366 425 186 l 425 994 l 560 994 l 560 371 q 494 77 560 168 q 260 -14 429 -14 q 101 44 163 -14 q 33 199 39 102 m 535 1075 l 425 1203 l 304 1075 l 187 1075 l 389 1304 l 462 1304 l 669 1075 l 535 1075 z "},"ĵ":{"ha":509,"x_min":12,"x_max":496,"o":"m 12 -285 l 12 -170 q 194 -129 145 -170 q 243 3 243 -89 l 243 618 l 99 618 l 99 726 l 372 726 l 372 6 q 284 -214 372 -144 q 12 -285 196 -285 m 362 871 l 252 1000 l 131 871 l 14 871 l 216 1101 l 289 1101 l 496 871 l 362 871 z "},"Ķ":{"ha":800,"x_min":102,"x_max":800,"o":"m 650 0 l 370 457 l 237 269 l 237 0 l 102 0 l 102 994 l 237 994 l 237 453 l 606 994 l 758 994 l 460 563 l 800 0 l 650 0 m 311 -309 l 295 -241 q 383 -223 348 -241 q 418 -172 418 -205 q 357 -122 418 -122 l 357 -41 q 462 -79 425 -41 q 499 -172 499 -117 q 450 -272 499 -236 q 311 -309 400 -309 z "},"ķ":{"ha":701,"x_min":92,"x_max":701,"o":"m 561 0 l 333 363 l 220 248 l 220 0 l 92 0 l 92 1024 l 220 1024 l 220 389 l 498 726 l 649 726 l 416 450 l 701 0 l 561 0 m 274 -309 l 258 -241 q 346 -223 311 -241 q 381 -172 381 -205 q 320 -122 381 -122 l 320 -41 q 425 -79 387 -41 q 462 -172 462 -117 q 412 -272 462 -236 q 274 -309 363 -309 z "},"ĸ":{"ha":757,"x_min":98,"x_max":729,"o":"m 729 0 l 561 0 l 336 329 l 228 208 l 228 0 l 98 0 l 98 726 l 228 726 l 228 367 l 528 726 l 692 726 l 421 421 l 729 0 z "},"Ļ":{"ha":703,"x_min":102,"x_max":686,"o":"m 102 0 l 102 994 l 237 994 l 237 122 l 686 122 l 686 0 l 102 0 m 287 -309 l 271 -241 q 359 -223 323 -241 q 394 -172 394 -205 q 333 -122 394 -122 l 333 -41 q 437 -79 400 -41 q 475 -172 475 -117 q 425 -272 475 -236 q 287 -309 376 -309 z "},"ļ":{"ha":410,"x_min":102,"x_max":352,"o":"m 102 205 l 102 1024 l 231 1024 l 231 227 q 264 135 231 169 q 352 102 298 102 l 352 -14 q 102 205 102 -14 m 164 -309 l 148 -241 q 236 -223 201 -241 q 271 -172 271 -205 q 210 -122 271 -122 l 210 -41 q 315 -79 277 -41 q 352 -172 352 -117 q 302 -272 352 -236 q 164 -309 253 -309 z "},"Ņ":{"ha":886,"x_min":102,"x_max":785,"o":"m 744 -14 l 231 713 l 231 0 l 102 0 l 102 994 l 156 994 l 656 307 l 656 994 l 785 994 l 785 -14 l 744 -14 m 336 -309 l 319 -241 q 408 -223 372 -241 q 443 -172 443 -205 q 382 -122 443 -122 l 382 -41 q 486 -79 449 -41 q 524 -172 524 -117 q 474 -272 524 -236 q 336 -309 425 -309 z "},"ņ":{"ha":759,"x_min":92,"x_max":667,"o":"m 538 0 l 538 422 q 504 585 538 538 q 387 631 469 631 q 294 605 342 631 q 220 540 246 578 l 220 0 l 92 0 l 92 726 l 180 726 l 220 633 q 429 740 284 740 q 667 450 667 740 l 667 0 l 538 0 m 273 -309 l 256 -241 q 345 -223 309 -241 q 380 -172 380 -205 q 319 -122 380 -122 l 319 -41 q 423 -79 386 -41 q 460 -172 460 -117 q 411 -272 460 -236 q 273 -309 361 -309 z "},"ŉ":{"ha":882,"x_min":14,"x_max":790,"o":"m 45 734 l 14 777 q 69 832 62 817 q 75 862 75 847 q 52 907 75 884 q 28 954 28 930 q 98 1024 28 1024 q 171 940 171 1024 q 45 734 171 812 m 661 0 l 661 422 q 626 585 661 538 q 509 631 591 631 q 417 605 465 631 q 343 540 369 578 l 343 0 l 214 0 l 214 726 l 302 726 l 343 633 q 551 740 407 740 q 790 450 790 740 l 790 0 l 661 0 z "},"Ŋ":{"ha":907,"x_min":102,"x_max":810,"o":"m 810 310 q 751 62 810 135 q 576 -14 690 -14 q 406 39 469 -14 l 462 138 q 557 103 511 103 q 626 121 600 103 q 661 171 650 137 q 674 315 674 212 l 674 582 q 616 827 674 766 q 447 889 559 889 q 237 772 333 889 l 237 0 l 102 0 l 102 994 l 182 994 l 237 903 q 494 1011 335 1011 q 810 615 810 1011 l 810 310 z "},"ŋ":{"ha":759,"x_min":92,"x_max":667,"o":"m 667 0 q 586 -213 667 -141 q 368 -285 505 -285 l 368 -170 q 498 -128 454 -170 q 538 0 538 -89 l 538 422 q 503 584 538 537 q 385 631 468 631 q 293 605 340 631 q 220 541 245 578 l 220 0 l 92 0 l 92 726 l 180 726 l 220 633 q 429 740 283 740 q 667 450 667 740 l 667 0 z "},"Ō":{"ha":936,"x_min":54,"x_max":882,"o":"m 54 505 q 162 866 54 721 q 454 1011 271 1011 q 771 878 661 1011 q 882 505 882 744 q 771 122 882 260 q 454 -17 661 -17 q 160 130 267 -17 q 54 505 54 276 m 197 505 q 264 220 197 334 q 454 105 332 105 q 666 210 593 105 q 739 505 739 315 q 454 889 739 889 q 262 786 328 889 q 197 505 197 683 m 705 1171 l 705 1075 l 204 1075 l 204 1171 l 705 1171 z "},"ō":{"ha":745,"x_min":44,"x_max":701,"o":"m 44 365 q 135 636 44 533 q 373 740 225 740 q 615 641 529 740 q 701 365 701 541 q 613 88 701 189 q 373 -14 525 -14 q 131 89 218 -14 q 44 365 44 191 m 180 365 q 373 92 180 92 q 514 165 463 92 q 566 365 566 238 q 373 635 566 635 q 232 563 285 635 q 180 365 180 491 m 623 967 l 623 871 l 123 871 l 123 967 l 623 967 z "},"Ŏ":{"ha":936,"x_min":54,"x_max":882,"o":"m 54 505 q 162 866 54 721 q 454 1011 271 1011 q 771 878 661 1011 q 882 505 882 744 q 771 122 882 260 q 454 -17 661 -17 q 160 130 267 -17 q 54 505 54 276 m 197 505 q 264 220 197 334 q 454 105 332 105 q 666 210 593 105 q 739 505 739 315 q 454 889 739 889 q 262 786 328 889 q 197 505 197 683 m 688 1295 q 624 1145 688 1215 q 454 1075 560 1075 q 296 1139 353 1075 q 238 1295 238 1202 l 334 1295 q 368 1217 332 1254 q 454 1179 405 1179 q 551 1214 512 1179 q 591 1295 591 1249 l 688 1295 z "},"ŏ":{"ha":745,"x_min":44,"x_max":701,"o":"m 44 365 q 135 636 44 533 q 373 740 225 740 q 615 641 529 740 q 701 365 701 541 q 613 88 701 189 q 373 -14 525 -14 q 131 89 218 -14 q 44 365 44 191 m 180 365 q 373 92 180 92 q 514 165 463 92 q 566 365 566 238 q 373 635 566 635 q 232 563 285 635 q 180 365 180 491 m 606 1092 q 543 942 606 1012 q 373 871 479 871 q 214 935 272 871 q 157 1092 157 999 l 252 1092 q 287 1013 250 1050 q 373 976 323 976 q 470 1011 431 976 q 509 1092 509 1046 l 606 1092 z "},"Ŗ":{"ha":808,"x_min":109,"x_max":808,"o":"m 653 0 l 388 427 q 244 433 342 427 l 244 0 l 109 0 l 109 994 q 214 999 116 994 q 357 1004 312 1004 q 715 719 715 1004 q 657 550 715 625 q 520 457 600 475 l 808 0 l 653 0 m 244 871 l 244 549 q 339 542 293 542 q 517 581 461 542 q 572 722 572 621 q 513 842 572 805 q 324 878 453 878 q 244 871 304 878 m 309 -309 l 292 -241 q 380 -223 345 -241 q 416 -172 416 -205 q 355 -122 416 -122 l 355 -41 q 459 -79 422 -41 q 496 -172 496 -117 q 447 -272 496 -236 q 309 -309 397 -309 z "},"ŗ":{"ha":540,"x_min":89,"x_max":540,"o":"m 486 602 q 401 631 444 631 q 282 568 333 631 q 231 416 231 505 l 231 0 l 102 0 l 102 726 l 231 726 l 231 610 q 440 740 301 740 q 540 728 475 740 l 486 602 m 105 -309 l 89 -241 q 177 -223 142 -241 q 212 -172 212 -205 q 151 -122 212 -122 l 151 -41 q 256 -79 218 -41 q 293 -172 293 -117 q 243 -272 293 -236 q 105 -309 194 -309 z "},"Ŝ":{"ha":668,"x_min":54,"x_max":613,"o":"m 57 45 l 106 170 q 201 124 144 142 q 302 105 258 105 q 430 149 382 105 q 478 259 478 192 q 451 352 478 309 q 317 446 425 395 l 237 484 q 95 596 135 531 q 54 753 54 661 q 133 937 54 864 q 335 1010 212 1010 q 564 957 500 1010 l 524 839 q 441 877 497 859 q 338 895 386 895 q 230 856 269 895 q 190 755 190 817 q 204 686 190 717 q 244 633 218 654 q 348 574 269 612 l 429 536 q 572 421 531 488 q 613 251 613 354 q 523 61 613 139 q 283 -17 433 -17 q 57 45 151 -17 m 435 1075 l 325 1203 l 204 1075 l 87 1075 l 290 1304 l 362 1304 l 569 1075 l 435 1075 z "},"ŝ":{"ha":562,"x_min":26,"x_max":518,"o":"m 44 43 l 90 165 q 263 95 197 95 q 382 195 382 95 q 267 319 382 267 q 148 380 178 359 q 94 428 117 401 q 60 485 71 455 q 49 550 49 515 q 114 690 49 640 q 284 740 179 740 q 484 690 363 740 l 448 570 q 294 631 371 631 q 216 610 248 631 q 184 555 184 588 q 264 449 184 485 l 356 407 q 479 319 441 368 q 518 195 518 269 q 450 42 518 97 q 260 -14 381 -14 q 44 43 145 -14 m 374 871 l 263 1000 l 142 871 l 26 871 l 228 1101 l 300 1101 l 507 871 l 374 871 z "},"Ŧ":{"ha":806,"x_min":12,"x_max":794,"o":"m 794 871 l 464 871 l 464 529 l 679 529 l 679 429 l 464 429 l 464 0 l 328 0 l 328 429 l 115 429 l 115 529 l 328 529 l 328 871 l 12 871 l 12 994 l 794 994 l 794 871 z "},"ŧ":{"ha":551,"x_min":33,"x_max":518,"o":"m 518 7 q 343 -14 441 -14 q 197 50 257 -14 q 138 212 138 114 l 138 353 l 33 353 l 33 447 l 138 447 l 138 625 l 33 625 l 33 726 l 138 726 l 138 878 l 267 928 l 267 726 l 479 726 l 479 625 l 267 625 l 267 447 l 444 447 l 444 353 l 267 353 l 267 264 q 298 133 267 172 q 397 94 329 94 q 498 119 446 94 l 518 7 z "},"Ũ":{"ha":901,"x_min":102,"x_max":799,"o":"m 102 994 l 237 994 l 237 313 q 295 164 237 222 q 448 105 353 105 q 606 162 548 105 q 663 317 663 219 l 663 994 l 799 994 l 799 302 q 705 67 799 152 q 449 -17 611 -17 q 192 66 282 -17 q 102 303 102 149 l 102 994 m 666 1215 q 536 1075 630 1075 q 442 1101 493 1075 q 370 1127 391 1127 q 296 1075 321 1127 l 235 1075 q 278 1174 244 1132 q 359 1215 313 1215 q 462 1189 415 1215 q 533 1163 509 1163 q 606 1215 588 1163 l 666 1215 z "},"ũ":{"ha":759,"x_min":85,"x_max":675,"o":"m 214 726 l 214 263 q 359 95 214 95 q 476 132 423 95 q 546 216 529 168 l 546 726 l 675 726 l 675 0 l 546 0 l 546 100 q 459 22 524 58 q 331 -14 393 -14 q 148 55 212 -14 q 85 250 85 123 l 85 726 l 214 726 m 595 1012 q 465 871 559 871 q 371 898 422 871 q 299 924 320 924 q 226 871 251 924 l 164 871 q 208 970 174 928 q 289 1012 242 1012 q 392 986 345 1012 q 463 960 439 960 q 536 1012 517 960 l 595 1012 z "},"Ū":{"ha":901,"x_min":102,"x_max":799,"o":"m 102 994 l 237 994 l 237 313 q 295 164 237 222 q 448 105 353 105 q 606 162 548 105 q 663 317 663 219 l 663 994 l 799 994 l 799 302 q 705 67 799 152 q 449 -17 611 -17 q 192 66 282 -17 q 102 303 102 149 l 102 994 m 701 1171 l 701 1075 l 200 1075 l 200 1171 l 701 1171 z "},"ū":{"ha":759,"x_min":85,"x_max":675,"o":"m 214 726 l 214 263 q 359 95 214 95 q 476 132 423 95 q 546 216 529 168 l 546 726 l 675 726 l 675 0 l 546 0 l 546 100 q 459 22 524 58 q 331 -14 393 -14 q 148 55 212 -14 q 85 250 85 123 l 85 726 l 214 726 m 630 967 l 630 871 l 130 871 l 130 967 l 630 967 z "},"Ŭ":{"ha":901,"x_min":102,"x_max":799,"o":"m 102 994 l 237 994 l 237 313 q 295 164 237 222 q 448 105 353 105 q 606 162 548 105 q 663 317 663 219 l 663 994 l 799 994 l 799 302 q 705 67 799 152 q 449 -17 611 -17 q 192 66 282 -17 q 102 303 102 149 l 102 994 m 675 1295 q 611 1145 675 1215 q 441 1075 547 1075 q 283 1139 340 1075 q 225 1295 225 1202 l 321 1295 q 355 1217 319 1254 q 441 1179 392 1179 q 538 1214 499 1179 q 578 1295 578 1249 l 675 1295 z "},"ŭ":{"ha":759,"x_min":85,"x_max":675,"o":"m 214 726 l 214 263 q 359 95 214 95 q 476 132 423 95 q 546 216 529 168 l 546 726 l 675 726 l 675 0 l 546 0 l 546 100 q 459 22 524 58 q 331 -14 393 -14 q 148 55 212 -14 q 85 250 85 123 l 85 726 l 214 726 m 613 1092 q 549 942 613 1012 q 380 871 486 871 q 221 935 279 871 q 163 1092 163 999 l 259 1092 q 294 1013 257 1050 q 380 976 330 976 q 477 1011 437 976 q 516 1092 516 1046 l 613 1092 z "},"Ų":{"ha":901,"x_min":102,"x_max":799,"o":"m 799 302 q 705 68 799 151 q 530 -11 649 18 q 496 -41 510 -16 q 485 -90 485 -59 q 560 -154 485 -154 q 633 -133 597 -154 l 678 -229 q 557 -253 613 -253 q 428 -208 479 -253 q 373 -85 373 -161 q 387 -14 373 -47 q 102 302 102 16 l 102 994 l 237 994 l 237 314 q 295 163 237 220 q 447 106 353 106 q 604 162 545 106 q 663 317 663 218 l 663 994 l 799 994 l 799 302 z "},"ų":{"ha":759,"x_min":85,"x_max":802,"o":"m 802 -229 q 681 -253 736 -253 q 551 -208 603 -253 q 496 -85 496 -161 q 546 41 496 -14 l 546 100 q 459 22 526 58 q 330 -14 392 -14 q 149 55 214 -14 q 85 250 85 123 l 85 726 l 214 726 l 214 262 q 359 94 214 94 q 476 132 420 94 q 546 216 530 169 l 546 726 l 675 726 l 675 0 q 625 -34 637 -18 q 608 -90 608 -53 q 684 -154 608 -154 q 756 -133 720 -154 l 802 -229 z "},"Ŵ":{"ha":1183,"x_min":9,"x_max":1175,"o":"m 865 -14 l 823 -14 l 586 671 l 365 -14 l 322 -14 l 9 994 l 150 994 l 349 300 l 568 994 l 615 994 l 831 301 l 1034 994 l 1175 994 l 865 -14 m 702 1075 l 591 1203 l 471 1075 l 354 1075 l 556 1304 l 629 1304 l 836 1075 l 702 1075 z "},"ŵ":{"ha":1034,"x_min":10,"x_max":1023,"o":"m 763 -14 l 729 -14 l 516 481 l 304 -14 l 270 -14 l 10 728 l 148 728 l 303 252 l 496 728 l 530 728 l 730 252 l 897 728 l 1023 728 l 763 -14 m 624 871 l 513 1000 l 393 871 l 276 871 l 478 1101 l 551 1101 l 758 871 l 624 871 z "},"Ŷ":{"ha":792,"x_min":9,"x_max":783,"o":"m 465 445 l 465 0 l 329 0 l 329 445 l 9 994 l 149 994 l 396 559 l 644 994 l 783 994 l 465 445 m 507 1075 l 396 1203 l 275 1075 l 159 1075 l 361 1304 l 433 1304 l 640 1075 l 507 1075 z "},"ŷ":{"ha":685,"x_min":8,"x_max":677,"o":"m 369 -123 q 263 -239 344 -193 q 84 -285 183 -285 l 84 -170 q 222 -132 165 -170 q 280 -40 280 -94 q 259 78 280 20 q 205 221 238 136 l 8 726 l 140 726 l 353 165 l 545 726 l 677 726 l 369 -123 m 453 871 l 342 1000 l 222 871 l 105 871 l 307 1101 l 380 1101 l 587 871 l 453 871 z "},"ſ":{"ha":460,"x_min":103,"x_max":473,"o":"m 473 1005 l 441 906 q 364 919 403 919 q 269 874 303 919 q 232 698 232 825 l 232 0 l 103 0 l 103 718 q 171 946 103 867 q 353 1024 239 1024 q 473 1005 408 1024 z "},"Ǻ":{"ha":819,"x_min":3,"x_max":817,"o":"m 817 0 l 666 0 l 593 210 l 231 210 l 155 0 l 3 0 l 384 884 q 281 1014 281 916 q 371 1139 281 1107 l 438 1274 l 571 1274 l 480 1139 q 568 1014 568 1107 q 463 883 568 911 l 817 0 m 494 1014 q 425 1074 494 1074 q 376 1058 396 1074 q 356 1014 356 1041 q 425 953 356 953 q 494 1014 494 953 m 558 309 l 418 713 l 269 309 l 558 309 z "},"ǻ":{"ha":730,"x_min":54,"x_max":675,"o":"m 502 83 q 265 -14 425 -14 q 117 48 180 -14 q 54 203 54 111 q 151 390 54 313 q 397 466 248 466 q 490 448 438 466 q 332 625 490 625 q 146 559 212 625 l 92 667 q 194 719 129 697 q 317 740 258 740 q 547 668 475 740 q 618 439 618 596 l 618 179 q 675 52 618 83 l 675 -13 q 558 9 597 -13 q 502 83 519 32 m 490 357 q 404 370 429 370 q 245 320 307 370 q 183 201 183 270 q 317 88 183 88 q 490 181 414 88 l 490 357 m 349 1054 q 450 1013 408 1054 q 492 912 492 971 q 450 811 492 853 q 349 770 408 770 q 247 811 289 770 q 205 912 205 853 q 247 1013 205 971 q 349 1054 289 1054 m 349 844 q 397 864 377 844 q 417 912 417 884 q 397 960 417 940 q 349 979 377 979 q 300 960 320 979 q 279 912 279 940 q 300 864 279 884 q 349 844 320 844 m 519 1310 l 366 1084 l 271 1084 l 385 1310 l 519 1310 z "},"Ǽ":{"ha":1204,"x_min":12,"x_max":1155,"o":"m 562 208 l 258 208 l 163 0 l 12 0 l 490 994 l 1155 994 l 1155 871 l 697 871 l 697 595 l 1025 595 l 1025 480 l 697 480 l 697 122 l 1147 122 l 1147 0 l 562 0 l 562 208 m 562 871 l 301 309 l 562 309 l 562 871 m 945 1301 l 792 1075 l 697 1075 l 812 1301 l 945 1301 z "},"ǽ":{"ha":1213,"x_min":54,"x_max":1160,"o":"m 1150 351 l 633 351 q 694 165 633 235 q 855 95 754 95 q 1041 169 974 95 l 1095 66 q 981 3 1042 19 q 830 -14 919 -14 q 628 51 715 -14 q 635 -14 631 17 l 526 -14 q 503 83 519 18 q 273 -14 425 -14 q 118 46 182 -14 q 54 191 54 105 q 150 389 54 314 q 401 463 246 463 q 491 448 439 463 q 333 625 491 625 q 147 559 212 625 l 93 667 q 194 719 130 697 q 318 740 259 740 q 582 623 517 740 q 831 740 682 740 q 1071 650 982 740 q 1160 416 1160 559 q 1150 351 1160 385 m 633 444 l 1039 444 q 982 579 1039 528 q 831 631 924 631 q 690 570 747 631 q 633 444 633 509 m 491 357 q 405 370 450 370 q 246 316 309 370 q 183 201 183 262 q 317 88 183 88 q 491 181 416 88 l 491 357 m 787 1097 l 633 871 l 538 871 l 653 1097 l 787 1097 z "},"Ǿ":{"ha":912,"x_min":45,"x_max":873,"o":"m 237 45 l 192 -17 l 45 -17 l 154 126 q 45 505 45 271 q 154 866 45 721 q 446 1011 262 1011 q 690 943 591 1011 l 736 1011 l 873 1011 l 775 862 q 873 505 873 730 q 762 122 873 260 q 446 -17 652 -17 q 237 45 326 -17 m 619 833 q 446 889 552 889 q 254 786 319 889 q 188 505 188 683 q 240 249 188 358 l 619 833 m 691 734 l 310 154 q 446 105 367 105 q 658 211 585 105 q 730 505 730 317 q 691 734 730 644 m 594 1301 l 441 1075 l 346 1075 l 460 1301 l 594 1301 z "},"ǿ":{"ha":758,"x_min":41,"x_max":699,"o":"m 183 39 l 144 -14 l 41 -14 l 122 96 q 41 365 41 197 q 132 636 41 533 q 370 740 222 740 q 559 688 482 740 l 597 740 l 699 740 l 619 632 q 699 365 699 533 q 610 88 699 189 q 370 -14 522 -14 q 183 39 260 -14 m 200 201 l 488 591 q 370 628 437 628 q 225 558 279 628 q 170 365 170 488 q 200 201 170 264 m 253 135 q 370 92 300 92 q 515 165 461 92 q 570 365 570 239 q 541 526 570 464 l 253 135 m 522 1097 l 369 871 l 274 871 l 389 1097 l 522 1097 z "},"Ẁ":{"ha":1183,"x_min":9,"x_max":1175,"o":"m 865 -14 l 823 -14 l 586 671 l 365 -14 l 322 -14 l 9 994 l 150 994 l 349 300 l 568 994 l 615 994 l 831 301 l 1034 994 l 1175 994 l 865 -14 m 568 1075 l 414 1301 l 548 1301 l 663 1075 l 568 1075 z "},"ẁ":{"ha":1034,"x_min":10,"x_max":1023,"o":"m 763 -14 l 729 -14 l 516 481 l 304 -14 l 270 -14 l 10 728 l 148 728 l 303 252 l 496 728 l 530 728 l 730 252 l 897 728 l 1023 728 l 763 -14 m 496 871 l 343 1097 l 477 1097 l 591 871 l 496 871 z "},"Ẃ":{"ha":1183,"x_min":9,"x_max":1175,"o":"m 865 -14 l 823 -14 l 586 671 l 365 -14 l 322 -14 l 9 994 l 150 994 l 349 300 l 568 994 l 615 994 l 831 301 l 1034 994 l 1175 994 l 865 -14 m 768 1301 l 615 1075 l 520 1075 l 635 1301 l 768 1301 z "},"ẃ":{"ha":1034,"x_min":10,"x_max":1023,"o":"m 763 -14 l 729 -14 l 516 481 l 304 -14 l 270 -14 l 10 728 l 148 728 l 303 252 l 496 728 l 530 728 l 730 252 l 897 728 l 1023 728 l 763 -14 m 684 1097 l 530 871 l 435 871 l 550 1097 l 684 1097 z "},"Ẅ":{"ha":1183,"x_min":9,"x_max":1175,"o":"m 865 -14 l 823 -14 l 586 671 l 365 -14 l 322 -14 l 9 994 l 150 994 l 349 300 l 568 994 l 615 994 l 831 301 l 1034 994 l 1175 994 l 865 -14 m 431 1230 q 485 1207 463 1230 q 507 1154 507 1185 q 485 1099 507 1122 q 431 1077 463 1077 q 377 1099 399 1077 q 355 1154 355 1122 q 377 1207 355 1185 q 431 1230 399 1230 m 751 1230 q 806 1207 783 1230 q 828 1154 828 1185 q 806 1099 828 1122 q 751 1077 783 1077 q 697 1099 720 1077 q 675 1154 675 1122 q 697 1207 675 1185 q 751 1230 720 1230 z "},"ẅ":{"ha":1034,"x_min":10,"x_max":1023,"o":"m 763 -14 l 729 -14 l 516 481 l 304 -14 l 270 -14 l 10 728 l 148 728 l 303 252 l 496 728 l 530 728 l 730 252 l 897 728 l 1023 728 l 763 -14 m 353 1026 q 407 1004 385 1026 q 429 950 429 982 q 407 896 429 918 q 353 873 385 873 q 299 896 321 873 q 277 950 277 918 q 299 1004 277 982 q 353 1026 321 1026 m 673 1026 q 728 1004 705 1026 q 750 950 750 982 q 728 896 750 918 q 673 873 705 873 q 620 896 642 873 q 597 950 597 918 q 620 1004 597 982 q 673 1026 642 1026 z "},"Ỳ":{"ha":792,"x_min":9,"x_max":783,"o":"m 465 445 l 465 0 l 329 0 l 329 445 l 9 994 l 149 994 l 396 559 l 644 994 l 783 994 l 465 445 m 390 1075 l 237 1301 l 370 1301 l 485 1075 l 390 1075 z "},"ỳ":{"ha":685,"x_min":8,"x_max":677,"o":"m 369 -123 q 263 -239 344 -193 q 84 -285 183 -285 l 84 -170 q 222 -132 165 -170 q 280 -40 280 -94 q 259 78 280 20 q 205 221 238 136 l 8 726 l 140 726 l 353 165 l 545 726 l 677 726 l 369 -123 m 326 871 l 173 1097 l 307 1097 l 421 871 l 326 871 z "},"―":{"ha":1020,"x_min":63,"x_max":951,"o":"m 63 361 l 63 426 l 951 426 l 951 361 l 63 361 z "},"‗":{"ha":728,"x_min":-5,"x_max":730,"o":"m 730 -172 l -5 -172 l -5 -85 l 730 -85 l 730 -172 m 730 -342 l -5 -342 l -5 -254 l 730 -254 l 730 -342 z "},"′":{"ha":222,"x_min":38,"x_max":241,"o":"m 128 716 l 38 716 l 117 995 l 241 995 l 128 716 z "},"″":{"ha":471,"x_min":38,"x_max":445,"o":"m 128 716 l 38 716 l 117 995 l 241 995 l 128 716 m 332 716 l 241 716 l 320 995 l 445 995 l 332 716 z "},"‼":{"ha":846,"x_min":159,"x_max":696,"o":"m 280 259 l 232 259 q 180 733 180 600 l 180 1011 l 333 1011 l 333 734 q 280 259 333 604 m 260 191 q 332 161 302 191 q 362 89 362 131 q 332 17 362 47 q 260 -14 302 -14 q 189 17 218 -14 q 159 89 159 47 q 189 161 159 131 q 260 191 218 191 m 614 259 l 566 259 q 513 733 513 600 l 513 1011 l 667 1011 l 667 734 q 614 259 667 604 m 594 191 q 666 161 636 191 q 696 89 696 131 q 666 17 696 47 q 594 -14 636 -14 q 522 17 552 -14 q 492 89 492 47 q 522 161 492 131 q 594 191 552 191 z "},"‾":{"ha":728,"x_min":-4,"x_max":532,"o":"m 532 998 l 532 915 l -4 915 l -4 998 l 532 998 z "},"ⁿ":{"ha":543,"x_min":100,"x_max":473,"o":"m 473 567 l 382 567 l 382 819 q 363 909 382 884 q 290 935 344 935 q 192 888 239 935 l 192 567 l 100 567 l 100 1003 l 164 1003 l 187 962 q 318 1011 240 1011 q 473 836 473 1011 l 473 567 z "},"₤":{"ha":728,"x_min":90,"x_max":694,"o":"m 694 123 q 391 0 623 0 l 90 0 l 90 94 q 151 182 151 115 l 151 354 l 90 354 l 90 446 l 151 446 l 151 551 l 90 551 l 90 643 l 151 643 l 151 681 q 216 911 151 823 q 427 1011 290 1011 q 626 929 567 1011 l 562 839 q 412 897 518 897 q 287 686 287 897 l 287 643 l 492 643 l 492 551 l 287 551 l 287 446 l 492 446 l 492 354 l 287 354 l 287 122 l 438 122 q 597 199 543 122 l 694 123 z "},"₧":{"ha":1547,"x_min":94,"x_max":1503,"o":"m 1503 195 q 1430 34 1503 87 q 1258 -14 1367 -14 q 1080 41 1158 -14 q 936 -14 1023 -14 q 790 48 844 -14 q 737 216 737 111 l 737 627 l 644 627 q 296 378 599 378 q 243 382 285 378 l 227 383 l 227 0 l 94 0 l 94 994 q 271 1001 206 1001 q 650 726 640 1001 l 737 726 l 737 878 l 865 928 l 865 726 l 1021 726 l 1021 627 l 865 627 l 865 258 q 889 131 865 164 q 966 93 916 93 q 1089 180 1034 93 q 1265 93 1174 93 q 1372 196 1372 93 q 1294 300 1372 256 q 1150 383 1222 342 q 1072 547 1072 445 q 1138 694 1072 642 q 1291 740 1197 740 q 1474 691 1357 740 l 1438 570 q 1295 631 1363 631 q 1231 612 1256 631 q 1203 551 1203 590 q 1281 442 1203 487 q 1425 359 1353 401 q 1503 195 1503 298 m 517 696 q 285 880 517 880 q 227 874 252 880 l 227 504 q 292 497 256 497 q 517 696 517 497 z "},"℅":{"ha":1048,"x_min":66,"x_max":983,"o":"m 446 592 q 282 545 373 545 q 126 607 186 545 q 66 776 66 669 q 129 947 66 879 q 298 1015 193 1015 q 444 971 385 1015 l 399 906 q 296 938 352 938 q 199 896 237 938 q 161 774 161 853 q 200 661 161 699 q 299 623 239 623 q 407 663 350 623 l 446 592 m 905 1015 l 241 -28 l 155 -28 l 819 1015 l 905 1015 m 983 215 q 926 44 983 109 q 771 -21 868 -21 q 612 45 669 -21 q 559 215 559 107 q 618 383 559 317 q 772 449 678 449 q 928 387 873 449 q 983 215 983 325 m 888 215 q 772 372 888 372 q 654 215 654 372 q 771 56 654 56 q 888 215 888 56 z "},"ℓ":{"ha":728,"x_min":79,"x_max":615,"o":"m 615 56 q 530 6 589 27 q 433 -14 475 -14 q 224 81 283 -14 q 178 316 178 155 l 119 281 l 79 393 q 178 453 137 426 l 178 551 q 205 839 178 745 q 398 1011 254 1011 q 536 956 487 1011 q 584 814 584 904 q 482 582 584 721 q 307 389 405 478 l 307 316 q 326 171 307 217 q 441 102 357 102 q 541 159 486 102 l 615 56 m 456 807 q 397 896 456 896 q 321 799 344 896 q 307 661 307 738 l 307 555 q 456 807 456 704 z "},"№":{"ha":1270,"x_min":102,"x_max":1203,"o":"m 1203 441 q 1156 277 1203 339 q 1006 207 1104 207 q 857 277 909 207 q 810 441 810 340 q 860 603 810 538 q 1008 672 915 672 q 1157 605 1106 672 q 1203 441 1203 544 m 1174 0 l 842 0 l 842 89 l 1174 89 l 1174 0 m 724 -9 l 679 -9 l 224 687 l 224 0 l 102 0 l 102 1004 l 146 1004 l 602 307 l 602 994 l 724 994 l 724 -9 m 1102 441 q 1006 585 1102 585 q 911 441 911 585 q 1008 294 911 294 q 1102 441 1102 294 z "},"℮":{"ha":763,"x_min":41,"x_max":721,"o":"m 721 364 l 169 364 l 169 113 q 378 29 271 29 q 528 60 442 29 q 640 123 613 90 l 672 87 q 380 -14 562 -14 q 137 87 233 -14 q 41 355 41 189 q 141 633 41 527 q 382 740 241 740 q 630 627 538 740 q 721 364 721 514 m 170 601 l 170 410 l 597 410 l 597 601 q 384 697 515 697 q 170 601 258 697 z "},"⅛":{"ha":1131,"x_min":68,"x_max":1038,"o":"m 1038 160 q 988 33 1038 79 q 851 -14 939 -14 q 671 160 671 -14 q 702 258 671 211 q 779 325 733 306 q 693 457 693 370 q 737 562 693 525 q 854 602 784 602 q 972 561 928 602 q 1014 457 1014 523 q 989 377 1014 416 q 929 317 965 338 q 1038 160 1038 256 m 887 1011 l 227 -24 l 141 -24 l 801 1011 l 887 1011 m 284 404 l 196 404 l 196 861 l 68 785 l 68 861 q 260 1002 205 928 l 284 1002 l 284 404 m 926 455 q 854 526 926 526 q 781 459 781 526 q 810 401 781 432 q 878 350 841 369 q 926 455 926 397 m 949 160 q 842 290 949 230 q 759 160 759 244 q 851 62 759 62 q 949 160 949 62 z "},"⅜":{"ha":1131,"x_min":66,"x_max":1043,"o":"m 1043 160 q 994 32 1043 77 q 859 -14 945 -14 q 676 160 676 -14 q 708 258 676 209 q 785 325 740 307 q 699 457 699 371 q 746 565 699 526 q 860 602 790 602 q 979 561 935 602 q 1021 457 1021 524 q 996 377 1021 416 q 936 317 972 339 q 1043 160 1043 257 m 918 1011 l 258 -24 l 172 -24 l 832 1011 l 918 1011 m 406 578 q 205 397 406 397 q 66 446 117 397 l 107 516 q 207 479 140 479 q 317 575 317 479 q 283 656 317 626 q 200 685 251 685 l 193 685 l 193 754 l 197 754 q 296 848 296 754 q 203 930 296 930 q 118 898 146 930 l 82 961 q 208 1011 120 1011 q 336 968 286 1011 q 385 861 385 927 q 360 777 385 815 q 293 722 336 738 q 406 578 406 685 m 932 455 q 860 526 932 526 q 787 459 787 526 q 885 350 787 402 q 932 455 932 395 m 955 160 q 847 290 955 230 q 764 160 764 244 q 859 62 764 62 q 955 160 955 62 z "},"⅝":{"ha":1131,"x_min":80,"x_max":1044,"o":"m 1044 160 q 995 33 1044 79 q 859 -14 945 -14 q 677 160 677 -14 q 709 258 677 211 q 786 325 740 306 q 700 457 700 370 q 746 563 700 525 q 861 602 791 602 q 979 561 935 602 q 1021 457 1021 523 q 996 377 1021 416 q 936 317 972 338 q 1044 160 1044 256 m 918 1011 l 258 -24 l 172 -24 l 832 1011 l 918 1011 m 429 619 q 220 397 429 397 q 80 443 134 397 l 111 519 q 220 479 161 479 q 341 607 341 479 q 221 727 341 727 q 120 686 161 727 l 94 705 l 94 1000 l 392 1000 l 392 920 l 174 920 l 174 786 q 249 808 202 808 q 380 758 332 808 q 429 619 429 708 m 932 455 q 861 526 932 526 q 788 459 788 526 q 818 401 788 432 q 885 350 847 370 q 932 455 932 396 m 956 160 q 848 290 956 230 q 766 160 766 244 q 859 62 766 62 q 956 160 956 62 z "},"⅞":{"ha":1131,"x_min":111,"x_max":1044,"o":"m 1044 160 q 995 33 1044 79 q 859 -14 945 -14 q 677 160 677 -14 q 709 258 677 211 q 786 325 740 306 q 700 457 700 370 q 746 563 700 525 q 861 602 791 602 q 979 561 935 602 q 1021 457 1021 523 q 996 377 1021 416 q 936 317 972 338 q 1044 160 1044 256 m 904 1011 l 244 -24 l 158 -24 l 818 1011 l 904 1011 m 497 968 l 418 810 q 293 527 340 656 q 252 404 266 453 l 147 404 q 385 920 197 567 l 111 920 l 111 1000 l 497 1000 l 497 968 m 932 455 q 861 526 932 526 q 788 459 788 526 q 818 401 788 432 q 885 350 847 370 q 932 455 932 396 m 956 160 q 848 290 956 230 q 766 160 766 244 q 859 62 766 62 q 956 160 956 62 z "},"□":{"ha":839,"x_min":99,"x_max":739,"o":"m 99 640 l 739 640 l 739 0 l 99 0 l 99 640 m 151 589 l 151 52 l 688 52 l 688 589 l 151 589 z "},"▪":{"ha":492,"x_min":89,"x_max":403,"o":"m 403 616 l 403 302 l 89 302 l 89 616 l 403 616 z "},"▫":{"ha":492,"x_min":89,"x_max":403,"o":"m 403 616 l 403 302 l 89 302 l 89 616 l 403 616 m 351 564 l 140 564 l 140 353 l 351 353 l 351 564 z "},"●":{"ha":839,"x_min":120,"x_max":718,"o":"m 120 391 q 208 602 120 515 q 419 690 295 690 q 630 602 543 690 q 718 391 718 515 q 630 180 718 267 q 419 92 543 92 q 208 180 295 92 q 120 391 120 267 z "},"◦":{"ha":492,"x_min":76,"x_max":416,"o":"m 246 629 q 367 579 317 629 q 416 459 416 530 q 367 339 416 389 q 246 289 317 289 q 126 339 176 289 q 76 459 76 389 q 125 579 76 530 q 246 629 175 629 m 246 578 q 162 543 197 578 q 127 459 127 508 q 162 375 127 410 q 246 340 197 340 q 330 375 295 340 q 365 459 365 410 q 330 543 365 508 q 246 578 296 578 z "},"‛":{"ha":510,"x_min":150,"x_max":375,"o":"m 375 671 l 330 611 q 150 904 150 724 q 255 1024 150 1024 q 353 924 353 1024 q 320 857 353 894 q 287 793 287 821 q 324 715 287 747 l 375 671 z "},"Ș":{"ha":668,"x_min":54,"x_max":613,"o":"m 57 45 l 106 170 q 201 124 144 142 q 302 105 258 105 q 430 149 382 105 q 478 259 478 192 q 451 352 478 309 q 317 446 425 395 l 237 484 q 95 596 135 531 q 54 753 54 661 q 133 937 54 864 q 335 1010 212 1010 q 564 957 500 1010 l 524 839 q 441 877 497 859 q 338 895 386 895 q 230 856 269 895 q 190 755 190 817 q 204 686 190 717 q 244 633 218 654 q 348 574 269 612 l 429 536 q 572 421 531 488 q 613 251 613 354 q 523 61 613 139 q 283 -17 433 -17 q 57 45 151 -17 m 274 -364 l 242 -321 q 297 -267 291 -282 q 304 -237 304 -252 q 280 -192 304 -214 q 257 -144 257 -169 q 326 -75 257 -75 q 399 -159 399 -75 q 274 -364 399 -286 z "},"ș":{"ha":562,"x_min":44,"x_max":518,"o":"m 44 43 l 90 165 q 263 95 197 95 q 382 195 382 95 q 267 319 382 267 q 148 380 178 359 q 94 428 117 401 q 60 485 71 455 q 49 550 49 515 q 114 690 49 640 q 284 740 179 740 q 484 690 363 740 l 448 570 q 294 631 371 631 q 216 610 248 631 q 184 555 184 588 q 264 449 184 485 l 356 407 q 479 319 441 368 q 518 195 518 269 q 450 42 518 97 q 260 -14 381 -14 q 44 43 145 -14 m 221 -363 l 189 -321 q 244 -266 238 -281 q 251 -236 251 -251 q 228 -191 251 -214 q 204 -144 204 -168 q 273 -74 204 -74 q 347 -158 347 -74 q 221 -363 347 -286 z "},"Ţ":{"ha":806,"x_min":12,"x_max":794,"o":"m 464 871 l 464 0 l 328 0 l 328 871 l 12 871 l 12 994 l 794 994 l 794 871 l 464 871 m 311 -309 l 295 -241 q 383 -223 348 -241 q 418 -172 418 -205 q 357 -122 418 -122 l 357 -41 q 462 -79 425 -41 q 499 -172 499 -117 q 450 -272 499 -236 q 311 -309 400 -309 z "},"ţ":{"ha":551,"x_min":54,"x_max":518,"o":"m 138 625 l 54 625 l 54 726 l 138 726 l 138 878 l 267 928 l 267 726 l 466 726 l 466 625 l 267 625 l 267 264 q 297 134 267 172 q 397 95 328 95 q 499 120 446 95 l 518 7 q 342 -14 438 -14 q 197 51 256 -14 q 138 212 138 115 l 138 625 m 184 -309 l 168 -241 q 256 -223 221 -241 q 292 -172 292 -205 q 231 -122 292 -122 l 231 -41 q 335 -79 298 -41 q 372 -172 372 -117 q 323 -272 372 -236 q 184 -309 273 -309 z "},"ﬆ":{"ha":1096,"x_min":41,"x_max":1079,"o":"m 704 618 l 621 618 l 621 726 l 704 726 l 704 790 q 673 913 704 878 q 574 949 642 949 q 468 912 507 949 q 428 821 428 876 q 496 690 428 729 l 453 582 q 297 632 370 632 q 189 554 189 632 q 231 479 189 511 q 345 415 272 448 q 483 320 443 370 q 522 195 522 270 q 459 42 522 97 q 283 -14 397 -14 q 41 54 141 -14 l 98 161 q 282 94 208 94 q 392 187 392 94 q 366 255 392 225 q 256 323 339 284 q 61 550 61 411 q 125 688 61 636 q 296 741 189 741 q 338 737 323 741 q 314 846 314 777 q 389 996 314 935 q 575 1057 463 1057 q 764 998 694 1057 q 833 836 833 938 l 833 726 l 1048 726 l 1048 618 l 833 618 l 833 252 q 936 94 833 94 q 1047 119 995 94 l 1079 20 q 918 -14 1004 -14 q 761 50 817 -14 q 704 221 704 113 l 704 618 z "},"ﬀ":{"ha":930,"x_min":21,"x_max":957,"o":"m 932 904 q 839 922 882 922 q 715 742 715 922 l 715 726 l 918 726 l 918 618 l 715 618 l 715 0 l 586 0 l 586 618 l 269 618 l 269 0 l 140 0 l 140 618 l 21 618 l 21 726 l 140 726 q 208 933 140 856 q 390 1010 276 1010 q 511 990 456 1010 l 486 890 q 393 908 438 908 q 303 864 338 908 q 269 741 269 821 l 269 726 l 586 726 q 836 1023 586 1023 q 957 1004 902 1023 l 932 904 z "},"ﬃ":{"ha":1253,"x_min":21,"x_max":1168,"o":"m 1032 0 l 1032 618 l 715 618 l 715 0 l 586 0 l 586 618 l 269 618 l 269 0 l 140 0 l 140 618 l 21 618 l 21 726 l 140 726 q 208 933 140 856 q 390 1010 276 1010 q 511 990 456 1010 l 486 890 q 393 908 438 908 q 303 864 338 908 q 269 741 269 821 l 269 726 l 586 726 q 649 946 586 869 q 836 1023 713 1023 q 957 1004 902 1023 l 932 904 q 839 922 882 922 q 715 742 715 922 l 715 726 l 1161 726 l 1161 0 l 1032 0 m 1168 922 q 1145 865 1168 888 q 1089 842 1122 842 q 1032 865 1056 842 q 1008 922 1008 889 q 1032 978 1008 954 q 1089 1002 1056 1002 q 1144 978 1121 1002 q 1168 922 1168 955 z "},"ﬄ":{"ha":1278,"x_min":21,"x_max":1264,"o":"m 1014 922 l 886 922 q 761 872 806 922 q 715 742 715 823 l 715 726 l 918 726 l 918 618 l 715 618 l 715 0 l 586 0 l 586 618 l 269 618 l 269 0 l 140 0 l 140 618 l 21 618 l 21 726 l 140 726 q 208 933 140 856 q 390 1010 276 1010 q 511 990 456 1010 l 486 890 q 393 908 438 908 q 303 864 338 908 q 269 741 269 821 l 269 726 l 586 726 q 662 945 586 867 q 879 1023 737 1023 l 1143 1023 l 1143 228 q 1176 135 1143 169 q 1264 102 1209 102 l 1264 -14 q 1014 205 1014 -14 l 1014 922 z "},"⁰":{"ha":528,"x_min":53,"x_max":476,"o":"m 267 1007 q 426 934 376 1007 q 476 705 476 861 q 269 395 476 395 q 53 708 53 395 q 267 1007 53 1007 m 267 473 q 352 529 330 473 q 374 711 374 585 q 351 878 374 829 q 264 928 328 928 q 180 877 206 928 q 154 713 154 826 q 267 473 154 473 z "},"⁴":{"ha":528,"x_min":11,"x_max":482,"o":"m 399 542 l 399 403 l 301 403 l 301 542 l 11 542 l 11 603 l 359 1002 l 399 1002 l 399 619 l 482 619 l 482 542 l 399 542 m 301 836 l 115 619 l 301 619 l 301 836 z "},"⁵":{"ha":528,"x_min":57,"x_max":464,"o":"m 94 681 l 94 993 l 429 993 l 429 909 l 187 909 l 187 765 q 282 787 222 787 q 412 738 361 787 q 464 602 464 688 q 402 449 464 504 q 244 395 341 395 q 57 449 123 395 l 104 522 q 250 473 172 473 q 327 506 297 473 q 357 597 357 538 q 245 708 357 708 q 125 661 170 708 l 94 681 z "},"⁶":{"ha":528,"x_min":58,"x_max":475,"o":"m 330 1011 l 386 937 q 222 829 268 876 q 167 715 177 781 q 300 771 218 771 q 427 721 378 771 q 475 591 475 671 q 420 446 475 503 q 279 389 366 389 q 118 450 177 389 q 58 618 58 511 q 330 1011 58 873 m 272 467 q 344 497 317 467 q 371 578 371 527 q 344 662 371 630 q 272 694 317 694 q 194 664 223 694 q 165 583 165 634 q 194 498 165 530 q 272 467 222 467 z "},"⁷":{"ha":528,"x_min":52,"x_max":484,"o":"m 106 403 q 355 909 169 589 l 52 909 l 52 993 l 484 993 l 484 961 l 439 884 q 216 403 288 624 l 106 403 z "},"⁸":{"ha":528,"x_min":58,"x_max":467,"o":"m 175 732 q 82 864 82 783 q 133 966 82 926 q 262 1007 184 1007 q 393 968 343 1007 q 443 868 443 930 q 354 730 443 784 q 467 572 467 673 q 411 444 467 492 q 260 395 355 395 q 113 440 167 395 q 58 567 58 486 q 175 732 58 679 m 289 762 q 343 860 343 799 q 320 911 343 892 q 262 930 297 930 q 184 860 184 930 q 289 762 184 803 m 248 696 q 161 568 161 653 q 264 472 161 472 q 339 498 311 472 q 367 568 367 524 q 248 696 367 640 z "},"⁹":{"ha":528,"x_min":53,"x_max":469,"o":"m 197 385 l 142 458 q 305 567 260 519 q 361 681 351 614 q 228 625 310 625 q 101 675 150 625 q 53 804 53 725 q 108 950 53 894 q 249 1007 163 1007 q 410 946 351 1007 q 469 778 469 884 q 197 385 469 523 m 256 929 q 184 899 211 929 q 157 818 157 869 q 184 733 157 766 q 256 701 211 701 q 334 732 305 701 q 363 812 363 763 q 334 898 363 866 q 256 929 305 929 z "},"₀":{"ha":528,"x_min":53,"x_max":476,"o":"m 267 606 q 426 533 376 606 q 476 304 476 460 q 269 -6 476 -6 q 53 307 53 -6 q 267 606 53 606 m 267 73 q 352 129 330 73 q 374 311 374 184 q 351 477 374 428 q 264 527 328 527 q 180 476 206 527 q 154 312 154 425 q 267 73 154 73 z "},"₁":{"ha":627,"x_min":170,"x_max":386,"o":"m 298 3 l 298 460 l 170 384 l 170 460 q 361 602 304 528 l 386 602 l 386 3 l 298 3 z "},"₂":{"ha":627,"x_min":110,"x_max":491,"o":"m 125 3 l 125 19 l 305 300 q 363 451 363 391 q 277 534 363 534 q 162 450 204 534 l 110 492 q 173 576 127 543 q 273 610 218 610 q 452 458 452 610 q 389 277 452 376 l 264 83 l 491 83 l 491 3 l 125 3 z "},"₃":{"ha":630,"x_min":125,"x_max":465,"o":"m 125 45 l 165 114 q 266 77 199 77 q 376 174 376 77 q 345 254 376 223 q 258 284 314 284 l 252 284 l 252 353 l 256 353 q 356 448 356 353 q 262 528 356 528 q 178 498 204 528 l 141 560 q 268 610 179 610 q 395 567 347 610 q 444 460 444 525 q 417 373 444 411 q 353 321 391 336 q 465 168 465 285 q 264 -4 465 -4 q 125 45 177 -4 z "},"₄":{"ha":528,"x_min":11,"x_max":482,"o":"m 399 141 l 399 2 l 301 2 l 301 141 l 11 141 l 11 202 l 359 601 l 399 601 l 399 218 l 482 218 l 482 141 l 399 141 m 301 435 l 115 218 l 301 218 l 301 435 z "},"₅":{"ha":528,"x_min":57,"x_max":464,"o":"m 94 280 l 94 592 l 429 592 l 429 509 l 187 509 l 187 364 q 282 387 222 387 q 412 337 361 387 q 464 201 464 287 q 402 48 464 103 q 244 -6 341 -6 q 57 48 123 -6 l 104 121 q 250 73 172 73 q 327 105 297 73 q 357 197 357 137 q 245 307 357 307 q 125 260 170 307 l 94 280 z "},"₆":{"ha":528,"x_min":58,"x_max":475,"o":"m 330 610 l 386 536 q 222 428 268 475 q 167 315 177 380 q 300 370 218 370 q 427 320 378 370 q 475 191 475 270 q 420 45 475 102 q 279 -12 366 -12 q 118 49 177 -12 q 58 217 58 111 q 330 610 58 472 m 272 66 q 344 96 317 66 q 371 177 371 126 q 344 261 371 229 q 272 294 317 294 q 194 263 223 294 q 165 182 165 233 q 194 98 165 130 q 272 66 222 66 z "},"₇":{"ha":528,"x_min":52,"x_max":484,"o":"m 106 2 q 355 509 169 188 l 52 509 l 52 592 l 484 592 l 484 560 l 439 483 q 216 2 288 223 l 106 2 z "},"₈":{"ha":528,"x_min":58,"x_max":467,"o":"m 175 331 q 82 463 82 382 q 133 566 82 525 q 262 606 184 606 q 393 568 343 606 q 443 467 443 529 q 354 330 443 383 q 467 172 467 272 q 411 43 467 92 q 260 -6 355 -6 q 113 40 167 -6 q 58 166 58 85 q 175 331 58 278 m 289 361 q 343 459 343 398 q 320 511 343 492 q 262 530 297 530 q 184 459 184 530 q 289 361 184 402 m 248 295 q 161 168 161 252 q 264 71 161 71 q 339 97 311 71 q 367 168 367 123 q 248 295 367 239 z "},"₉":{"ha":528,"x_min":53,"x_max":469,"o":"m 197 -16 l 142 58 q 305 166 260 118 q 361 280 351 214 q 228 224 310 224 q 101 274 150 224 q 53 404 53 324 q 108 550 53 493 q 249 606 163 606 q 410 545 351 606 q 469 377 469 484 q 197 -16 469 122 m 256 528 q 184 498 211 528 q 157 417 157 469 q 184 333 157 365 q 256 300 211 300 q 334 331 305 300 q 363 412 363 362 q 334 497 363 465 q 256 528 305 528 z "},"Ѝ":{"ha":933,"x_min":102,"x_max":832,"o":"m 832 0 l 696 0 l 696 713 l 138 -14 l 102 -14 l 102 993 l 237 993 l 237 281 l 796 1007 l 832 1007 l 832 0 m 447 1075 l 294 1301 l 427 1301 l 542 1075 l 447 1075 z "},"ѝ":{"ha":794,"x_min":92,"x_max":703,"o":"m 703 0 l 574 0 l 574 497 l 121 -20 l 92 -20 l 92 726 l 221 726 l 221 229 l 673 746 l 703 746 l 703 0 m 413 871 l 260 1097 l 393 1097 l 508 871 l 413 871 z "},"Ա":{"ha":935,"x_min":102,"x_max":897,"o":"m 102 994 l 237 994 l 237 313 q 295 160 237 214 q 458 105 353 105 q 625 158 572 105 q 677 313 677 212 l 677 994 l 812 994 l 812 313 q 801 217 812 261 q 768 135 789 172 q 824 102 791 119 q 897 74 856 86 l 826 -50 q 752 -16 792 -39 q 675 39 711 7 q 458 -17 588 -17 q 311 6 377 -17 q 198 72 245 29 q 127 176 152 115 q 102 313 102 237 l 102 994 z "},"Բ":{"ha":914,"x_min":102,"x_max":819,"o":"m 799 557 l 663 557 l 663 680 q 609 834 663 779 q 449 888 554 888 q 291 834 344 888 q 237 680 237 779 l 237 407 l 819 407 l 819 285 l 237 285 l 237 0 l 102 0 l 102 680 q 125 818 102 757 q 194 922 149 879 q 303 987 239 964 q 449 1010 368 1010 q 595 987 530 1010 q 706 922 661 964 q 775 818 751 879 q 799 680 799 757 l 799 557 z "},"Գ":{"ha":948,"x_min":75,"x_max":948,"o":"m 948 285 l 792 285 l 792 0 l 656 0 l 656 285 l 438 285 q 290 308 357 285 q 175 377 222 332 q 101 491 127 423 q 75 648 75 559 q 101 804 75 736 q 175 918 127 872 q 290 987 222 964 q 438 1010 357 1010 q 585 987 519 1010 q 697 922 651 964 q 767 818 743 879 q 792 680 792 757 l 792 407 l 948 407 l 948 285 m 656 407 l 656 680 q 600 835 656 779 q 438 890 543 890 q 344 876 386 890 q 273 831 302 861 q 229 755 244 801 q 214 648 214 709 q 229 541 214 587 q 273 466 244 496 q 344 421 302 436 q 438 407 386 407 l 656 407 z "},"Դ":{"ha":914,"x_min":68,"x_max":914,"o":"m 68 680 q 92 818 68 757 q 161 922 116 879 q 271 987 206 964 q 418 1010 336 1010 q 564 987 499 1010 q 673 922 628 964 q 741 818 718 879 q 765 680 765 757 l 765 407 l 914 407 l 914 285 l 765 285 l 765 0 l 629 0 l 629 680 q 576 834 629 779 q 418 888 523 888 q 258 834 313 888 q 203 680 203 779 l 203 557 l 68 557 l 68 680 z "},"Ե":{"ha":894,"x_min":102,"x_max":819,"o":"m 799 313 q 775 176 799 237 q 706 72 751 115 q 595 6 661 29 q 449 -17 530 -17 q 303 6 368 -17 q 194 72 239 29 q 125 176 149 115 q 102 313 102 237 l 102 994 l 237 994 l 237 726 l 819 726 l 819 604 l 237 604 l 237 313 q 291 160 237 214 q 449 105 344 105 q 609 160 554 105 q 663 313 663 214 l 663 436 l 799 436 l 799 313 z "},"Զ":{"ha":956,"x_min":82,"x_max":861,"o":"m 472 892 q 375 876 420 892 q 296 830 330 859 q 239 760 261 801 q 213 670 218 720 l 82 693 q 125 825 92 766 q 210 925 159 884 q 327 988 260 966 q 472 1010 394 1010 q 636 982 564 1010 q 759 902 709 953 q 834 781 808 851 q 861 628 861 711 q 839 448 861 529 q 779 302 817 366 q 688 194 741 239 q 575 122 636 149 l 842 122 l 842 0 l 102 0 l 102 256 l 237 256 l 237 122 l 283 122 q 434 153 368 128 q 549 216 500 178 q 632 301 598 254 q 687 401 666 349 q 717 504 708 452 q 726 603 726 556 q 709 726 726 672 q 660 816 692 779 q 581 872 628 853 q 472 892 533 892 z "},"Է":{"ha":791,"x_min":109,"x_max":791,"o":"m 694 0 l 109 0 l 109 994 l 244 994 l 244 726 l 791 726 l 791 604 l 244 604 l 244 122 l 694 122 l 694 0 z "}}}
